<?xml version="1.0" encoding="utf-8"?>
<!-- Generator: Adobe Illustrator 25.0.0, SVG Export Plug-In . SVG Version: 6.00 Build 0)  -->
<svg version="1.1" id="Layer_1" xmlns="http://www.w3.org/2000/svg" xmlns:xlink="http://www.w3.org/1999/xlink" x="0px" y="0px"
	 viewBox="0 0 353.8 89.1" style="enable-background:new 0 0 353.8 89.1;" xml:space="preserve">
<style type="text/css">
	.st0{fill-rule:evenodd;clip-rule:evenodd;fill:#FAAC19;}
	.st1{fill-rule:evenodd;clip-rule:evenodd;}
</style>
<g>
	<path class="st0" d="M124.3,30.9c0,0,9.7-13.1,20.9-20s20.7,3.2,14.6,18C159.8,29,152.5,5.4,124.3,30.9z"/>
	<path class="st0" d="M101.4,30.9c0,0-9.7-13.1-20.9-20s-20.7,3.2-14.6,18C65.9,29,73.2,5.4,101.4,30.9z"/>
	<g>
		<path d="M5.3,86.2c-1.7,0-3.5-0.1-4.7-0.6c2.4,0,4.7-2,4.7-7.9V44.2L3,45.1l-3-5.8h22.1c10.7,0,16.2,5.1,16.2,12.2
			c0,4.2-1.4,7.6-4.3,9.9c5.1,2,7.7,6.4,7.7,12.7c0,6.6-5.3,12-15.5,12H5.3z M12.8,60.3c2.4,0,7.2,0,8.1,0c7.3,0,9.7-3,9.7-8.5
			c0-5.1-3.7-8-9.6-8c-6.1,0-8.2,0.4-8.2,2V60.3z M12.8,76.7c0,5.3,2.3,5.1,12.3,5.1c5.7,0,8.8-2.8,8.8-7.6c0-5.8-2.5-8.9-8.7-8.9
			c-1.8,0-10.3,0-12.5,0V76.7z"/>
		<path d="M57.8,72.7c1.3,6.6,6.5,10.2,11.9,10.2c3.4,0,8.2-1.6,13-4.4c-4.2,6.1-10.6,9.1-16.3,9.1c-9.9,0-17-7.6-17-18.4
			C49.6,58.6,54.6,51,65.8,51c11.7,0,17.3,8.3,17.3,21.8H57.8z M77.9,68c-0.3-5.1-3.1-11.8-10.5-11.8c-6.8,0-9.6,5.9-9.8,12.3
			L77.9,68z"/>
	</g>
	<g>
		<path d="M230.2,87.8h-7.7V65.2h-20.4v13c0,7.5-3.3,9.6-7.7,9.6c-1.9,0-3.7-0.2-4.7-0.6c2.4,0,4.7-2,4.7-7.9V45.8l-2.2,0.9l-3-5.8
			h12.9v19.9h20.4V50.4c0-6.2,2.4-10.2,7.3-10.2c1.8,0,3.9,0.6,5.1,1.4c-2.8,0-4.7,1.3-4.7,8V87.8z"/>
		<path d="M241.3,71.6c0-11.7,8.2-18.6,18.4-18.6c10.1,0,18.2,7,18.2,18.6c0,10.9-7.1,17.4-18.4,17.4
			C248.2,89,241.3,82.5,241.3,71.6z M259.9,84.7c6.5,0,10.4-5.3,10.4-12.7c0-3.4-1.3-14.6-10.6-14.6c-9,0-10.8,11.2-10.8,14.6
			C248.9,80,252.9,84.7,259.9,84.7z"/>
		<path d="M311,62.5c-1.9-1.8-7.4-4.4-11-4.4c-4.7,0-7.7,2.3-7.7,4.3c0,3.2,3.2,4.7,10.5,5.8c9.8,1.9,13.7,4.5,13.7,9.1
			c0,7-7.9,11.3-14.6,11.3c-11.4,0-17.2-6.8-17.2-17.4c3.7,5.8,7.7,11.8,16.2,11.8c5.9,0,7.9-3.2,7.9-5.5c0-2.8-5.8-3.2-8.9-3.8
			c-6.6-1.3-15.3-2.9-15.3-10.8c0-5.7,6-9.8,13.7-9.8c2.8,0,6,0.8,10,3.4l-0.4-2.7h9L311,62.5z"/>
		<path d="M323.2,53.7h4.8v-2.3c0-5.4-3.4-6.6-4.7-6.6c0.9-0.8,2.8-1.4,4.6-1.4c3.5,0,7.7,1.5,7.7,9.2v1.1h13.8v4.2h-13.8v15.9
			c0,6.5,2.3,10.6,7.3,10.6c1.4,0,2.8-0.3,4.2-1l-0.7-5.4h7.2l-5.1,9.1c-2.4,1.5-5,2-7.5,2c-6.1,0-13.2-3.5-13.2-13.5V57.9h-4.8
			V53.7z"/>
	</g>
	<g>
		<g>
			<path class="st1" d="M133.7,59.7c1.1,4.7,0.9,9.4-0.9,13.8c-3.1,7.4-9.9,11.2-16.4,11.9c-0.9,1.2-1.3,1.7-1.9,2.7
				c-1.3-1.6-1.6-2-2.1-2.6c-8.5-0.7-15.9-6.6-19.9-16.2l-0.7-1.5c0.9,1.1,6.3,11.8,22,12.1c19,0.2,22.5-27.2,5.3-31.6
				c-6.6-1.7-18.2,0.1-18.1,8.8c0,1,1.1,1.8,2.7,2.5c6.3,1.9,15.5-2.6,19.7-7.4c0.8,0.7,2.2,2.1,2.9,2.9c-4.2,5-15.4,9.5-21.9,7.5
				c-2.1-0.6-4.1-2.1-4.8-4.9c-0.7-2.9,0.5-5.9,2.1-8c2.1-2.8,5-4.5,8-5.4c3.5-1.1,7.1-1.1,10.4-0.2C127.5,46.2,132,52.5,133.7,59.7
				L133.7,59.7z M125.9,45.1c0.7,0.6,3.5,2.6,3.9,3.1c0.1-0.8,0.2-1.6,0.1-2.4c-0.2-8.2-7.2-14.1-12.9-15.8
				c-8.4-2.6-16.1,1.7-20.7,10.7c1.5-1.4,9.9-11.6,22.3-6.4C122.7,36.1,125.8,39.7,125.9,45.1z"/>
		</g>
		<g>
			<path class="st1" d="M123,30.9c4.9-7.1,13.4-19,22.6-21.7c30.4-8.9,17.2,40.6-9.7,38.7c14.1-1.1,38.9-39,12.8-36.1
				c-8.8,1-18.5,12.5-24.4,20.1C123.9,31.5,123.4,31.2,123,30.9z"/>
		</g>
		<g>
			<path class="st1" d="M103,30.8c-4-6.2-9.9-14.9-17.1-19.4c-1.7-1.1-3.5-1.9-5.3-2.4C74,7,66,10.4,62.5,15
				c-2.5,3.3-3.4,7.7-1.4,12.4c3.9,9.1,14.2,13,25.2,12.4c-7.4-0.7-22-5.4-21.7-16.5c0.3-11.5,12.9-12.6,21-7
				c5.2,3.6,10.8,7.9,16.2,15.5C102.2,31.4,102.6,31.1,103,30.8z"/>
		</g>
		<g>
			<path class="st1" d="M109.3,27.6c-12.2-2-14.9-14.2-5.5-18.7c2.4-1.1,5.4-1.6,8.3-1.6c3.7,0,7.5,0.8,10.5,3
				c2.4,1.8,4,4.3,4.4,7.2c0.5,3.8-1.1,7.4-3.9,10c-3.7,3.4-8.9,4.6-13.9,4.6c1.9-1,3.7-2.9,4.4-3c2.8-0.5,5.7-1.5,7.7-3.5
				c9.4-9.5,1.2-15.6-9.2-14.9c-3,0.2-5.9,0.8-8.1,1.9C98.3,15.3,98.8,22.7,109.3,27.6z"/>
		</g>
		<g>
			<path class="st1" d="M119.9,7.9c1.5-2.6,4.9-6.3,8.3-7.5c4.1-1.5,3.8,2.7,3.2,3.3c0.1-1.7-2.1-2.2-3.5-1.6
				C124.6,3.6,119.9,7.9,119.9,7.9z"/>
		</g>
		<g>
			<path class="st1" d="M101.9,7.9c-1.5-2.6-4.9-6.3-8.3-7.5c-4.1-1.5-3.8,2.7-3.2,3.3c-0.1-1.7,2.1-2.2,3.5-1.6
				C97.2,3.6,102,7.9,101.9,7.9z"/>
		</g>
		<g>
			<path class="st1" d="M183.5,70.7L183.5,70.7c0.2-0.5,0.6-0.9,1.1-0.9c0.5-0.1,0.9,0,1.2,0.3c0.3,0.3,0.4,0.7,0.2,1.2
				c-0.8,2-1.9,3.9-3.3,5.8c-1.4,1.9-3.1,3.5-4.9,4.8c-1.9,1.3-3.7,2-5.7,2c-5.5-0.2-9.2-2.7-11-7.6c-1,2.6-2.3,5-3.9,7.1
				s-3.8,3.3-6.7,3.7c-3.1,0.2-5.7-0.6-7.7-2.2c-2-1.7-3.5-3.8-4.4-6.5c-0.9-2.7-1.3-5.5-1-8.5c0.5-4.5,1.8-8.2,4-11.1
				c2.2-2.9,4.7-4.6,7.5-5.1c2.8-0.6,5.3,0.4,7.4,2.9c1.4,1.9,1.7,4,0.9,6.5c-0.8,2.5-2.3,4.6-4.5,6.5c-2.2,1.9-4.9,2.9-7.8,3.2
				c0,1.3,0.1,2.9,0.5,4.7c0.4,1.9,1,3.5,1.9,4.9c0.9,1.4,2.1,2.1,3.6,2c1.6-0.2,3-1,4.2-2.5c1.2-1.4,2.2-3.2,3.1-5.1
				c0.8-2,1.6-3.9,2.2-5.7c0-0.4,0-0.8,0-1.2c0.4-3.4,1.5-6.2,3.3-8.5c1.8-2.2,4-3.7,6.5-4.5c2.2-0.6,3.9-0.6,5.4-0.2
				c1.4,0.5,2.5,1.1,3.2,1.8c0,0,0.1,0.1,0.1,0.1c0.1,0.1,0.1,0.2,0.2,0.2c0,0,0,0,0,0l0,0l0,0c1.4,1.6,1.6,3.6,0.6,6
				c-0.9,2-2.5,3.7-4.6,5.2c-2.2,1.5-4.6,2.4-7.1,2.5c0,1.9,0.4,3.8,1.1,5.6c0.8,1.8,1.9,2.8,3.4,3c2,0,4.1-1,6.3-3.1
				C180.8,75.8,182.4,73.4,183.5,70.7L183.5,70.7z M173.1,60.8L173.1,60.8c-2.5,1.9-4.2,5-5,9.2c1.9-0.2,3.8-0.9,5.5-2.1
				c1.7-1.2,2.9-2.6,3.6-4.1c0.6-1.4,0.5-2.5-0.3-3.3c-0.4-0.4-0.9-0.5-1.5-0.5C174.9,59.9,174.1,60.2,173.1,60.8L173.1,60.8z
				 M154.3,58L154.3,58c-1.5-1.2-2.9-1.2-4.3,0c-1.4,1.2-2.6,2.9-3.5,5.2c-0.9,2.3-1.5,4.6-1.6,6.7c2.7-0.2,4.9-1.1,6.7-2.6
				c1.7-1.6,2.9-3.3,3.4-5.1C155.5,60.4,155.3,59,154.3,58z"/>
		</g>
	</g>
</g>
</svg>
