<?xml version="1.0" encoding="utf-8"?>
<!-- Generator: Adobe Illustrator 25.0.0, SVG Export Plug-In . SVG Version: 6.00 Build 0)  -->
<svg version="1.1" id="Layer_1" xmlns="http://www.w3.org/2000/svg" xmlns:xlink="http://www.w3.org/1999/xlink" x="0px" y="0px"
	 viewBox="0 0 529.6 470.4" style="enable-background:new 0 0 529.6 470.4;" xml:space="preserve">
<style type="text/css">
	.st0{fill:url(#SVGID_1_);}
	.st1{fill:url(#SVGID_2_);}
	.st2{fill:#FFFFFF;}
	.st3{fill:#F9F9F9;}
	.st4{fill:url(#SVGID_3_);}
	.st5{fill:url(#SVGID_4_);}
	.st6{fill:url(#SVGID_5_);}
	.st7{fill:url(#SVGID_6_);}
	.st8{fill:url(#SVGID_7_);}
	.st9{fill:url(#SVGID_8_);}
	.st10{fill:url(#SVGID_9_);}
	.st11{fill:url(#SVGID_10_);}
	.st12{fill:url(#SVGID_11_);}
	.st13{fill:url(#SVGID_12_);}
	.st14{fill:url(#SVGID_13_);}
	.st15{fill:url(#SVGID_14_);}
	.st16{fill:url(#SVGID_15_);}
	.st17{fill:url(#SVGID_16_);}
	.st18{fill:url(#SVGID_17_);}
	.st19{fill:url(#SVGID_18_);}
	.st20{fill:url(#SVGID_19_);}
	.st21{fill:#FD6645;}
	.st22{clip-path:url(#SVGID_21_);}
	.st23{fill:url(#SVGID_22_);}
	.st24{fill:url(#SVGID_23_);}
	.st25{fill:url(#SVGID_24_);}
	.st26{fill:url(#SVGID_25_);}
	.st27{fill:url(#SVGID_26_);}
	.st28{fill:url(#SVGID_27_);}
	.st29{fill:url(#SVGID_28_);}
	.st30{fill:url(#SVGID_29_);}
	.st31{fill:url(#SVGID_30_);}
	.st32{fill:url(#SVGID_31_);}
	.st33{fill:url(#SVGID_32_);}
	.st34{fill:url(#SVGID_33_);}
	.st35{fill:url(#SVGID_34_);}
	.st36{fill:#CBCBCB;}
	.st37{fill:url(#SVGID_35_);}
	.st38{fill:url(#SVGID_36_);}
	.st39{fill:url(#SVGID_37_);}
	.st40{fill:url(#SVGID_38_);}
	.st41{fill:#FDAE97;}
	.st42{fill:url(#SVGID_39_);}
	.st43{fill:#C57864;}
	.st44{fill:url(#SVGID_40_);}
	.st45{fill:url(#SVGID_41_);}
	.st46{fill:url(#SVGID_42_);}
	.st47{fill:url(#SVGID_43_);}
	.st48{fill:url(#SVGID_44_);}
	.st49{fill:url(#SVGID_45_);}
	.st50{fill:url(#SVGID_46_);}
	.st51{fill:url(#SVGID_47_);}
	.st52{fill:url(#SVGID_48_);}
	.st53{fill:url(#SVGID_49_);}
	.st54{fill:url(#SVGID_50_);}
	.st55{fill:url(#SVGID_51_);}
	.st56{fill:url(#SVGID_52_);}
	.st57{fill:url(#SVGID_53_);}
	.st58{fill:url(#SVGID_54_);}
	.st59{fill:url(#SVGID_55_);}
	.st60{fill:url(#SVGID_56_);}
</style>
<g>
	<g>
		<g>
			<g>
				<path d="M146.5,438H50.9c-3.6,0-6.5,2.9-6.5,6.5v13c0,3.6,2.9,6.5,6.5,6.5h95.7c3.6,0,6.5-2.9,6.5-6.5v-13
					C153,440.9,150.1,438,146.5,438z"/>
			</g>
		</g>
		<g>
			<g>
				<g>
					<linearGradient id="SVGID_1_" gradientUnits="userSpaceOnUse" x1="134.1155" y1="450.943" x2="-1.8196" y2="450.943">
						<stop  offset="0" style="stop-color:#FFFFFF"/>
						<stop  offset="1" style="stop-color:#E8A826"/>
					</linearGradient>
					<path class="st0" d="M107.8,438H12.1c-3.6,0-6.5,2.9-6.5,6.5v13c0,3.6,2.9,6.5,6.5,6.5h95.7c3.6,0,6.5-2.9,6.5-6.5v-13
						C114.2,440.9,111.3,438,107.8,438z"/>
					<g>
						<path d="M107.8,464.4H12.1c-3.8,0-6.9-3.1-6.9-6.9v-13c0-3.8,3.1-6.9,6.9-6.9h95.7c3.8,0,7,3.1,7,6.9v13
							C114.7,461.3,111.6,464.4,107.8,464.4z M12.1,438.4c-3.3,0-6,2.7-6,6v13c0,3.3,2.7,6,6,6h95.7c3.3,0,6-2.7,6-6v-13
							c0-3.3-2.7-6-6-6H12.1z"/>
					</g>
				</g>
			</g>
		</g>
		<g>
			<g>
				<path d="M103.2,452H40.8c-0.8,0-1.5,0.7-1.5,1.5c0,0.8,0.7,1.5,1.5,1.5h62.4c0.8,0,1.5-0.7,1.5-1.5
					C104.7,452.6,104,452,103.2,452z"/>
			</g>
		</g>
		<g>
			<g>
				<linearGradient id="SVGID_2_" gradientUnits="userSpaceOnUse" x1="45.9587" y1="453.4532" x2="104.658" y2="453.4532">
					<stop  offset="0" style="stop-color:#FF4428"/>
					<stop  offset="1" style="stop-color:#FF7E3B"/>
				</linearGradient>
				<path class="st1" d="M103.2,452H47.4c-0.8,0-1.5,0.7-1.5,1.5c0,0.8,0.7,1.5,1.5,1.5h55.7c0.8,0,1.5-0.7,1.5-1.5
					C104.7,452.6,104,452,103.2,452z"/>
			</g>
		</g>
		<g>
			<g>
				<path class="st2" d="M103.2,446.3H40.8c-0.8,0-1.5,0.7-1.5,1.5c0,0.8,0.7,1.5,1.5,1.5h62.4c0.8,0,1.5-0.7,1.5-1.5
					C104.7,446.9,104,446.3,103.2,446.3z"/>
			</g>
		</g>
		<g>
			<g>
				<path d="M103.2,446.3H55.9c-0.8,0-1.5,0.7-1.5,1.5c0,0.8,0.7,1.5,1.5,1.5h47.3c0.8,0,1.5-0.7,1.5-1.5
					C104.7,446.9,104,446.3,103.2,446.3z"/>
			</g>
		</g>
		<g>
			<path d="M88.3,458.7H50.2c-2,0-3.6,1.6-3.6,3.6v1.6h45.3v-1.6C91.9,460.3,90.3,458.7,88.3,458.7z"/>
		</g>
		<g>
			<path d="M141.4,458.7h-15.8c-2,0-3.6,1.6-3.6,3.6v1.6h23v-1.6C145,460.3,143.4,458.7,141.4,458.7z"/>
		</g>
		<g>
			<g>
				<path class="st3" d="M15.2,448.4c-1.4,0-2.5,1.1-2.5,2.5c0,1.4,1.1,2.5,2.5,2.5c1.4,0,2.5-1.1,2.5-2.5
					C17.7,449.6,16.6,448.4,15.2,448.4z"/>
			</g>
			<g>
				<path d="M15.2,448c-1.6,0-2.9,1.3-2.9,2.9c0,1.6,1.3,2.9,2.9,2.9c1.6,0,2.9-1.3,2.9-2.9C18.1,449.3,16.8,448,15.2,448z
					 M15.2,453c-1.2,0-2.1-0.9-2.1-2.1c0-1.2,0.9-2.1,2.1-2.1c1.2,0,2.1,0.9,2.1,2.1C17.3,452.1,16.3,453,15.2,453z"/>
			</g>
		</g>
		<g>
			<g>
				<path d="M24.2,448.4c-1.4,0-2.5,1.1-2.5,2.5c0,1.4,1.1,2.5,2.5,2.5c1.4,0,2.5-1.1,2.5-2.5C26.7,449.6,25.6,448.4,24.2,448.4z"/>
			</g>
			<g>
				<path d="M24.2,448c-1.6,0-2.9,1.3-2.9,2.9c0,1.6,1.3,2.9,2.9,2.9c1.6,0,2.9-1.3,2.9-2.9C27.2,449.3,25.8,448,24.2,448z
					 M24.2,453c-1.2,0-2.1-0.9-2.1-2.1c0-1.2,0.9-2.1,2.1-2.1c1.2,0,2.1,0.9,2.1,2.1C26.3,452.1,25.4,453,24.2,453z"/>
			</g>
		</g>
		<g>
			<g>
				<rect x="26.7" y="450.1" width="5.3" height="1.7"/>
			</g>
		</g>
		<g>
			<path d="M144.9,445.3c-0.9,0-1.7,0.7-1.7,1.7s0.7,1.7,1.7,1.7c0.9,0,1.7-0.7,1.7-1.7S145.8,445.3,144.9,445.3z"/>
		</g>
		<g>
			<path d="M144.9,451.3c-0.9,0-1.7,0.7-1.7,1.7c0,0.9,0.7,1.7,1.7,1.7c0.9,0,1.7-0.7,1.7-1.7C146.6,452,145.8,451.3,144.9,451.3z"
				/>
		</g>
		<g>
			<path d="M137.3,445.3c-0.9,0-1.7,0.7-1.7,1.7s0.7,1.7,1.7,1.7c0.9,0,1.7-0.7,1.7-1.7S138.2,445.3,137.3,445.3z"/>
		</g>
		<g>
			<path d="M137.3,451.3c-0.9,0-1.7,0.7-1.7,1.7c0,0.9,0.7,1.7,1.7,1.7c0.9,0,1.7-0.7,1.7-1.7C139,452,138.2,451.3,137.3,451.3z"/>
		</g>
		<g>
			<path d="M129.7,445.3c-0.9,0-1.7,0.7-1.7,1.7s0.7,1.7,1.7,1.7c0.9,0,1.7-0.7,1.7-1.7S130.6,445.3,129.7,445.3z"/>
		</g>
		<g>
			<path d="M129.7,451.3c-0.9,0-1.7,0.7-1.7,1.7c0,0.9,0.7,1.7,1.7,1.7c0.9,0,1.7-0.7,1.7-1.7C131.4,452,130.6,451.3,129.7,451.3z"
				/>
		</g>
		<g>
			<path d="M122.1,445.3c-0.9,0-1.7,0.7-1.7,1.7s0.7,1.7,1.7,1.7c0.9,0,1.7-0.7,1.7-1.7S123,445.3,122.1,445.3z"/>
		</g>
		<g>
			<path d="M122.1,451.3c-0.9,0-1.7,0.7-1.7,1.7c0,0.9,0.7,1.7,1.7,1.7c0.9,0,1.7-0.7,1.7-1.7C123.8,452,123,451.3,122.1,451.3z"/>
		</g>
		<g>
			<rect x="17.7" y="463.9" width="124.7" height="4.1"/>
		</g>
		<g>
			<g>
				<path d="M146.5,407.9H50.9c-3.6,0-6.5,2.9-6.5,6.5v13c0,3.6,2.9,6.5,6.5,6.5h95.7c3.6,0,6.5-2.9,6.5-6.5v-13
					C153,410.8,150.1,407.9,146.5,407.9z"/>
			</g>
		</g>
		<g>
			<g>
				<g>
					<linearGradient id="SVGID_3_" gradientUnits="userSpaceOnUse" x1="134.1155" y1="420.9008" x2="-1.8196" y2="420.9008">
						<stop  offset="0" style="stop-color:#FFFFFF"/>
						<stop  offset="1" style="stop-color:#E8A826"/>
					</linearGradient>
					<path class="st4" d="M107.8,407.9H12.1c-3.6,0-6.5,2.9-6.5,6.5v13c0,3.6,2.9,6.5,6.5,6.5h95.7c3.6,0,6.5-2.9,6.5-6.5v-13
						C114.2,410.8,111.3,407.9,107.8,407.9z"/>
					<g>
						<path d="M107.8,434.4H12.1c-3.8,0-6.9-3.1-6.9-7v-13c0-3.8,3.1-7,6.9-7h95.7c3.8,0,7,3.1,7,7v13
							C114.7,431.2,111.6,434.4,107.8,434.4z M12.1,408.4c-3.3,0-6,2.7-6,6v13c0,3.3,2.7,6,6,6h95.7c3.3,0,6-2.7,6-6v-13
							c0-3.3-2.7-6-6-6H12.1z"/>
					</g>
				</g>
			</g>
		</g>
		<g>
			<g>
				<path d="M103.2,421.9H40.8c-0.8,0-1.5,0.7-1.5,1.5c0,0.8,0.7,1.5,1.5,1.5h62.4c0.8,0,1.5-0.7,1.5-1.5
					C104.7,422.6,104,421.9,103.2,421.9z"/>
			</g>
		</g>
		<g>
			<g>
				<linearGradient id="SVGID_4_" gradientUnits="userSpaceOnUse" x1="45.9587" y1="423.4114" x2="104.658" y2="423.4114">
					<stop  offset="0" style="stop-color:#FF4428"/>
					<stop  offset="1" style="stop-color:#FF7E3B"/>
				</linearGradient>
				<path class="st5" d="M103.2,421.9H47.4c-0.8,0-1.5,0.7-1.5,1.5c0,0.8,0.7,1.5,1.5,1.5h55.7c0.8,0,1.5-0.7,1.5-1.5
					C104.7,422.6,104,421.9,103.2,421.9z"/>
			</g>
		</g>
		<g>
			<g>
				<path class="st2" d="M103.2,416.2H40.8c-0.8,0-1.5,0.7-1.5,1.5c0,0.8,0.7,1.5,1.5,1.5h62.4c0.8,0,1.5-0.7,1.5-1.5
					C104.7,416.9,104,416.2,103.2,416.2z"/>
			</g>
		</g>
		<g>
			<g>
				<path d="M103.2,416.2H55.9c-0.8,0-1.5,0.7-1.5,1.5c0,0.8,0.7,1.5,1.5,1.5h47.3c0.8,0,1.5-0.7,1.5-1.5
					C104.7,416.9,104,416.2,103.2,416.2z"/>
			</g>
		</g>
		<g>
			<path d="M88.3,428.6H50.2c-2,0-3.6,1.6-3.6,3.6v1.6h45.3v-1.6C91.9,430.3,90.3,428.6,88.3,428.6z"/>
		</g>
		<g>
			<path d="M141.4,428.6h-15.8c-2,0-3.6,1.6-3.6,3.6v1.6h23v-1.6C145,430.3,143.4,428.6,141.4,428.6z"/>
		</g>
		<g>
			<g>
				<path class="st3" d="M15.2,418.4c-1.4,0-2.5,1.1-2.5,2.5c0,1.4,1.1,2.5,2.5,2.5c1.4,0,2.5-1.1,2.5-2.5
					C17.7,419.5,16.6,418.4,15.2,418.4z"/>
			</g>
			<g>
				<path d="M15.2,418c-1.6,0-2.9,1.3-2.9,2.9c0,1.6,1.3,2.9,2.9,2.9c1.6,0,2.9-1.3,2.9-2.9C18.1,419.3,16.8,418,15.2,418z
					 M15.2,423c-1.2,0-2.1-0.9-2.1-2.1c0-1.2,0.9-2.1,2.1-2.1c1.2,0,2.1,0.9,2.1,2.1C17.3,422.1,16.3,423,15.2,423z"/>
			</g>
		</g>
		<g>
			<g>
				<path d="M24.2,418.4c-1.4,0-2.5,1.1-2.5,2.5c0,1.4,1.1,2.5,2.5,2.5c1.4,0,2.5-1.1,2.5-2.5C26.7,419.5,25.6,418.4,24.2,418.4z"/>
			</g>
			<g>
				<path d="M24.2,418c-1.6,0-2.9,1.3-2.9,2.9c0,1.6,1.3,2.9,2.9,2.9c1.6,0,2.9-1.3,2.9-2.9C27.2,419.3,25.8,418,24.2,418z
					 M24.2,423c-1.2,0-2.1-0.9-2.1-2.1c0-1.2,0.9-2.1,2.1-2.1c1.2,0,2.1,0.9,2.1,2.1C26.3,422.1,25.4,423,24.2,423z"/>
			</g>
		</g>
		<g>
			<g>
				<rect x="26.7" y="420.1" width="5.3" height="1.7"/>
			</g>
		</g>
		<g>
			<path d="M144.9,415.2c-0.9,0-1.7,0.7-1.7,1.7c0,0.9,0.7,1.7,1.7,1.7c0.9,0,1.7-0.7,1.7-1.7C146.6,416,145.8,415.2,144.9,415.2z"
				/>
		</g>
		<g>
			<path d="M144.9,421.3c-0.9,0-1.7,0.7-1.7,1.7c0,0.9,0.7,1.7,1.7,1.7c0.9,0,1.7-0.7,1.7-1.7C146.6,422,145.8,421.3,144.9,421.3z"
				/>
		</g>
		<g>
			<path d="M137.3,415.2c-0.9,0-1.7,0.7-1.7,1.7c0,0.9,0.7,1.7,1.7,1.7c0.9,0,1.7-0.7,1.7-1.7C139,416,138.2,415.2,137.3,415.2z"/>
		</g>
		<g>
			<path d="M137.3,421.3c-0.9,0-1.7,0.7-1.7,1.7c0,0.9,0.7,1.7,1.7,1.7c0.9,0,1.7-0.7,1.7-1.7C139,422,138.2,421.3,137.3,421.3z"/>
		</g>
		<g>
			<path d="M129.7,415.2c-0.9,0-1.7,0.7-1.7,1.7c0,0.9,0.7,1.7,1.7,1.7c0.9,0,1.7-0.7,1.7-1.7C131.4,416,130.6,415.2,129.7,415.2z"
				/>
		</g>
		<g>
			<path d="M129.7,421.3c-0.9,0-1.7,0.7-1.7,1.7c0,0.9,0.7,1.7,1.7,1.7c0.9,0,1.7-0.7,1.7-1.7C131.4,422,130.6,421.3,129.7,421.3z"
				/>
		</g>
		<g>
			<path d="M122.1,415.2c-0.9,0-1.7,0.7-1.7,1.7c0,0.9,0.7,1.7,1.7,1.7c0.9,0,1.7-0.7,1.7-1.7C123.8,416,123,415.2,122.1,415.2z"/>
		</g>
		<g>
			<path d="M122.1,421.3c-0.9,0-1.7,0.7-1.7,1.7c0,0.9,0.7,1.7,1.7,1.7c0.9,0,1.7-0.7,1.7-1.7C123.8,422,123,421.3,122.1,421.3z"/>
		</g>
		<g>
			<rect x="17.7" y="433.9" width="124.7" height="4.1"/>
		</g>
		<g>
			<g>
				<path d="M146.5,377.9H50.9c-3.6,0-6.5,2.9-6.5,6.5v13c0,3.6,2.9,6.5,6.5,6.5h95.7c3.6,0,6.5-2.9,6.5-6.5v-13
					C153,380.8,150.1,377.9,146.5,377.9z"/>
			</g>
		</g>
		<g>
			<g>
				<g>
					<linearGradient id="SVGID_5_" gradientUnits="userSpaceOnUse" x1="134.1155" y1="390.8591" x2="-1.8196" y2="390.8591">
						<stop  offset="0" style="stop-color:#FFFFFF"/>
						<stop  offset="1" style="stop-color:#E8A826"/>
					</linearGradient>
					<path class="st6" d="M107.8,377.9H12.1c-3.6,0-6.5,2.9-6.5,6.5v13c0,3.6,2.9,6.5,6.5,6.5h95.7c3.6,0,6.5-2.9,6.5-6.5v-13
						C114.2,380.8,111.3,377.9,107.8,377.9z"/>
					<g>
						<path d="M107.8,404.3H12.1c-3.8,0-6.9-3.1-6.9-7v-13c0-3.8,3.1-7,6.9-7h95.7c3.8,0,7,3.1,7,7v13
							C114.7,401.2,111.6,404.3,107.8,404.3z M12.1,378.4c-3.3,0-6,2.7-6,6v13c0,3.3,2.7,6,6,6h95.7c3.3,0,6-2.7,6-6v-13
							c0-3.3-2.7-6-6-6H12.1z"/>
					</g>
				</g>
			</g>
		</g>
		<g>
			<g>
				<path d="M103.2,391.9H40.8c-0.8,0-1.5,0.7-1.5,1.5c0,0.8,0.7,1.5,1.5,1.5h62.4c0.8,0,1.5-0.7,1.5-1.5
					C104.7,392.5,104,391.9,103.2,391.9z"/>
			</g>
		</g>
		<g>
			<g>
				<linearGradient id="SVGID_6_" gradientUnits="userSpaceOnUse" x1="45.9587" y1="393.3698" x2="104.658" y2="393.3698">
					<stop  offset="0" style="stop-color:#FF4428"/>
					<stop  offset="1" style="stop-color:#FF7E3B"/>
				</linearGradient>
				<path class="st7" d="M103.2,391.9H47.4c-0.8,0-1.5,0.7-1.5,1.5c0,0.8,0.7,1.5,1.5,1.5h55.7c0.8,0,1.5-0.7,1.5-1.5
					C104.7,392.5,104,391.9,103.2,391.9z"/>
			</g>
		</g>
		<g>
			<g>
				<path class="st2" d="M103.2,386.2H40.8c-0.8,0-1.5,0.7-1.5,1.5c0,0.8,0.7,1.5,1.5,1.5h62.4c0.8,0,1.5-0.7,1.5-1.5
					C104.7,386.8,104,386.2,103.2,386.2z"/>
			</g>
		</g>
		<g>
			<g>
				<g>
					<path d="M103.2,386.2H55.9c-0.8,0-1.5,0.7-1.5,1.5c0,0.8,0.7,1.5,1.5,1.5h47.3c0.8,0,1.5-0.7,1.5-1.5
						C104.7,386.8,104,386.2,103.2,386.2z"/>
				</g>
			</g>
		</g>
		<g>
			<path d="M88.3,398.6H50.2c-2,0-3.6,1.6-3.6,3.6v1.6h45.3v-1.6C91.9,400.2,90.3,398.6,88.3,398.6z"/>
		</g>
		<g>
			<path d="M141.4,398.6h-15.8c-2,0-3.6,1.6-3.6,3.6v1.6h23v-1.6C145,400.2,143.4,398.6,141.4,398.6z"/>
		</g>
		<g>
			<g>
				<path class="st3" d="M15.2,388.3c-1.4,0-2.5,1.1-2.5,2.5c0,1.4,1.1,2.5,2.5,2.5c1.4,0,2.5-1.1,2.5-2.5
					C17.7,389.5,16.6,388.3,15.2,388.3z"/>
			</g>
			<g>
				<path d="M15.2,387.9c-1.6,0-2.9,1.3-2.9,2.9c0,1.6,1.3,2.9,2.9,2.9c1.6,0,2.9-1.3,2.9-2.9C18.1,389.2,16.8,387.9,15.2,387.9z
					 M15.2,392.9c-1.2,0-2.1-0.9-2.1-2.1c0-1.2,0.9-2.1,2.1-2.1c1.2,0,2.1,0.9,2.1,2.1C17.3,392,16.3,392.9,15.2,392.9z"/>
			</g>
		</g>
		<g>
			<g>
				<path d="M24.2,388.3c-1.4,0-2.5,1.1-2.5,2.5c0,1.4,1.1,2.5,2.5,2.5c1.4,0,2.5-1.1,2.5-2.5C26.7,389.5,25.6,388.3,24.2,388.3z"/>
			</g>
			<g>
				<path d="M24.2,387.9c-1.6,0-2.9,1.3-2.9,2.9c0,1.6,1.3,2.9,2.9,2.9c1.6,0,2.9-1.3,2.9-2.9C27.2,389.2,25.8,387.9,24.2,387.9z
					 M24.2,392.9c-1.2,0-2.1-0.9-2.1-2.1c0-1.2,0.9-2.1,2.1-2.1c1.2,0,2.1,0.9,2.1,2.1C26.3,392,25.4,392.9,24.2,392.9z"/>
			</g>
		</g>
		<g>
			<g>
				<rect x="26.7" y="390" width="5.3" height="1.7"/>
			</g>
		</g>
		<g>
			<path d="M144.9,385.2c-0.9,0-1.7,0.7-1.7,1.7c0,0.9,0.7,1.7,1.7,1.7c0.9,0,1.7-0.7,1.7-1.7C146.6,385.9,145.8,385.2,144.9,385.2z
				"/>
		</g>
		<g>
			<path d="M144.9,391.2c-0.9,0-1.7,0.7-1.7,1.7c0,0.9,0.7,1.7,1.7,1.7c0.9,0,1.7-0.7,1.7-1.7C146.6,392,145.8,391.2,144.9,391.2z"
				/>
		</g>
		<g>
			<path d="M137.3,385.2c-0.9,0-1.7,0.7-1.7,1.7c0,0.9,0.7,1.7,1.7,1.7c0.9,0,1.7-0.7,1.7-1.7C139,385.9,138.2,385.2,137.3,385.2z"
				/>
		</g>
		<g>
			<path d="M137.3,391.2c-0.9,0-1.7,0.7-1.7,1.7c0,0.9,0.7,1.7,1.7,1.7c0.9,0,1.7-0.7,1.7-1.7C139,392,138.2,391.2,137.3,391.2z"/>
		</g>
		<g>
			<path d="M129.7,385.2c-0.9,0-1.7,0.7-1.7,1.7c0,0.9,0.7,1.7,1.7,1.7c0.9,0,1.7-0.7,1.7-1.7C131.4,385.9,130.6,385.2,129.7,385.2z
				"/>
		</g>
		<g>
			<path d="M129.7,391.2c-0.9,0-1.7,0.7-1.7,1.7c0,0.9,0.7,1.7,1.7,1.7c0.9,0,1.7-0.7,1.7-1.7C131.4,392,130.6,391.2,129.7,391.2z"
				/>
		</g>
		<g>
			<path d="M122.1,385.2c-0.9,0-1.7,0.7-1.7,1.7c0,0.9,0.7,1.7,1.7,1.7c0.9,0,1.7-0.7,1.7-1.7C123.8,385.9,123,385.2,122.1,385.2z"
				/>
		</g>
		<g>
			<path d="M122.1,391.2c-0.9,0-1.7,0.7-1.7,1.7c0,0.9,0.7,1.7,1.7,1.7c0.9,0,1.7-0.7,1.7-1.7C123.8,392,123,391.2,122.1,391.2z"/>
		</g>
		<g>
			<rect x="17.7" y="403.8" width="124.7" height="4.1"/>
		</g>
		<g>
			<g>
				<path d="M146.5,347.8H50.9c-3.6,0-6.5,2.9-6.5,6.5v13c0,3.6,2.9,6.5,6.5,6.5h95.7c3.6,0,6.5-2.9,6.5-6.5v-13
					C153,350.7,150.1,347.8,146.5,347.8z"/>
			</g>
		</g>
		<g>
			<g>
				<g>
					<linearGradient id="SVGID_7_" gradientUnits="userSpaceOnUse" x1="134.1155" y1="360.8164" x2="-1.8196" y2="360.8164">
						<stop  offset="0" style="stop-color:#FFFFFF"/>
						<stop  offset="1" style="stop-color:#E8A826"/>
					</linearGradient>
					<path class="st8" d="M107.8,347.8H12.1c-3.6,0-6.5,2.9-6.5,6.5v13c0,3.6,2.9,6.5,6.5,6.5h95.7c3.6,0,6.5-2.9,6.5-6.5v-13
						C114.2,350.7,111.3,347.8,107.8,347.8z"/>
					<g>
						<path d="M107.8,374.3H12.1c-3.8,0-6.9-3.1-6.9-6.9v-13c0-3.8,3.1-7,6.9-7h95.7c3.8,0,7,3.1,7,7v13
							C114.7,371.2,111.6,374.3,107.8,374.3z M12.1,348.3c-3.3,0-6,2.7-6,6v13c0,3.3,2.7,6,6,6h95.7c3.3,0,6-2.7,6-6v-13
							c0-3.3-2.7-6-6-6H12.1z"/>
					</g>
				</g>
			</g>
		</g>
		<g>
			<g>
				<path d="M103.2,361.8H40.8c-0.8,0-1.5,0.7-1.5,1.5c0,0.8,0.7,1.5,1.5,1.5h62.4c0.8,0,1.5-0.7,1.5-1.5
					C104.7,362.5,104,361.8,103.2,361.8z"/>
			</g>
		</g>
		<g>
			<g>
				<linearGradient id="SVGID_8_" gradientUnits="userSpaceOnUse" x1="45.9587" y1="363.3271" x2="104.658" y2="363.3271">
					<stop  offset="0" style="stop-color:#FF4428"/>
					<stop  offset="1" style="stop-color:#FF7E3B"/>
				</linearGradient>
				<path class="st9" d="M103.2,361.8H47.4c-0.8,0-1.5,0.7-1.5,1.5c0,0.8,0.7,1.5,1.5,1.5h55.7c0.8,0,1.5-0.7,1.5-1.5
					C104.7,362.5,104,361.8,103.2,361.8z"/>
			</g>
		</g>
		<g>
			<g>
				<path class="st2" d="M103.2,356.1H40.8c-0.8,0-1.5,0.7-1.5,1.5c0,0.8,0.7,1.5,1.5,1.5h62.4c0.8,0,1.5-0.7,1.5-1.5
					C104.7,356.8,104,356.1,103.2,356.1z"/>
			</g>
		</g>
		<g>
			<g>
				<path d="M103.2,356.1H55.9c-0.8,0-1.5,0.7-1.5,1.5c0,0.8,0.7,1.5,1.5,1.5h47.3c0.8,0,1.5-0.7,1.5-1.5
					C104.7,356.8,104,356.1,103.2,356.1z"/>
			</g>
		</g>
		<g>
			<path d="M88.3,368.6H50.2c-2,0-3.6,1.6-3.6,3.6v1.6h45.3v-1.6C91.9,370.2,90.3,368.6,88.3,368.6z"/>
		</g>
		<g>
			<path d="M141.4,368.6h-15.8c-2,0-3.6,1.6-3.6,3.6v1.6h23v-1.6C145,370.2,143.4,368.6,141.4,368.6z"/>
		</g>
		<g>
			<g>
				<path class="st3" d="M15.2,358.3c-1.4,0-2.5,1.1-2.5,2.5c0,1.4,1.1,2.5,2.5,2.5c1.4,0,2.5-1.1,2.5-2.5
					C17.7,359.4,16.6,358.3,15.2,358.3z"/>
			</g>
			<g>
				<path d="M15.2,357.9c-1.6,0-2.9,1.3-2.9,2.9c0,1.6,1.3,2.9,2.9,2.9c1.6,0,2.9-1.3,2.9-2.9C18.1,359.2,16.8,357.9,15.2,357.9z
					 M15.2,362.9c-1.2,0-2.1-0.9-2.1-2.1c0-1.2,0.9-2.1,2.1-2.1c1.2,0,2.1,0.9,2.1,2.1C17.3,362,16.3,362.9,15.2,362.9z"/>
			</g>
		</g>
		<g>
			<g>
				<path d="M24.2,358.3c-1.4,0-2.5,1.1-2.5,2.5c0,1.4,1.1,2.5,2.5,2.5c1.4,0,2.5-1.1,2.5-2.5C26.7,359.4,25.6,358.3,24.2,358.3z"/>
			</g>
			<g>
				<path d="M24.2,357.9c-1.6,0-2.9,1.3-2.9,2.9c0,1.6,1.3,2.9,2.9,2.9c1.6,0,2.9-1.3,2.9-2.9C27.2,359.2,25.8,357.9,24.2,357.9z
					 M24.2,362.9c-1.2,0-2.1-0.9-2.1-2.1c0-1.2,0.9-2.1,2.1-2.1c1.2,0,2.1,0.9,2.1,2.1C26.3,362,25.4,362.9,24.2,362.9z"/>
			</g>
		</g>
		<g>
			<g>
				<rect x="26.7" y="360" width="5.3" height="1.7"/>
			</g>
		</g>
		<g>
			<path d="M144.9,355.2c-0.9,0-1.7,0.7-1.7,1.7s0.7,1.7,1.7,1.7c0.9,0,1.7-0.7,1.7-1.7S145.8,355.2,144.9,355.2z"/>
		</g>
		<g>
			<path d="M144.9,361.2c-0.9,0-1.7,0.7-1.7,1.7c0,0.9,0.7,1.7,1.7,1.7c0.9,0,1.7-0.7,1.7-1.7C146.6,361.9,145.8,361.2,144.9,361.2z
				"/>
		</g>
		<g>
			<path d="M137.3,355.2c-0.9,0-1.7,0.7-1.7,1.7s0.7,1.7,1.7,1.7c0.9,0,1.7-0.7,1.7-1.7S138.2,355.2,137.3,355.2z"/>
		</g>
		<g>
			<path d="M137.3,361.2c-0.9,0-1.7,0.7-1.7,1.7c0,0.9,0.7,1.7,1.7,1.7c0.9,0,1.7-0.7,1.7-1.7C139,361.9,138.2,361.2,137.3,361.2z"
				/>
		</g>
		<g>
			<path d="M129.7,355.2c-0.9,0-1.7,0.7-1.7,1.7s0.7,1.7,1.7,1.7c0.9,0,1.7-0.7,1.7-1.7S130.6,355.2,129.7,355.2z"/>
		</g>
		<g>
			<path d="M129.7,361.2c-0.9,0-1.7,0.7-1.7,1.7c0,0.9,0.7,1.7,1.7,1.7c0.9,0,1.7-0.7,1.7-1.7C131.4,361.9,130.6,361.2,129.7,361.2z
				"/>
		</g>
		<g>
			<path d="M122.1,355.2c-0.9,0-1.7,0.7-1.7,1.7s0.7,1.7,1.7,1.7c0.9,0,1.7-0.7,1.7-1.7S123,355.2,122.1,355.2z"/>
		</g>
		<g>
			<path d="M122.1,361.2c-0.9,0-1.7,0.7-1.7,1.7c0,0.9,0.7,1.7,1.7,1.7c0.9,0,1.7-0.7,1.7-1.7C123.8,361.9,123,361.2,122.1,361.2z"
				/>
		</g>
		<g>
			<rect x="17.7" y="373.8" width="124.7" height="4.1"/>
		</g>
		<g>
			<g>
				<path d="M146.5,317.8H50.9c-3.6,0-6.5,2.9-6.5,6.5v13c0,3.6,2.9,6.5,6.5,6.5h95.7c3.6,0,6.5-2.9,6.5-6.5v-13
					C153,320.7,150.1,317.8,146.5,317.8z"/>
			</g>
		</g>
		<g>
			<g>
				<g>
					<linearGradient id="SVGID_9_" gradientUnits="userSpaceOnUse" x1="134.1155" y1="330.813" x2="-1.8196" y2="330.813">
						<stop  offset="0" style="stop-color:#FFFFFF"/>
						<stop  offset="1" style="stop-color:#E8A826"/>
					</linearGradient>
					<path class="st10" d="M107.8,317.8H12.1c-3.6,0-6.5,2.9-6.5,6.5v13c0,3.6,2.9,6.5,6.5,6.5h95.7c3.6,0,6.5-2.9,6.5-6.5v-13
						C114.2,320.7,111.3,317.8,107.8,317.8z"/>
					<g>
						<path d="M107.8,344.3H12.1c-3.8,0-6.9-3.1-6.9-7v-13c0-3.8,3.1-6.9,6.9-6.9h95.7c3.8,0,7,3.1,7,6.9v13
							C114.7,341.1,111.6,344.3,107.8,344.3z M12.1,318.3c-3.3,0-6,2.7-6,6v13c0,3.3,2.7,6,6,6h95.7c3.3,0,6-2.7,6-6v-13
							c0-3.3-2.7-6-6-6H12.1z"/>
					</g>
				</g>
			</g>
		</g>
		<g>
			<g>
				<path d="M103.2,331.8H40.8c-0.8,0-1.5,0.7-1.5,1.5c0,0.8,0.7,1.5,1.5,1.5h62.4c0.8,0,1.5-0.7,1.5-1.5
					C104.7,332.5,104,331.8,103.2,331.8z"/>
			</g>
		</g>
		<g>
			<g>
				<linearGradient id="SVGID_10_" gradientUnits="userSpaceOnUse" x1="45.9587" y1="333.3237" x2="104.658" y2="333.3237">
					<stop  offset="0" style="stop-color:#FF4428"/>
					<stop  offset="1" style="stop-color:#FF7E3B"/>
				</linearGradient>
				<path class="st11" d="M103.2,331.8H47.4c-0.8,0-1.5,0.7-1.5,1.5c0,0.8,0.7,1.5,1.5,1.5h55.7c0.8,0,1.5-0.7,1.5-1.5
					C104.7,332.5,104,331.8,103.2,331.8z"/>
			</g>
		</g>
		<g>
			<g>
				<path class="st2" d="M103.2,326.1H40.8c-0.8,0-1.5,0.7-1.5,1.5c0,0.8,0.7,1.5,1.5,1.5h62.4c0.8,0,1.5-0.7,1.5-1.5
					C104.7,326.8,104,326.1,103.2,326.1z"/>
			</g>
		</g>
		<g>
			<g>
				<path d="M103.2,326.1H55.9c-0.8,0-1.5,0.7-1.5,1.5c0,0.8,0.7,1.5,1.5,1.5h47.3c0.8,0,1.5-0.7,1.5-1.5
					C104.7,326.8,104,326.1,103.2,326.1z"/>
			</g>
		</g>
		<g>
			<path d="M88.3,338.6H50.2c-2,0-3.6,1.6-3.6,3.6v1.6h45.3v-1.6C91.9,340.2,90.3,338.6,88.3,338.6z"/>
		</g>
		<g>
			<path d="M141.4,338.6h-15.8c-2,0-3.6,1.6-3.6,3.6v1.6h23v-1.6C145,340.2,143.4,338.6,141.4,338.6z"/>
		</g>
		<g>
			<g>
				<path class="st3" d="M15.2,328.3c-1.4,0-2.5,1.1-2.5,2.5c0,1.4,1.1,2.5,2.5,2.5c1.4,0,2.5-1.1,2.5-2.5
					C17.7,329.4,16.6,328.3,15.2,328.3z"/>
			</g>
			<g>
				<path d="M15.2,327.9c-1.6,0-2.9,1.3-2.9,2.9c0,1.6,1.3,2.9,2.9,2.9c1.6,0,2.9-1.3,2.9-2.9C18.1,329.2,16.8,327.9,15.2,327.9z
					 M15.2,332.9c-1.2,0-2.1-0.9-2.1-2.1c0-1.2,0.9-2.1,2.1-2.1c1.2,0,2.1,0.9,2.1,2.1C17.3,332,16.3,332.9,15.2,332.9z"/>
			</g>
		</g>
		<g>
			<g>
				<path d="M24.2,328.3c-1.4,0-2.5,1.1-2.5,2.5c0,1.4,1.1,2.5,2.5,2.5c1.4,0,2.5-1.1,2.5-2.5C26.7,329.4,25.6,328.3,24.2,328.3z"/>
			</g>
			<g>
				<path d="M24.2,327.9c-1.6,0-2.9,1.3-2.9,2.9c0,1.6,1.3,2.9,2.9,2.9c1.6,0,2.9-1.3,2.9-2.9C27.2,329.2,25.8,327.9,24.2,327.9z
					 M24.2,332.9c-1.2,0-2.1-0.9-2.1-2.1c0-1.2,0.9-2.1,2.1-2.1c1.2,0,2.1,0.9,2.1,2.1C26.3,332,25.4,332.9,24.2,332.9z"/>
			</g>
		</g>
		<g>
			<g>
				<rect x="26.7" y="330" width="5.3" height="1.7"/>
			</g>
		</g>
		<g>
			<path d="M144.9,325.1c-0.9,0-1.7,0.7-1.7,1.7c0,0.9,0.7,1.7,1.7,1.7c0.9,0,1.7-0.7,1.7-1.7C146.6,325.9,145.8,325.1,144.9,325.1z
				"/>
		</g>
		<g>
			<path d="M144.9,331.2c-0.9,0-1.7,0.7-1.7,1.7c0,0.9,0.7,1.7,1.7,1.7c0.9,0,1.7-0.7,1.7-1.7C146.6,331.9,145.8,331.2,144.9,331.2z
				"/>
		</g>
		<g>
			<path d="M137.3,325.1c-0.9,0-1.7,0.7-1.7,1.7c0,0.9,0.7,1.7,1.7,1.7c0.9,0,1.7-0.7,1.7-1.7C139,325.9,138.2,325.1,137.3,325.1z"
				/>
		</g>
		<g>
			<path d="M137.3,331.2c-0.9,0-1.7,0.7-1.7,1.7c0,0.9,0.7,1.7,1.7,1.7c0.9,0,1.7-0.7,1.7-1.7C139,331.9,138.2,331.2,137.3,331.2z"
				/>
		</g>
		<g>
			<path d="M129.7,325.1c-0.9,0-1.7,0.7-1.7,1.7c0,0.9,0.7,1.7,1.7,1.7c0.9,0,1.7-0.7,1.7-1.7C131.4,325.9,130.6,325.1,129.7,325.1z
				"/>
		</g>
		<g>
			<path d="M129.7,331.2c-0.9,0-1.7,0.7-1.7,1.7c0,0.9,0.7,1.7,1.7,1.7c0.9,0,1.7-0.7,1.7-1.7C131.4,331.9,130.6,331.2,129.7,331.2z
				"/>
		</g>
		<g>
			<path d="M122.1,325.1c-0.9,0-1.7,0.7-1.7,1.7c0,0.9,0.7,1.7,1.7,1.7c0.9,0,1.7-0.7,1.7-1.7C123.8,325.9,123,325.1,122.1,325.1z"
				/>
		</g>
		<g>
			<path d="M122.1,331.2c-0.9,0-1.7,0.7-1.7,1.7c0,0.9,0.7,1.7,1.7,1.7c0.9,0,1.7-0.7,1.7-1.7C123.8,331.9,123,331.2,122.1,331.2z"
				/>
		</g>
		<g>
			<rect x="17.7" y="343.8" width="124.7" height="4.1"/>
		</g>
		<g>
			<g>
				<path d="M146.5,287.8H50.9c-3.6,0-6.5,2.9-6.5,6.5v13c0,3.6,2.9,6.5,6.5,6.5h95.7c3.6,0,6.5-2.9,6.5-6.5v-13
					C153,290.7,150.1,287.8,146.5,287.8z"/>
			</g>
		</g>
		<g>
			<g>
				<g>
					<linearGradient id="SVGID_11_" gradientUnits="userSpaceOnUse" x1="134.1155" y1="300.7704" x2="-1.8196" y2="300.7704">
						<stop  offset="0" style="stop-color:#FFFFFF"/>
						<stop  offset="1" style="stop-color:#E8A826"/>
					</linearGradient>
					<path class="st12" d="M107.8,287.8H12.1c-3.6,0-6.5,2.9-6.5,6.5v13c0,3.6,2.9,6.5,6.5,6.5h95.7c3.6,0,6.5-2.9,6.5-6.5v-13
						C114.2,290.7,111.3,287.8,107.8,287.8z"/>
					<g>
						<path d="M107.8,314.2H12.1c-3.8,0-6.9-3.1-6.9-6.9v-13c0-3.8,3.1-7,6.9-7h95.7c3.8,0,7,3.1,7,7v13
							C114.7,311.1,111.6,314.2,107.8,314.2z M12.1,288.3c-3.3,0-6,2.7-6,6v13c0,3.3,2.7,6,6,6h95.7c3.3,0,6-2.7,6-6v-13
							c0-3.3-2.7-6-6-6H12.1z"/>
					</g>
				</g>
			</g>
		</g>
		<g>
			<g>
				<path d="M103.2,301.8H40.8c-0.8,0-1.5,0.7-1.5,1.5c0,0.8,0.7,1.5,1.5,1.5h62.4c0.8,0,1.5-0.7,1.5-1.5
					C104.7,302.5,104,301.8,103.2,301.8z"/>
			</g>
		</g>
		<g>
			<g>
				<linearGradient id="SVGID_12_" gradientUnits="userSpaceOnUse" x1="45.9587" y1="303.2811" x2="104.658" y2="303.2811">
					<stop  offset="0" style="stop-color:#FF4428"/>
					<stop  offset="1" style="stop-color:#FF7E3B"/>
				</linearGradient>
				<path class="st13" d="M103.2,301.8H47.4c-0.8,0-1.5,0.7-1.5,1.5c0,0.8,0.7,1.5,1.5,1.5h55.7c0.8,0,1.5-0.7,1.5-1.5
					C104.7,302.5,104,301.8,103.2,301.8z"/>
			</g>
		</g>
		<g>
			<g>
				<path class="st2" d="M103.2,296.1H40.8c-0.8,0-1.5,0.7-1.5,1.5c0,0.8,0.7,1.5,1.5,1.5h62.4c0.8,0,1.5-0.7,1.5-1.5
					C104.7,296.8,104,296.1,103.2,296.1z"/>
			</g>
		</g>
		<g>
			<g>
				<g>
					<path d="M103.2,296.1H55.9c-0.8,0-1.5,0.7-1.5,1.5c0,0.8,0.7,1.5,1.5,1.5h47.3c0.8,0,1.5-0.7,1.5-1.5
						C104.7,296.8,104,296.1,103.2,296.1z"/>
				</g>
			</g>
		</g>
		<g>
			<path d="M88.3,308.5H50.2c-2,0-3.6,1.6-3.6,3.6v1.6h45.3v-1.6C91.9,310.1,90.3,308.5,88.3,308.5z"/>
		</g>
		<g>
			<path d="M141.4,308.5h-15.8c-2,0-3.6,1.6-3.6,3.6v1.6h23v-1.6C145,310.1,143.4,308.5,141.4,308.5z"/>
		</g>
		<g>
			<g>
				<path class="st3" d="M15.2,298.3c-1.4,0-2.5,1.1-2.5,2.5c0,1.4,1.1,2.5,2.5,2.5c1.4,0,2.5-1.1,2.5-2.5
					C17.7,299.4,16.6,298.3,15.2,298.3z"/>
			</g>
			<g>
				<path d="M15.2,297.8c-1.6,0-2.9,1.3-2.9,2.9c0,1.6,1.3,2.9,2.9,2.9c1.6,0,2.9-1.3,2.9-2.9C18.1,299.2,16.8,297.8,15.2,297.8z
					 M15.2,302.9c-1.2,0-2.1-0.9-2.1-2.1c0-1.2,0.9-2.1,2.1-2.1c1.2,0,2.1,0.9,2.1,2.1C17.3,301.9,16.3,302.9,15.2,302.9z"/>
			</g>
		</g>
		<g>
			<g>
				<path d="M24.2,298.3c-1.4,0-2.5,1.1-2.5,2.5c0,1.4,1.1,2.5,2.5,2.5c1.4,0,2.5-1.1,2.5-2.5C26.7,299.4,25.6,298.3,24.2,298.3z"/>
			</g>
			<g>
				<path d="M24.2,297.8c-1.6,0-2.9,1.3-2.9,2.9c0,1.6,1.3,2.9,2.9,2.9c1.6,0,2.9-1.3,2.9-2.9C27.2,299.2,25.8,297.8,24.2,297.8z
					 M24.2,302.9c-1.2,0-2.1-0.9-2.1-2.1c0-1.2,0.9-2.1,2.1-2.1c1.2,0,2.1,0.9,2.1,2.1C26.3,301.9,25.4,302.9,24.2,302.9z"/>
			</g>
		</g>
		<g>
			<g>
				<rect x="26.7" y="299.9" width="5.3" height="1.7"/>
			</g>
		</g>
		<g>
			<path d="M144.9,295.1c-0.9,0-1.7,0.7-1.7,1.7c0,0.9,0.7,1.7,1.7,1.7c0.9,0,1.7-0.7,1.7-1.7C146.6,295.9,145.8,295.1,144.9,295.1z
				"/>
		</g>
		<g>
			<path d="M144.9,301.1c-0.9,0-1.7,0.7-1.7,1.7c0,0.9,0.7,1.7,1.7,1.7c0.9,0,1.7-0.7,1.7-1.7C146.6,301.9,145.8,301.1,144.9,301.1z
				"/>
		</g>
		<g>
			<path d="M137.3,295.1c-0.9,0-1.7,0.7-1.7,1.7c0,0.9,0.7,1.7,1.7,1.7c0.9,0,1.7-0.7,1.7-1.7C139,295.9,138.2,295.1,137.3,295.1z"
				/>
		</g>
		<g>
			<path d="M137.3,301.1c-0.9,0-1.7,0.7-1.7,1.7c0,0.9,0.7,1.7,1.7,1.7c0.9,0,1.7-0.7,1.7-1.7C139,301.9,138.2,301.1,137.3,301.1z"
				/>
		</g>
		<g>
			<path d="M129.7,295.1c-0.9,0-1.7,0.7-1.7,1.7c0,0.9,0.7,1.7,1.7,1.7c0.9,0,1.7-0.7,1.7-1.7C131.4,295.9,130.6,295.1,129.7,295.1z
				"/>
		</g>
		<g>
			<path d="M129.7,301.1c-0.9,0-1.7,0.7-1.7,1.7c0,0.9,0.7,1.7,1.7,1.7c0.9,0,1.7-0.7,1.7-1.7C131.4,301.9,130.6,301.1,129.7,301.1z
				"/>
		</g>
		<g>
			<path d="M122.1,295.1c-0.9,0-1.7,0.7-1.7,1.7c0,0.9,0.7,1.7,1.7,1.7c0.9,0,1.7-0.7,1.7-1.7C123.8,295.9,123,295.1,122.1,295.1z"
				/>
		</g>
		<g>
			<path d="M122.1,301.1c-0.9,0-1.7,0.7-1.7,1.7c0,0.9,0.7,1.7,1.7,1.7c0.9,0,1.7-0.7,1.7-1.7C123.8,301.9,123,301.1,122.1,301.1z"
				/>
		</g>
		<g>
			<rect x="17.7" y="313.7" width="124.7" height="4.1"/>
		</g>
		<g>
			<g>
				<path class="st2" d="M123.9,416.1h-1.8v1.7h1.8c2.7,0,4.9,2.2,4.9,4.9v18.5c0,2.7-2.2,4.9-4.9,4.9h-1.8v1.7h1.8
					c3.7,0,6.6-3,6.6-6.6v-18.5C130.6,419,127.6,416.1,123.9,416.1z"/>
			</g>
		</g>
		<g>
			<g>
				<path class="st2" d="M139.2,385.9h-1.8v1.7h1.8c2.7,0,4.9,2.2,4.9,4.9V411c0,2.7-2.2,4.9-4.9,4.9h-1.8v1.7h1.8
					c3.7,0,6.6-3,6.6-6.6v-18.5C145.9,388.9,142.9,385.9,139.2,385.9z"/>
			</g>
		</g>
	</g>
	<g>
		<rect x="15.8" y="468" width="425.7" height="1"/>
	</g>
	<g>
		<g>
			<g>
				<linearGradient id="SVGID_13_" gradientUnits="userSpaceOnUse" x1="301.5945" y1="392.8551" x2="384.9806" y2="392.8551">
					<stop  offset="0" style="stop-color:#E9E8E3"/>
					<stop  offset="1" style="stop-color:#A8AEB7"/>
				</linearGradient>
				<path class="st14" d="M385,468h-60.8l-22-114.8c-3.5-18.4,10.6-35.5,29.3-35.5l0,0c14.3,0,26.6,10.2,29.3,24.2L385,468z"/>
				<g>
					<path d="M386.1,468.9h-62.6l-22.2-115.6c-1.7-9,0.6-18.3,6.5-25.4c5.9-7.1,14.5-11.2,23.7-11.2c14.7,0,27.4,10.5,30.2,24.9
						L386.1,468.9z M324.9,467.1h59l-24-125c-2.6-13.6-14.6-23.5-28.4-23.5c-8.7,0-16.8,3.8-22.3,10.5c-5.5,6.7-7.7,15.4-6.1,23.9
						L324.9,467.1z"/>
				</g>
			</g>
		</g>
		<g>
			<g>
				<path d="M323.3,442.4l2.4-0.5L308.5,352c-1.3-6.9,0.5-13.9,4.9-19.3c4.5-5.4,11-8.5,18-8.5c11.2,0,20.8,8,23,19l10.3,53.7
					l2.4-0.5l-10.3-53.7c-2.3-12.2-13-21-25.4-21c-7.7,0-15,3.4-19.9,9.4c-4.9,6-6.9,13.7-5.5,21.3L323.3,442.4z"/>
			</g>
		</g>
		<g>
			<g>
				<linearGradient id="SVGID_14_" gradientUnits="userSpaceOnUse" x1="210.929" y1="462.8898" x2="371.9297" y2="462.8898">
					<stop  offset="0" style="stop-color:#E9E8E3"/>
					<stop  offset="1" style="stop-color:#A8AEB7"/>
				</linearGradient>
				<rect x="210.9" y="457.8" class="st15" width="161" height="10.2"/>
				<g>
					<path d="M372.8,468.9H210v-12h162.8V468.9z M211.8,467.1H371v-8.5H211.8V467.1z"/>
				</g>
			</g>
		</g>
		<g>
			<g>
				<rect x="210.9" y="456.5" width="132.1" height="2.5"/>
			</g>
		</g>
		<g>
			<g>
				<linearGradient id="SVGID_15_" gradientUnits="userSpaceOnUse" x1="126.0917" y1="299.8731" x2="509.6222" y2="299.8731">
					<stop  offset="0" style="stop-color:#E9E8E3"/>
					<stop  offset="1" style="stop-color:#A8AEB7"/>
				</linearGradient>
				<path class="st16" d="M509.6,406.6c0,9.2-7,16.2-16.3,16.2H146.3c-10.4,0-19.5-8.7-20.1-19c0-0.3-0.1-0.7,0-1v-6.1l0-2.3v-6.5
					l0-10.1l-0.1-75.9l0-108.7c0-4.1,1.4-7.8,3.8-10.6c2.9-3.5,7.4-5.7,12.5-5.7h347.1c1,0,2.1,0.1,3.1,0.3c9.4,1.6,17,10.1,17,19.7
					l0,87.7l0,102.6L509.6,406.6z"/>
				<g>
					<path d="M493.3,423.3H146.3c-10.6,0-20-8.9-20.5-19.4c0-0.3-0.1-0.7,0-1.1l0-14.9l0-10.1l-0.1-75.9l0-108.7
						c0-4.1,1.3-7.9,3.9-10.9c3.1-3.7,7.8-5.8,12.9-5.8h347.1c1,0,2,0.1,3.2,0.3c9.7,1.6,17.4,10.5,17.4,20.2l0.1,209.7
						c0,4.6-1.7,8.8-4.7,11.8C502.2,421.5,498,423.3,493.3,423.3z M142.4,177.4c-4.8,0-9.2,2-12.2,5.5c-2.4,2.8-3.6,6.4-3.6,10.3
						l0,108.7l0.1,75.9l0,16.6l0,8.4c0,0.4,0,0.7,0,1c0.5,10.1,9.5,18.5,19.6,18.5h347.1c4.4,0,8.4-1.6,11.4-4.6
						c2.9-2.9,4.5-6.9,4.5-11.2L509.1,197c0-9.3-7.3-17.7-16.6-19.3c-1.1-0.2-2.1-0.3-3-0.3H142.4z"/>
				</g>
			</g>
		</g>
		<g>
			<linearGradient id="SVGID_16_" gradientUnits="userSpaceOnUse" x1="134.6426" y1="291.2789" x2="501.0746" y2="291.2789">
				<stop  offset="0" style="stop-color:#B7EDD8"/>
				<stop  offset="1" style="stop-color:#F6F4D8"/>
			</linearGradient>
			<path class="st17" d="M501.1,397.1l-0.1-201c0-2.7-1.1-5.4-3.2-7.4c-2.1-2-4.7-3.2-7.5-3.2H143.3c-4.9,0-8.6,3.7-8.6,8.6l0.1,203
				H501.1z"/>
			<g>
				<path d="M501.5,397.5H134.3l0-0.5l-0.1-203c0-2.5,0.9-4.8,2.6-6.5c1.7-1.7,4-2.6,6.5-2.6h347.1c2.9,0,5.6,1.2,7.8,3.3
					c2.1,2.1,3.3,4.9,3.3,7.7L501.5,397.5z M135.2,396.6h365.4l-0.1-200.6c0-2.6-1.1-5.1-3.1-7.1c-2-2-4.5-3-7.1-3H143.3
					c-2.3,0-4.3,0.8-5.8,2.3c-1.5,1.5-2.3,3.6-2.3,5.8L135.2,396.6z"/>
			</g>
		</g>
		<g>
			<g>
				<linearGradient id="SVGID_17_" gradientUnits="userSpaceOnUse" x1="134.6426" y1="197.674" x2="501.4619" y2="197.674">
					<stop  offset="0" style="stop-color:#001B8D"/>
					<stop  offset="1" style="stop-color:#0073D5"/>
				</linearGradient>
				<path class="st18" d="M490.3,185.6H143.4c-4.8,0-8.8,3.9-8.8,8.8v15.3h366.8v-13C501.5,190.6,496.5,185.6,490.3,185.6z"/>
			</g>
			<g>
				<linearGradient id="SVGID_18_" gradientUnits="userSpaceOnUse" x1="459.1185" y1="198.3246" x2="464.4328" y2="198.3246">
					<stop  offset="0" style="stop-color:#FF4428"/>
					<stop  offset="1" style="stop-color:#FF7E3B"/>
				</linearGradient>
				<path class="st19" d="M461.8,195.7c-1.5,0-2.7,1.2-2.7,2.7c0,1.5,1.2,2.7,2.7,2.7c1.5,0,2.7-1.2,2.7-2.7
					C464.4,196.9,463.2,195.7,461.8,195.7z"/>
				<path class="st2" d="M473,195.7c-1.5,0-2.7,1.2-2.7,2.7c0,1.5,1.2,2.7,2.7,2.7c1.5,0,2.7-1.2,2.7-2.7
					C475.6,196.9,474.5,195.7,473,195.7z"/>
				<linearGradient id="SVGID_19_" gradientUnits="userSpaceOnUse" x1="481.5466" y1="198.3246" x2="486.8609" y2="198.3246">
					<stop  offset="0" style="stop-color:#001B8D"/>
					<stop  offset="1" style="stop-color:#0073D5"/>
				</linearGradient>
				<path class="st20" d="M484.2,195.7c-1.5,0-2.7,1.2-2.7,2.7c0,1.5,1.2,2.7,2.7,2.7c1.5,0,2.7-1.2,2.7-2.7
					C486.9,196.9,485.7,195.7,484.2,195.7z"/>
			</g>
		</g>
	</g>
	<g>
		<g>
			<rect x="302.3" y="138.4" width="2" height="6"/>
		</g>
		<g>
			<g>
				<path d="M304.3,237.8h-2v-11.7h2V237.8z M304.3,214.4h-2v-11.7h2V214.4z M304.3,191.1h-2v-11.7h2V191.1z M304.3,167.8h-2v-11.7
					h2V167.8z"/>
			</g>
		</g>
		<g>
			<rect x="302.3" y="249.4" width="2" height="6"/>
		</g>
	</g>
	<g>
		<g>
			<rect x="329.8" y="138.4" width="2" height="6"/>
		</g>
		<g>
			<g>
				<path d="M331.8,237.8h-2v-11.7h2V237.8z M331.8,214.4h-2v-11.7h2V214.4z M331.8,191.1h-2v-11.7h2V191.1z M331.8,167.8h-2v-11.7
					h2V167.8z"/>
			</g>
		</g>
		<g>
			<rect x="329.8" y="249.4" width="2" height="6"/>
		</g>
	</g>
	<g>
		<g>
			<g>
				<path class="st2" d="M176.4,222.8H32.9c-3.5,0-6.4-2.9-6.4-6.4V116.3c0-2.4,2-4.4,4.4-4.4h147.5c2.4,0,4.4,2,4.4,4.4v100.1
					C182.8,219.9,180,222.8,176.4,222.8z"/>
				<path class="st21" d="M176.4,223.3H32.9c-3.8,0-6.9-3.1-6.9-6.9V116.3c0-2.7,2.2-4.9,4.9-4.9h147.5c2.7,0,4.9,2.2,4.9,4.9v100.1
					C183.3,220.2,180.2,223.3,176.4,223.3z M30.9,112.4c-2.2,0-3.9,1.8-3.9,3.9v100.1c0,3.3,2.7,5.9,5.9,5.9h143.5
					c3.3,0,5.9-2.7,5.9-5.9V116.3c0-2.2-1.8-3.9-3.9-3.9H30.9z"/>
			</g>
		</g>
		<g>
			<defs>
				<path id="SVGID_20_" d="M176.4,222.8H32.9c-3.5,0-6.4-2.9-6.4-6.4V116.3c0-2.4,2-4.4,4.4-4.4h147.5c2.4,0,4.4,2,4.4,4.4v100.1
					C182.8,219.9,180,222.8,176.4,222.8z"/>
			</defs>
			<clipPath id="SVGID_21_">
				<use xlink:href="#SVGID_20_"  style="overflow:visible;"/>
			</clipPath>
			<g class="st22">
				<g>
					<g>
						<g>
							<g>
								<g>
									<g>
										<g>
											<linearGradient id="SVGID_22_" gradientUnits="userSpaceOnUse" x1="10.6091" y1="161.3085" x2="184.0143" y2="161.3085">
												<stop  offset="0" style="stop-color:#FF4428"/>
												<stop  offset="1" style="stop-color:#FF7E3B"/>
											</linearGradient>
											<polygon class="st23" points="184,129 146.7,151.2 114.8,139.8 75.8,171.9 47.2,166.8 10.6,191.4 10.6,193.6 47.8,168.8 
												76.3,173.9 115.1,141.9 146.9,153.2 184,131.1 											"/>
										</g>
									</g>
								</g>
							</g>
						</g>
						<g>
							<g>
								<g>
									<g>
										<g>
											
												<linearGradient id="SVGID_23_" gradientUnits="userSpaceOnUse" x1="109.9083" y1="140.8542" x2="119.9416" y2="140.8542">
												<stop  offset="0" style="stop-color:#FF4428"/>
												<stop  offset="1" style="stop-color:#FF7E3B"/>
											</linearGradient>
											<path class="st24" d="M109.9,141.2c-0.1-2.7,2.1-5,4.8-5.3c2.8-0.2,5.1,1.8,5.2,4.5c0.1,2.7-2,5-4.8,5.3
												C112.4,145.9,110,143.9,109.9,141.2z"/>
										</g>
									</g>
								</g>
							</g>
						</g>
						<g>
							<g>
								<g>
									<g>
										<g>
											<linearGradient id="SVGID_24_" gradientUnits="userSpaceOnUse" x1="70.9329" y1="172.5618" x2="81.2686" y2="172.5618">
												<stop  offset="0" style="stop-color:#FF4428"/>
												<stop  offset="1" style="stop-color:#FF7E3B"/>
											</linearGradient>
											<path class="st25" d="M70.9,173c-0.1-2.8,2.1-5.2,5-5.4c2.8-0.2,5.2,1.8,5.3,4.5c0.1,2.7-2.1,5.2-5,5.4
												C73.4,177.8,71,175.8,70.9,173z"/>
										</g>
									</g>
								</g>
							</g>
						</g>
						<g>
							<g>
								<g>
									<g>
										<g>
											<linearGradient id="SVGID_25_" gradientUnits="userSpaceOnUse" x1="42.5047" y1="168.0168" x2="53.0143" y2="168.0168">
												<stop  offset="0" style="stop-color:#FF4428"/>
												<stop  offset="1" style="stop-color:#FF7E3B"/>
											</linearGradient>
											<path class="st26" d="M42.5,168.5c-0.1-2.8,2.2-5.2,5.1-5.5c2.9-0.2,5.3,1.8,5.4,4.6c0.1,2.8-2.2,5.2-5.1,5.5
												C45,173.3,42.6,171.2,42.5,168.5z"/>
										</g>
									</g>
								</g>
							</g>
						</g>
						<g>
							<g>
								<g>
									<g>
										<g>
											
												<linearGradient id="SVGID_26_" gradientUnits="userSpaceOnUse" x1="141.9279" y1="151.7592" x2="151.7804" y2="151.7592">
												<stop  offset="0" style="stop-color:#FF4428"/>
												<stop  offset="1" style="stop-color:#FF7E3B"/>
											</linearGradient>
											<path class="st27" d="M141.9,152.2c-0.1-2.7,2-5,4.7-5.2c2.7-0.2,5,1.8,5.1,4.4c0.1,2.7-2,5-4.7,5.3
												C144.4,156.8,142.1,154.8,141.9,152.2z"/>
										</g>
									</g>
								</g>
							</g>
						</g>
					</g>
				</g>
				<g>
					<g>
						<g>
							<g>
								<g>
									<g>
										<g>
											<linearGradient id="SVGID_27_" gradientUnits="userSpaceOnUse" x1="10.6091" y1="177.0863" x2="204.5869" y2="177.0863">
												<stop  offset="0" style="stop-color:#001B8D"/>
												<stop  offset="1" style="stop-color:#0073D5"/>
											</linearGradient>
											<polygon class="st28" points="204.6,156 152.8,176.8 122.4,160.6 78.2,186.7 50.5,177.4 10.6,196.1 10.6,198.2 
												50.7,179.5 78.4,188.8 122.4,162.7 152.7,178.9 204.6,157.9 											"/>
										</g>
									</g>
								</g>
							</g>
						</g>
						<g>
							<g>
								<g>
									<g>
										<linearGradient id="SVGID_28_" gradientUnits="userSpaceOnUse" x1="117.2345" y1="161.6513" x2="127.5258" y2="161.6513">
											<stop  offset="0" style="stop-color:#007D8E"/>
											<stop  offset="1" style="stop-color:#05BBD0"/>
										</linearGradient>
										<path class="st29" d="M117.3,161.3c0.3-2.7,2.9-4.7,5.7-4.5c2.8,0.2,4.9,2.6,4.5,5.3c-0.3,2.7-2.8,4.8-5.7,4.6
											C119,166.4,117,164,117.3,161.3z"/>
									</g>
								</g>
							</g>
						</g>
						<g>
							<g>
								<g>
									<g>
										<linearGradient id="SVGID_29_" gradientUnits="userSpaceOnUse" x1="73.124" y1="187.4886" x2="83.6803" y2="187.4886">
											<stop  offset="0" style="stop-color:#007D8E"/>
											<stop  offset="1" style="stop-color:#05BBD0"/>
										</linearGradient>
										<path class="st30" d="M73.2,187.2c0.3-2.8,3-4.9,5.9-4.7c2.9,0.2,5,2.6,4.6,5.3c-0.3,2.8-2.9,4.9-5.8,4.7
											C74.9,192.3,72.8,189.9,73.2,187.2z"/>
									</g>
								</g>
							</g>
						</g>
						<g>
							<g>
								<g>
									<g>
										<linearGradient id="SVGID_30_" gradientUnits="userSpaceOnUse" x1="45.4569" y1="178.6547" x2="56.1452" y2="178.6547">
											<stop  offset="0" style="stop-color:#007D8E"/>
											<stop  offset="1" style="stop-color:#05BBD0"/>
										</linearGradient>
										<path class="st31" d="M45.5,178.3c0.4-2.8,3-4.9,5.9-4.7c2.9,0.2,5,2.6,4.7,5.4c-0.3,2.8-3,4.9-5.9,4.7
											C47.2,183.5,45.1,181.1,45.5,178.3z"/>
									</g>
								</g>
							</g>
						</g>
						<g>
							<g>
								<g>
									<g>
										<linearGradient id="SVGID_31_" gradientUnits="userSpaceOnUse" x1="147.853" y1="177.4265" x2="158.0098" y2="177.4265">
											<stop  offset="0" style="stop-color:#007D8E"/>
											<stop  offset="1" style="stop-color:#05BBD0"/>
										</linearGradient>
										<path class="st32" d="M147.9,177.1c0.3-2.7,2.8-4.7,5.6-4.6c2.8,0.2,4.8,2.5,4.5,5.2c-0.3,2.7-2.8,4.7-5.6,4.6
											C149.6,182.1,147.6,179.8,147.9,177.1z"/>
									</g>
								</g>
							</g>
						</g>
					</g>
				</g>
			</g>
		</g>
		<g>
			<g>
				<g>
					<path class="st2" d="M178.4,111.9H31.1c-2.5,0-4.5,2-4.5,4.5v5.2h156.2v-5.2C182.8,113.9,180.8,111.9,178.4,111.9z"/>
					<path class="st21" d="M183.3,122.1H26.1v-5.7c0-2.7,2.2-5,5-5h147.3c2.7,0,5,2.2,5,5V122.1z M27.1,121.1h155.2v-4.7
						c0-2.2-1.8-4-4-4H31.1c-2.2,0-4,1.8-4,4V121.1z"/>
				</g>
			</g>
			<g>
				<path d="M166.9,115.9c-0.6,0-1.1,0.5-1.1,1.1c0,0.6,0.5,1.1,1.1,1.1c0.6,0,1.1-0.5,1.1-1.1C167.9,116.4,167.4,115.9,166.9,115.9
					z"/>
				<linearGradient id="SVGID_32_" gradientUnits="userSpaceOnUse" x1="170.299" y1="117.0012" x2="172.4376" y2="117.0012">
					<stop  offset="0" style="stop-color:#FF4428"/>
					<stop  offset="1" style="stop-color:#FF7E3B"/>
				</linearGradient>
				<path class="st33" d="M171.4,115.9c-0.6,0-1.1,0.5-1.1,1.1c0,0.6,0.5,1.1,1.1,1.1c0.6,0,1.1-0.5,1.1-1.1
					C172.4,116.4,172,115.9,171.4,115.9z"/>
				<linearGradient id="SVGID_33_" gradientUnits="userSpaceOnUse" x1="174.8121" y1="117.0012" x2="176.9512" y2="117.0012">
					<stop  offset="0" style="stop-color:#001B8D"/>
					<stop  offset="1" style="stop-color:#0073D5"/>
				</linearGradient>
				<path class="st34" d="M175.9,115.9c-0.6,0-1.1,0.5-1.1,1.1c0,0.6,0.5,1.1,1.1,1.1c0.6,0,1.1-0.5,1.1-1.1
					C177,116.4,176.5,115.9,175.9,115.9z"/>
			</g>
		</g>
	</g>
	<g>
		<g>
			<linearGradient id="SVGID_34_" gradientUnits="userSpaceOnUse" x1="655.6219" y1="70.7098" x2="171.7737" y2="70.7098">
				<stop  offset="0" style="stop-color:#FFFFFF"/>
				<stop  offset="1" style="stop-color:#E8A826"/>
			</linearGradient>
			<path class="st35" d="M191.2,83.3c5.9,0,11.6,1.2,16.9,3.5c4.6-11.3,14.4-19,25.7-19c0.9,0,1.8,0.1,2.7,0.2
				c-0.4-2.8-0.5-5.7-0.5-8.6c0-32.5,22.2-58.8,49.7-58.8c22.3,0,41.1,17.3,47.4,41.2c7.4-7.5,17-12,27.4-12
				c22.1,0,40.2,20,42.1,45.6c9.9,2,17.7,11.1,19.5,22.8c6.5-4.8,14.2-7.5,22.4-7.5c23.4,0,42.3,23,42.3,50.4h-344
				C142.8,109.6,164.5,83.3,191.2,83.3z"/>
			<g>
				<path d="M487.3,141.4h-345v-0.5c0-32,21.9-58.1,48.9-58.1c5.8,0,11.3,1.1,16.6,3.3c5-11.7,14.9-18.9,25.9-18.9
					c0.7,0,1.4,0,2.1,0.1c-0.3-2.7-0.5-5.4-0.5-8.1C235.5,26.6,258,0,285.6,0c21.8,0,40.9,16.3,47.7,40.8
					c7.6-7.4,17.3-11.5,27.2-11.5c22.2,0,40.4,19.6,42.6,45.7c9.7,2.1,17.4,11,19.4,22.4c6.6-4.7,14.2-7.2,22.1-7.2
					c23.6,0,42.8,22.8,42.8,50.9V141.4z M143.3,140.5h343.1c-0.2-27.3-18.9-49.4-41.8-49.4c-7.9,0-15.6,2.6-22.2,7.4l-0.6,0.5
					l-0.1-0.8c-1.8-11.5-9.4-20.5-19.1-22.4l-0.4-0.1l0-0.4c-2-25.7-19.9-45.1-41.6-45.1c-9.9,0-19.5,4.2-27.1,11.8l-0.6,0.6
					l-0.2-0.8C326.1,17.4,307.2,1,285.6,1c-27.1,0-49.2,26.2-49.2,58.4c0,2.8,0.2,5.7,0.5,8.6l0.1,0.6l-0.6-0.1
					c-0.9-0.1-1.8-0.1-2.6-0.1c-10.8,0-20.5,7.2-25.2,18.7l-0.2,0.5l-0.4-0.2c-5.3-2.3-10.9-3.5-16.7-3.5
					C164.9,83.8,143.5,109.2,143.3,140.5z"/>
			</g>
		</g>
		<g>
			<g>
				<path class="st2" d="M354,130.2l4.2-13.9l-8.5-3.4c0.3-4.3-0.1-8.6-1.2-12.7l7.7-5l-6.8-12.8l-8.4,3.6c-2.7-3.2-6-6-9.8-8.1
					l1.9-9l-13.9-4.2l-3.4,8.5c-4.3-0.3-8.6,0.1-12.7,1.2l-5-7.7l-12.8,6.8l3.6,8.4c-3.2,2.7-6,6-8.1,9.8l-9-1.9l-4.2,13.9l8.5,3.4
					c-0.3,4.3,0.1,8.6,1.2,12.7l-7.7,5l6.8,12.8l8.4-3.6c2.7,3.2,6,6,9.8,8.1l-1.9,9l13.9,4.2l3.4-8.5c4.3,0.3,8.6-0.1,12.7-1.2
					l5,7.7l12.8-6.8l-3.6-8.4c3.2-2.7,6-6,8.1-9.8L354,130.2z M305.3,135.1c-13.8-4.2-21.6-18.9-17.4-32.7
					c4.2-13.8,18.9-21.6,32.7-17.4c13.8,4.2,21.6,18.9,17.4,32.7C333.8,131.5,319.1,139.3,305.3,135.1z"/>
			</g>
			<g>
				<polygon class="st36" points="273.3,106.4 267.2,104 270.4,93.5 271,93.7 268,103.6 273.5,105.8 				"/>
			</g>
			<g>
				<path class="st36" d="M293.1,151.2l-0.6-0.1l1.9-8.7c-4.3-2.2-7.6-5.8-7.7-5.9l0.5-0.4c0,0,3.4,3.7,7.7,5.9l0.2,0.1L293.1,151.2
					z"/>
			</g>
			<g>
				<path class="st36" d="M327.7,132.1l-0.4-0.5c16.8-11.8,10.1-29.9,10-30l0.6-0.2C338,101.5,344.9,120,327.7,132.1z"/>
			</g>
			<g>
				<path class="st36" d="M349.5,107.3c-0.5-3.8-1.3-6.9-1.3-6.9l-0.1-0.2l2.8-1.8l0.3,0.5l-2.4,1.6c0.2,0.8,0.9,3.6,1.3,6.8
					L349.5,107.3z"/>
			</g>
			<g>
				<g>
					<g>
						<path d="M310.6,154.7l-14.4-4.4l1.9-9c-1.1-0.6-6.1-3.6-9.6-7.9l-8.5,3.6l-7.1-13.3l7.8-5c-0.3-1.1-1.7-6.3-1.2-12.3l-8.6-3.5
							l4.4-14.4l9,1.9c0.7-1.2,4-6.8,7.9-9.6l-3.6-8.5l13.3-7.1l5,7.7c1.1-0.4,5.7-1.8,12.3-1.2l3.5-8.6l14.4,4.4l-1.9,9
							c1.1,0.6,6.3,3.6,9.6,7.9l8.5-3.6l7.1,13.3l-7.7,5c0.4,1.1,1.8,6.1,1.2,12.3l8.6,3.5l-4.4,14.4l-9-1.9
							c-0.6,1.1-3.2,5.7-7.9,9.6l3.6,8.5l-13.3,7.1l-5-7.7c-1.1,0.4-6,1.9-12.3,1.2L310.6,154.7z M297,149.9l13.3,4.1l3.4-8.5l0.2,0
							c7.1,0.9,12.5-1.2,12.5-1.2l0.2-0.1l5,7.7l12.3-6.5l-3.6-8.4l0.2-0.1c5.3-4.3,8-9.7,8-9.7l0.1-0.2l8.9,1.9l4.1-13.3l-8.5-3.4
							l0-0.2c0.8-7-1.2-12.5-1.2-12.5l-0.1-0.2l7.7-5l-6.5-12.3l-8.4,3.6l-0.1-0.2c-3.6-4.8-9.7-8-9.7-8l-0.2-0.1l1.9-8.9l-13.3-4.1
							l-3.4,8.5l-0.2,0c-7.4-0.8-12.5,1.2-12.5,1.2l-0.2,0.1l-5-7.7l-12.3,6.5l3.6,8.4l-0.2,0.1c-4.2,2.9-8,9.6-8,9.7l-0.1,0.2
							l-8.9-1.9l-4.1,13.3l8.5,3.4l0,0.2c-0.6,6.8,1.2,12.5,1.2,12.5l0.1,0.2l-7.7,5l6.5,12.3l8.4-3.6l0.2,0.2c3.8,4.8,9.7,8,9.7,8
							l0.2,0.1L297,149.9z"/>
					</g>
				</g>
				<g>
					<g>
						<path d="M316.7,135.5c-14.6,0-26.5-11.9-26.5-26.5c0-14.6,11.9-26.5,26.5-26.5c14.6,0,26.5,11.9,26.5,26.5
							C343.2,123.6,331.3,135.5,316.7,135.5z M316.7,83.1c-14.3,0-25.9,11.6-25.9,25.9c0,14.3,11.6,25.9,25.9,25.9
							c14.3,0,25.9-11.6,25.9-25.9C342.6,94.7,331,83.1,316.7,83.1z"/>
					</g>
				</g>
			</g>
		</g>
	</g>
	<g>
		<g>
			<g>
				<g>
					<g>
						<linearGradient id="SVGID_35_" gradientUnits="userSpaceOnUse" x1="237.6008" y1="300.0921" x2="398.0727" y2="300.0921">
							<stop  offset="0" style="stop-color:#001B8D"/>
							<stop  offset="1" style="stop-color:#0073D5"/>
						</linearGradient>
						<path class="st37" d="M390.7,359.1H245c-4.1,0-7.4-3.3-7.4-7.4V246.2c0-2.8,2.3-5.1,5.1-5.1H393c2.8,0,5.1,2.3,5.1,5.1v105.6
							C398.1,355.8,394.8,359.1,390.7,359.1z"/>
					</g>
				</g>
			</g>
			<linearGradient id="SVGID_36_" gradientUnits="userSpaceOnUse" x1="249.4538" y1="274.9321" x2="386.638" y2="274.9321">
				<stop  offset="0" style="stop-color:#FF4428"/>
				<stop  offset="1" style="stop-color:#FF7E3B"/>
			</linearGradient>
			<path class="st38" d="M382.7,289.8H253.4c-2.2,0-4-1.8-4-4v-21.7c0-2.2,1.8-4,4-4h129.2c2.2,0,4,1.8,4,4v21.7
				C386.6,288,384.9,289.8,382.7,289.8z"/>
			<g>
				<g>
					<path class="st2" d="M275.3,270.1c0,3.6-2.7,6.5-6.1,6.5c-3.4,0-6.2-2.9-6.2-6.4c0-3.6,2.7-6.5,6.1-6.5
						C272.5,263.7,275.2,266.6,275.3,270.1z"/>
				</g>
				<g>
					<path class="st2" d="M261.1,284.9c0-4.8,3.6-5.1,8.2-5.1c4.5,0,8.2,0.3,8.3,5.1L261.1,284.9z"/>
				</g>
			</g>
			<g>
				<rect x="290.6" y="273.5" class="st2" width="53.1" height="4.7"/>
			</g>
			<g>
				<rect x="350.9" y="273.5" class="st2" width="26.2" height="4.7"/>
			</g>
			<linearGradient id="SVGID_37_" gradientUnits="userSpaceOnUse" x1="249.4538" y1="317.2923" x2="386.638" y2="317.2923">
				<stop  offset="0" style="stop-color:#FF4428"/>
				<stop  offset="1" style="stop-color:#FF7E3B"/>
			</linearGradient>
			<path class="st39" d="M382.7,332.1H253.4c-2.2,0-4-1.8-4-4v-21.7c0-2.2,1.8-4,4-4h129.2c2.2,0,4,1.8,4,4v21.7
				C386.6,330.3,384.9,332.1,382.7,332.1z"/>
			<g>
				<path class="st2" d="M297.9,314.2l-2.4,3.1v0.1l3.8-0.5v1.7l-3.8-0.5v0.1l2.4,3l-1.6,0.9l-1.5-3.5h-0.1l-1.6,3.5l-1.4-0.9
					l2.4-3.1v-0.1l-3.7,0.5v-1.7l3.7,0.5v-0.1l-2.4-3.1l1.5-0.9l1.6,3.5h0.1l1.5-3.5L297.9,314.2z"/>
				<path class="st2" d="M313.6,314.2l-2.4,3.1v0.1l3.8-0.5v1.7l-3.8-0.5v0.1l2.4,3l-1.6,0.9l-1.5-3.5h-0.1l-1.6,3.5l-1.4-0.9
					l2.4-3.1v-0.1l-3.7,0.5v-1.7l3.7,0.5v-0.1l-2.4-3.1l1.5-0.9l1.6,3.5h0.1l1.5-3.5L313.6,314.2z"/>
				<path class="st2" d="M329.4,314.2l-2.4,3.1v0.1l3.8-0.5v1.7l-3.8-0.5v0.1l2.4,3l-1.6,0.9l-1.5-3.5h-0.1l-1.6,3.5l-1.4-0.9
					l2.4-3.1v-0.1l-3.7,0.5v-1.7l3.7,0.5v-0.1l-2.4-3.1l1.5-0.9l1.6,3.5h0.1l1.5-3.5L329.4,314.2z"/>
				<path class="st2" d="M345.2,314.2l-2.4,3.1v0.1l3.8-0.5v1.7l-3.8-0.5v0.1l2.4,3l-1.6,0.9l-1.5-3.5h-0.1l-1.6,3.5l-1.4-0.9
					l2.4-3.1v-0.1l-3.7,0.5v-1.7l3.7,0.5v-0.1l-2.4-3.1l1.5-0.9l1.6,3.5h0.1l1.5-3.5L345.2,314.2z"/>
				<path class="st2" d="M360.9,314.2l-2.4,3.1v0.1l3.8-0.5v1.7l-3.8-0.5v0.1l2.4,3l-1.6,0.9l-1.5-3.5h-0.1l-1.6,3.5l-1.4-0.9
					l2.4-3.1v-0.1l-3.7,0.5v-1.7l3.7,0.5v-0.1l-2.4-3.1l1.5-0.9l1.6,3.5h0.1l1.5-3.5L360.9,314.2z"/>
				<path class="st2" d="M376.7,314.2l-2.4,3.1v0.1l3.8-0.5v1.7l-3.8-0.5v0.1l2.4,3l-1.6,0.9l-1.5-3.5h-0.1l-1.6,3.5l-1.4-0.9
					l2.4-3.1v-0.1l-3.7,0.5v-1.7l3.7,0.5v-0.1l-2.4-3.1l1.5-0.9l1.6,3.5h0.1l1.5-3.5L376.7,314.2z"/>
			</g>
			<g>
				<path class="st2" d="M274.9,310.3c-0.1-0.4-0.2-0.8-0.4-1.2c-0.2-0.5-0.5-1-0.9-1.4c-0.1-0.1-0.2-0.3-0.4-0.4
					c-0.2-0.2-0.5-0.4-0.7-0.6c-0.3-0.2-0.6-0.4-0.9-0.5c-0.1-0.1-0.3-0.1-0.4-0.2c-0.4-0.2-0.8-0.3-1.3-0.3c-0.2,0-0.5,0-0.7,0
					c-0.2,0-0.4,0-0.7,0c-1.1,0.1-2,0.5-2.8,1.2c-1.3,1-2.2,2.6-2.2,4.5v8.5H275v-8.5C275,311,274.9,310.6,274.9,310.3z
					 M273.2,318.1h-7.8v-6.8c0-1.2,0.6-2.3,1.5-3c0.1-0.1,0.3-0.2,0.4-0.3c0.6-0.3,1.3-0.5,2-0.5c0.2,0,0.5,0,0.7,0.1
					c0.1,0,0.2,0,0.4,0.1c0.2,0,0.3,0.1,0.4,0.2c0.3,0.1,0.6,0.3,0.9,0.5c0.3,0.2,0.5,0.4,0.7,0.7c0.1,0.2,0.2,0.3,0.3,0.5
					c0.3,0.6,0.5,1.2,0.5,2V318.1z"/>
				<path class="st2" d="M276.8,315.3v9.6c0,0.8-0.6,1.4-1.4,1.4h-12.3c-0.2,0-0.4,0-0.6-0.1c-0.1,0-0.1,0-0.2-0.1c0,0,0,0,0,0
					c0,0-0.1,0-0.1-0.1c0,0,0,0-0.1-0.1c0,0,0,0,0,0c0,0,0,0-0.1-0.1c0,0,0,0-0.1-0.1c0,0,0,0,0,0c0,0,0,0,0,0c0,0,0,0,0,0
					c0,0,0-0.1-0.1-0.1c0,0,0-0.1,0-0.1c0,0,0,0,0,0c0,0,0-0.1-0.1-0.1v0c0,0,0-0.1,0-0.1c0,0,0,0,0-0.1c0,0,0-0.1,0-0.1
					c0-0.1,0-0.1,0-0.2v-9.6c0-0.8,0.6-1.4,1.4-1.4h12.3c0.4,0,0.7,0.1,0.9,0.4C276.6,314.5,276.8,314.9,276.8,315.3z"/>
				<linearGradient id="SVGID_38_" gradientUnits="userSpaceOnUse" x1="267.9183" y1="320.2679" x2="270.6462" y2="320.2679">
					<stop  offset="0" style="stop-color:#FF4428"/>
					<stop  offset="1" style="stop-color:#FF7E3B"/>
				</linearGradient>
				<path class="st40" d="M270.6,318.8c0-0.8-0.6-1.4-1.4-1.4c-0.8,0-1.4,0.6-1.4,1.4c0,0.5,0.2,0.9,0.6,1.1v2.5
					c0,0.4,0.3,0.7,0.7,0.7l0,0c0.4,0,0.7-0.3,0.7-0.7v-2.5C270.4,319.7,270.6,319.3,270.6,318.8z"/>
			</g>
		</g>
		<g>
			<path d="M413.6,374h-20.1v1h21.1v-20.5h-1V374z M393.5,228.6v1h20.1v19.5h1v-20.5H393.5z M222.1,354.5h-1V375h21.1v-1h-20.1
				V354.5z M221.1,249.1h1v-19.5h20.1v-1h-21.1V249.1z"/>
		</g>
	</g>
	<g>
		<g>
			<path class="st41" d="M245.7,120.5c-17.5-3.4-28.5,3.7-29.9,11.6c-2,10.8,1.7,18.7,2.4,20.6c0,0,0,0,0,0l-7.2,16.4
				c6.1,9.7,20.5,6.1,20.5,6.1l3.3-10c1.6,0.6,2.9,1,3.7,1c6.7-0.2,14.8-17.7,15.2-26.4C254.1,132.1,254.8,122.2,245.7,120.5z"/>
		</g>
		<g>
			<path d="M249.3,128c-0.9,0.3-3.8,0.9-3.8,0.9s-1.8,6.8-3.2,9.1c-1.4,2.4,0.3,14,7.1,14.6c6.8,0.6,0.3,6.1-0.4,8.3
				c-1.1,3-0.1,5.8-6.4,7c-4.2,0.8-11.2-4.2-7.6-10c3.6-5.9,6.6-11.8,3.2-19.3c-3.4-7.5-0.5,8.5-9.9,12.7c-9.4,4.2-12,6-12,6
				s-0.2-3.8-1.6-6.1c-4.4-7.3-6.4-13.6-5-24.5c1.4-10.9,6.9-13.9,16.9-14.3c9.9-0.4,10.4,3.2,16.7,0.7c7.7-3.1,11,2.8,16.5,1.6
				C259.8,114.6,257.9,125.5,249.3,128z"/>
		</g>
		<g>
			<g>
				<path class="st41" d="M227.5,144.4c1.1,3.5,4.4,5.6,7.4,4.7c3-0.9,4.6-4.5,3.5-8c-1.1-3.5-4.4-5.6-7.4-4.7
					C228.1,137.3,226.5,140.9,227.5,144.4z"/>
			</g>
		</g>
		<g>
			<g>
				<path d="M234.7,147.2c0.1,0,0.3,0,0.4-0.1c1-0.3,1.5-1.6,1.5-1.8l-0.9-0.4c-0.1,0.3-0.5,1.1-0.9,1.2c-0.1,0-0.2,0-0.4-0.1
					c-0.3-0.2-0.3-0.3-0.2-0.9c0.1-0.6,0.2-1.5-0.7-2.5c-0.6-0.7-1.3-1-1.8-1.3c-0.8-0.4-1-0.5-0.7-1.4c0.1-0.3,0.3-0.5,0.5-0.6
					c0.9-0.5,2.6-0.1,3.2,0.1l0.3-1c-0.1,0-2.5-0.8-4,0c-0.5,0.3-0.9,0.7-1,1.3c-0.5,1.7,0.4,2.2,1.3,2.6c0.5,0.2,1,0.5,1.5,1
					c0.6,0.7,0.5,1.2,0.5,1.7c-0.1,0.6-0.1,1.3,0.7,1.8C234.2,147.1,234.5,147.2,234.7,147.2z"/>
			</g>
		</g>
		<g>
			<g>
				<g>
					<path d="M264.5,305.7c0,0-1.2,10.7-5.5,11.2c-4.3,0.6-0.6-5.9-0.6-5.9s-2.8,4.2-4.1,3.3c-1.3-0.9-1.5-4.4,0.2-6.9
						c1.7-2.5,3.3-8.8,4.7-8.1C260.6,300,264.3,300.2,264.5,305.7z"/>
					<g>
						<path class="st41" d="M217,217.1c0,0-4.5,21.9-7.2,34c10.4,12.4,25.2,29.4,29.9,34.3c0,0,0,0,0,0s1.1,1.4,12.5,4.4
							c11.5,3,16,10.9,17.1,20.3c1.1,9.4-2,5.9-3.1,3.8c-1.1-2.1-3.9-14-7.2-13.8c0,0-2.5,1.5-0.2,4.8c2.3,3.4,4.7,6,4.1,8.8
							c-0.6,2.8-2.3,0.6-3.7-0.6c-1.4-1.2-4.4-4.9-6.3-6.1c-1.9-1.2-8.5-2.5-10.8-6.3c0,0-6-3.8-7.8-4.5c-0.1,0-0.1-0.1-0.2-0.1
							l-50.3-23.6c-3.1-1.6-5.7-3.9-7.5-6.9c0,0,0,0,0-0.1c-0.3-0.4-0.6-0.9-0.9-1.4c-5.2-11-7.2-39.8-1-60.2
							C180.7,183.7,219.9,191.2,217,217.1z"/>
					</g>
				</g>
				<g>
					<linearGradient id="SVGID_39_" gradientUnits="userSpaceOnUse" x1="163.7642" y1="200.8794" x2="220.1263" y2="200.8794">
						<stop  offset="0" style="stop-color:#FF4428"/>
						<stop  offset="1" style="stop-color:#FF7E3B"/>
					</linearGradient>
					<path class="st42" d="M205.2,165.2c-6.5-2.3-15-2.7-24.8,11c-9.8,13.7-15,29.1-16.7,53.9c0,0,33.7,16.8,51,0.4
						c0,0,5.2-26.8,5.3-40.8C220.3,175.9,212.4,167.8,205.2,165.2z"/>
				</g>
				<g>
					<g>
						<path d="M180.3,208.4c-3.2-4.2-7.3-12.4-3-23.4l1,0.4c-6.1,15.7,5.6,25.4,5.7,25.5l-0.6,0.8
							C183.2,211.7,181.9,210.5,180.3,208.4z"/>
					</g>
				</g>
			</g>
			<g>
				<path d="M195.3,237.2l0,1.1c13.1-0.2,19.6-7,19.8-7.3l0.1-0.1l2.1-11l-1-0.2l-2,10.7C213.4,231.2,207.1,237.1,195.3,237.2z"/>
			</g>
		</g>
		<g>
			<polygon class="st43" points="127.7,437.7 144.5,444.7 157.8,424.6 136.7,415.9 			"/>
			<g>
				<linearGradient id="SVGID_40_" gradientUnits="userSpaceOnUse" x1="123.577" y1="452.0391" x2="179.9555" y2="452.0391">
					<stop  offset="0" style="stop-color:#001B8D"/>
					<stop  offset="1" style="stop-color:#0073D5"/>
				</linearGradient>
				<path class="st44" d="M149.8,438.4c0,0-3.8-3.2-9.7-0.3c-5.9,2.9-6.6-1.4-7.7-2.5c-1-1.1-2.6-2.1-4.9-2c0,0-5.3,20.7-3.6,36.8
					l55.8-0.4c0,0,1.7-5.6-3.1-8.2c-4.8-2.6-26-8.5-28.8-14C144.8,442.5,149.8,438.4,149.8,438.4z"/>
				<g>
					<path d="M134.6,466.4l-0.9,0c-0.1-10.2-9-13.5-9.4-13.6l0.3-0.9C124.7,452,134.5,455.5,134.6,466.4z"/>
				</g>
				<path d="M123.5,465.3c0,2,0.3,3.8,0.4,5.1l55.8-0.4c0,0,0.8-2.6-0.3-5.1L123.5,465.3z"/>
				<g>
					<path d="M152.8,457.8l-0.1,0c-0.5-0.1-12.7-2.3-14-7.7c-1.3-5.3,3-10.5,3.2-10.8l0.7,0.6c0,0.1-4.2,5.1-3,9.9
						c1.1,4.6,12,6.8,13.2,7l6.4-1.8l0.2,0.9L152.8,457.8z"/>
				</g>
				<g>
					<rect x="146.6" y="452.6" transform="matrix(0.9438 -0.3304 0.3304 0.9438 -141.2669 74.8976)" width="6.2" height="0.9"/>
				</g>
				<g>
					<rect x="141.8" y="449.1" transform="matrix(0.944 -0.3299 0.3299 0.944 -140.2088 72.9717)" width="6.2" height="0.9"/>
				</g>
			</g>
		</g>
		<linearGradient id="SVGID_41_" gradientUnits="userSpaceOnUse" x1="147.4943" y1="456.3016" x2="148.1654" y2="299.9376">
			<stop  offset="0" style="stop-color:#FF4428"/>
			<stop  offset="1" style="stop-color:#FF7E3B"/>
		</linearGradient>
		<path class="st45" d="M140.3,356.3c-7.2,9.8-10.7,11.1-19.2,38.2c-2.4,7.7-7.7,69.6-7.7,69.6c4.8,5.7,36.7-9.1,55.6-7.7
			c0,0,17.1-64.7,11.7-107.7C179.3,337,152.9,339.2,140.3,356.3z"/>
		<linearGradient id="SVGID_42_" gradientUnits="userSpaceOnUse" x1="150.5393" y1="456.3148" x2="151.2104" y2="299.9515">
			<stop  offset="0" style="stop-color:#FF4428"/>
			<stop  offset="1" style="stop-color:#FF7E3B"/>
		</linearGradient>
		<path class="st46" d="M119.3,286.7c-1.1,10.2,6.1,76.1,12.5,85.9c4.6,7,48.1,20.3,49.3-1c1-18.7,3.3-81,1.1-91.8
			C180.1,269.5,122.7,256.1,119.3,286.7z"/>
		<g>
			<path d="M128.2,375.5l-0.8-0.5c6.4-11.1,20.6-8.3,20.8-8.3l-0.2,0.9C147.8,367.6,134.2,364.9,128.2,375.5z"/>
		</g>
		<path d="M186.1,264.5c-0.5-7-24.9-18.8-43.5-17.1l-5.4,65.2c1.6,1.9,6.8,9.7,7.8,11.8c7.4,16.2,14.1,27.4,30.7,31.9
			C180.4,324.4,186.7,272.9,186.1,264.5z"/>
		<g>
			<polygon class="st43" points="197.9,437.2 214.7,444.3 228.2,424.4 207.2,415.4 			"/>
			<g>
				<linearGradient id="SVGID_43_" gradientUnits="userSpaceOnUse" x1="193.5718" y1="451.5897" x2="249.9104" y2="451.5897">
					<stop  offset="0" style="stop-color:#001B8D"/>
					<stop  offset="1" style="stop-color:#0073D5"/>
				</linearGradient>
				<path class="st47" d="M220.1,438.1c0,0-3.8-3.3-9.7-0.4c-5.9,2.9-6.6-1.5-7.7-2.6c-1-1.1-2.5-2.1-4.9-2.1c0,0-5.5,20.7-4,36.8
					l55.8,0.2c0,0,1.7-5.6-3.1-8.2c-4.8-2.6-25.9-8.8-28.7-14.3C215.1,442.1,220.1,438.1,220.1,438.1z"/>
				<g>
					<path d="M204.6,466l-0.9,0c0-10.2-8.9-13.6-9.3-13.7l0.3-0.9C194.8,451.5,204.6,455.1,204.6,466z"/>
				</g>
				<path d="M193.5,464.8c-0.1,2,0.3,3.8,0.3,5.1l55.8,0.2c0,0,0.8-2.6-0.2-5.1L193.5,464.8z"/>
				<g>
					<path d="M222.9,457.5l-0.1,0c-0.5-0.1-12.7-2.5-13.9-7.9c-1.2-5.3,3.1-10.5,3.3-10.7l0.7,0.6c0,0.1-4.3,5-3.1,9.9
						c1.1,4.6,11.9,6.9,13.1,7.2l6.4-1.7l0.2,0.9L222.9,457.5z"/>
				</g>
				<g>
					<rect x="216.7" y="452.3" transform="matrix(0.9473 -0.3203 0.3203 0.9473 -133.4417 94.2678)" width="6.2" height="0.9"/>
				</g>
				<g>
					<rect x="212" y="448.8" transform="matrix(0.9472 -0.3207 0.3207 0.9472 -132.7153 92.6947)" width="6.2" height="0.9"/>
				</g>
			</g>
		</g>
		<linearGradient id="SVGID_44_" gradientUnits="userSpaceOnUse" x1="203.9566" y1="456.5439" x2="204.6276" y2="300.1801">
			<stop  offset="0" style="stop-color:#FF4428"/>
			<stop  offset="1" style="stop-color:#FF7E3B"/>
		</linearGradient>
		<path class="st48" d="M187,366.8c-4.1,11.4-24,64.5-7.7,101c6.2,4,35.5-6.5,54-9.5c0,0,7.9-68.3-8.4-118.6
			C221.3,328.5,194.1,346.8,187,366.8z"/>
		<linearGradient id="SVGID_45_" gradientUnits="userSpaceOnUse" x1="182.5118" y1="456.4519" x2="183.1829" y2="300.0879">
			<stop  offset="0" style="stop-color:#FF4428"/>
			<stop  offset="1" style="stop-color:#FF7E3B"/>
		</linearGradient>
		<path class="st49" d="M140.2,276.9c1.5,10.1,33.8,93.8,42.6,101.6c6.2,5.6,29.2,6.9,40.9-10.9c11.7-17.8-19.5-103.5-24.4-113.3
			C194.6,244.8,135.6,246.4,140.2,276.9z"/>
		<g>
			<linearGradient id="SVGID_46_" gradientUnits="userSpaceOnUse" x1="163.7106" y1="308.2925" x2="208.0026" y2="154.781">
				<stop  offset="0" style="stop-color:#007D8E"/>
				<stop  offset="1" style="stop-color:#05BBD0"/>
			</linearGradient>
			<path class="st50" d="M246.1,182.9c9.7,14,5.9,36.3-8.4,71.1c-14.3,34.8-10.1,44-17.9,51.2c0,0-63.8,34.4-111.3-14.4
				c0,0,6.1-9,29-49.9c22.9-40.8,27.9-52.4,41-66.5c13.1-14.1,41.2-15.7,49.6-9.3C235.7,170.8,238.6,172.1,246.1,182.9z"/>
		</g>
		<g>
			<g>
				<g>
					<path class="st41" d="M255,254.9c5.5-4,13.5-8,21.4-11.9c5.2-3,22.3-12.3,22.2-12.3c0,0,4.2-3.2,12.5-10.8
						c7.5-6.9,10.3-5.4,12.3-4.8c2.5,0.8,10.7,7,16.4,12c0.9,0.8-0.5,2.5-1.7,2.2c-4.6-1.1-12-7-12-7s5.6,6.9,4.9,8.2
						c-0.4,0.7-3.6,3.2-6.3,5.3c-1.9,1.4-3.1,1-4.9-0.6c-2.3-2-3.5-3.1-3.9-3.3c-1.9-0.9-3.7,0.9-4.5,4.1c-1.4,5.5-6.7,5.7-7.9,5.7
						l0,0c-6.8,8.6-20.8,29.7-30.9,37.9C252.6,295.8,243.2,263.4,255,254.9z"/>
				</g>
				<path d="M325.6,235l-7.4-8.6C318.2,226.4,323.2,231.5,325.6,235z"/>
				<path d="M328.3,232.9l-7.9-10.8C320.4,222,326.3,229.2,328.3,232.9z"/>
			</g>
			<g>
				<path class="st41" d="M266,226.4c0,0,7.9,25.7,8.4,30.8c1.1,11.3-10.1,31.2-18.6,24.6c-8.5-6.6-25.2-30-28.5-48.6
					C224,214.7,257.9,204.9,266,226.4z"/>
			</g>
			<g>
				<linearGradient id="SVGID_47_" gradientUnits="userSpaceOnUse" x1="213.9927" y1="322.8004" x2="258.2847" y2="169.289">
					<stop  offset="0" style="stop-color:#007D8E"/>
					<stop  offset="1" style="stop-color:#05BBD0"/>
				</linearGradient>
				<path class="st51" d="M232.1,176.7c-6.1,0.8-12.9,3.9-15.1,18.6c-2.2,14.7,3.8,42.5,12.4,62.7c0,0,33.7,0,43.7-21.3
					c0,0-13.9-35.6-19.4-46.6C248.1,179,238.7,175.8,232.1,176.7z"/>
				<g>
					<path d="M229.4,258.4C229.4,258.4,229.4,258.4,229.4,258.4h-0.2l-0.1-0.2c-9-21.2-14.5-48.8-12.4-62.9
						c2.3-15.5,9.9-18.2,15.4-18.9l0,0c6.6-0.8,16.3,2.2,22,13.6c5.5,10.9,19.3,46.3,19.4,46.7l0.1,0.1l-0.1,0.1
						C263.4,258.2,229.8,258.4,229.4,258.4z M232.1,177.1c-5.7,0.7-12.6,3.5-14.8,18.3c-2.1,14,3.3,41.3,12.3,62.3
						c3-0.1,33.6-1.1,43-21c-1-2.5-14-35.9-19.3-46.5C247.8,179.2,238.4,176.2,232.1,177.1L232.1,177.1z"/>
				</g>
			</g>
			<g>
				<path d="M237.3,235.7c-0.1,0-13.9-3.1-15.4-18.6l0.9-0.1c1.5,14.8,14.6,17.7,14.7,17.8L237.3,235.7z"/>
			</g>
			<path class="st41" d="M255.7,281.1c0,0,3.6,3.7,8,2.6c4.4-1.1,12.7-13.7,12.7-13.7l2.8-12l-6.8,0.7l-9.8-0.1l-7.7,8.8
				L255.7,281.1z"/>
		</g>
		<g>
			<path d="M196.6,381.6c-5.4-6.1-14.6-3.7-14.7-3.6l-0.4,0.1l-15.8-35.7l0.8-0.4L182,377c1.9-0.4,10.1-1.8,15.2,4L196.6,381.6z"/>
		</g>
		<g>
			<path d="M159.9,275.8c-10.1-4.5-13.9-12.8-14-13l0.8-0.4c0.1,0.2,8.6,18.7,34.2,14.7l0.1,0.9
				C172.1,279.5,165.2,278.1,159.9,275.8z"/>
		</g>
		<g>
			<path d="M174.1,451.9c-0.1-0.2-5.3-17.5,3.5-54.7l0.9,0.2c-8.7,37-3.5,54.1-3.5,54.3L174.1,451.9z"/>
		</g>
		<g>
			<path d="M154.2,211.7l-0.7-0.3c10.3-22,25.4-37.9,25.6-38.1l0.6,0.5C179.5,174,164.5,189.8,154.2,211.7z"/>
		</g>
		<linearGradient id="SVGID_48_" gradientUnits="userSpaceOnUse" x1="190.1862" y1="315.9313" x2="234.4782" y2="162.4198">
			<stop  offset="0" style="stop-color:#007D8E"/>
			<stop  offset="1" style="stop-color:#05BBD0"/>
		</linearGradient>
		<path class="st52" d="M240.8,176.6c0,0,2.5,2.9,4.6,4.1c2.1,1.2-1.4,15-1.4,15l-11,9.1l-20.7-2.3l-1.7-23.7l11.3-7.3L240.8,176.6z
			"/>
	</g>
	<g>
		<g>
			<g>
				<path class="st2" d="M518.2,261.3H390.7c-3.2,0-5.7-2.6-5.7-5.7v-88.8c0-2.2,1.8-3.9,3.9-3.9H520c2.2,0,3.9,1.8,3.9,3.9v88.8
					C523.9,258.7,521.4,261.3,518.2,261.3z"/>
				<path class="st21" d="M518.2,261.8H390.7c-3.4,0-6.2-2.8-6.2-6.2v-88.8c0-2.4,2-4.4,4.4-4.4H520c2.4,0,4.4,2,4.4,4.4v88.8
					C524.5,259,521.7,261.8,518.2,261.8z M388.9,163.3c-1.9,0-3.4,1.5-3.4,3.4v88.8c0,2.9,2.3,5.2,5.2,5.2h127.5
					c2.9,0,5.2-2.3,5.2-5.2v-88.8c0-1.9-1.5-3.4-3.4-3.4H388.9z"/>
			</g>
		</g>
		<g>
			<g>
				<g>
					<path class="st2" d="M520,162.8H389.1c-2.2,0-4,1.8-4,4v4.6h138.8v-4.6C523.9,164.6,522.2,162.8,520,162.8z"/>
					<path class="st21" d="M524.5,171.9H384.6v-5.1c0-2.5,2-4.5,4.5-4.5H520c2.5,0,4.5,2,4.5,4.5V171.9z M385.6,170.9h137.8v-4.1
						c0-1.9-1.6-3.5-3.5-3.5H389.1c-1.9,0-3.5,1.6-3.5,3.5V170.9z"/>
				</g>
			</g>
			<g>
				<path d="M509.8,166.4c-0.5,0-1,0.4-1,1c0,0.5,0.4,1,1,1c0.5,0,0.9-0.4,0.9-1C510.7,166.8,510.3,166.4,509.8,166.4z"/>
				<linearGradient id="SVGID_49_" gradientUnits="userSpaceOnUse" x1="512.8141" y1="167.3615" x2="514.7153" y2="167.3615">
					<stop  offset="0" style="stop-color:#FF4428"/>
					<stop  offset="1" style="stop-color:#FF7E3B"/>
				</linearGradient>
				<path class="st53" d="M513.8,166.4c-0.5,0-1,0.4-1,1c0,0.5,0.4,1,1,1s1-0.4,1-1C514.7,166.8,514.3,166.4,513.8,166.4z"/>
				<linearGradient id="SVGID_50_" gradientUnits="userSpaceOnUse" x1="516.825" y1="167.3615" x2="518.7261" y2="167.3615">
					<stop  offset="0" style="stop-color:#001B8D"/>
					<stop  offset="1" style="stop-color:#0073D5"/>
				</linearGradient>
				<path class="st54" d="M517.8,166.4c-0.5,0-1,0.4-1,1c0,0.5,0.4,1,1,1s1-0.4,1-1C518.7,166.8,518.3,166.4,517.8,166.4z"/>
			</g>
		</g>
		<path d="M511.7,245.5H397.5c-0.6,0-1.1-0.5-1.1-1.1l0,0c0-0.6,0.5-1.1,1.1-1.1h114.2c0.6,0,1.1,0.5,1.1,1.1l0,0
			C512.8,245,512.3,245.5,511.7,245.5z"/>
		<linearGradient id="SVGID_51_" gradientUnits="userSpaceOnUse" x1="396.3317" y1="244.3468" x2="480.4082" y2="244.3468">
			<stop  offset="0" style="stop-color:#FF4428"/>
			<stop  offset="1" style="stop-color:#FF7E3B"/>
		</linearGradient>
		<path class="st55" d="M479.3,245.5h-81.8c-0.6,0-1.1-0.5-1.1-1.1l0,0c0-0.6,0.5-1.1,1.1-1.1h81.8c0.6,0,1.1,0.5,1.1,1.1l0,0
			C480.4,245,479.9,245.5,479.3,245.5z"/>
		<linearGradient id="SVGID_52_" gradientUnits="userSpaceOnUse" x1="477.0069" y1="244.3468" x2="483.8085" y2="244.3468">
			<stop  offset="0" style="stop-color:#FF4428"/>
			<stop  offset="1" style="stop-color:#FF7E3B"/>
		</linearGradient>
		<path class="st56" d="M483.8,244.3c0,1.9-1.5,3.4-3.4,3.4c-1.9,0-3.4-1.5-3.4-3.4c0-1.9,1.5-3.4,3.4-3.4
			C482.3,240.9,483.8,242.5,483.8,244.3z"/>
		<polygon points="452.8,206.9 452.8,206.9 452.8,206.9 452.8,206.9 452.8,206.9 452.8,206.9 		"/>
		<g>
			<linearGradient id="SVGID_53_" gradientUnits="userSpaceOnUse" x1="429.8445" y1="205.2145" x2="479.1303" y2="205.2145">
				<stop  offset="0" style="stop-color:#FF4428"/>
				<stop  offset="1" style="stop-color:#FF7E3B"/>
			</linearGradient>
			<circle class="st57" cx="454.5" cy="205.2" r="24.6"/>
			<path class="st2" d="M465.6,205.1l-15.8-10.2c-0.6-0.4-1.4,0-1.4,0.8V216c0,0.7,0.8,1.1,1.4,0.8l15.8-10.2
				C466.1,206.2,466.1,205.4,465.6,205.1z"/>
		</g>
	</g>
	<g>
		<g>
			<linearGradient id="SVGID_54_" gradientUnits="userSpaceOnUse" x1="366.1777" y1="400.6278" x2="418.4606" y2="400.6278">
				<stop  offset="0" style="stop-color:#007D8E"/>
				<stop  offset="1" style="stop-color:#05BBD0"/>
			</linearGradient>
			<path class="st58" d="M414.3,376.7c-21.9-20-50.7,31.8-48,52.3h10.9C387.9,423.9,432,392.9,414.3,376.7z"/>
			<g>
				<path d="M372.1,429.2c16.2-29.6,42.3-51.9,42.6-52.1l-0.6-0.8c-0.3,0.2-26.5,22.6-42.8,52.4L372.1,429.2z"/>
			</g>
			<g>
				<path d="M384.9,408.9c0.8-0.1,19.1-2,24.6-4.1l-0.3-0.9c-5.4,2-24.2,4-24.4,4L384.9,408.9z"/>
			</g>
			<g>
				<path d="M398.2,391.5l0.9-0.4c-2.5-6.3-3-16.5-3.1-16.6l-1,0C395.1,375,395.6,385,398.2,391.5z"/>
			</g>
			<path d="M376,395.6c-9.8,13.4-8.7,26.4-7.6,34.7C383.7,417,378.4,397.7,376,395.6z"/>
			<linearGradient id="SVGID_55_" gradientUnits="userSpaceOnUse" x1="335.1708" y1="398.9311" x2="373.902" y2="398.9311">
				<stop  offset="0" style="stop-color:#007D8E"/>
				<stop  offset="1" style="stop-color:#05BBD0"/>
			</linearGradient>
			<path class="st59" d="M344.1,367.7c-20.9-2.3-1.6,42.5,22,62.6l7.6-2.2C375.7,420.7,361,369.5,344.1,367.7z"/>
			<g>
				<path d="M370.1,429.2l0.9-0.5c-7-12.9-28-55-28.2-55.5l-0.9,0.4C342.1,374.2,363.1,416.3,370.1,429.2z"/>
			</g>
			<g>
				<rect x="356.8" y="405.7" transform="matrix(0.4813 -0.8766 0.8766 0.4813 -175.6045 526.7305)" width="1" height="12"/>
			</g>
			<g>
				<rect x="352.2" y="392" transform="matrix(0.6235 -0.7818 0.7818 0.6235 -172.0707 427.7375)" width="11.8" height="1"/>
			</g>
		</g>
		<g>
			<linearGradient id="SVGID_56_" gradientUnits="userSpaceOnUse" x1="345.9175" y1="448.1846" x2="396.6345" y2="448.1846">
				<stop  offset="0" style="stop-color:#E9E8E3"/>
				<stop  offset="1" style="stop-color:#A8AEB7"/>
			</linearGradient>
			<path class="st60" d="M396.6,429.1v6.7c0,7.6-1.6,15-4.6,21.6l-1.2,2.6l-8,7.2h-22.7l-8.5-7.2l-1.2-2.6c-3-6.6-4.6-14.1-4.6-21.6
				v-6.7H396.6z"/>
		</g>
		<g>
			<rect x="358.5" y="445.4" width="37.8" height="1"/>
		</g>
		<g>
			<rect x="351.5" y="459.5" width="13.5" height="1"/>
		</g>
	</g>
</g>
</svg>
