<?xml version="1.0" encoding="utf-8"?>
<!-- Generator: Adobe Illustrator 25.0.0, SVG Export Plug-In . SVG Version: 6.00 Build 0)  -->
<svg version="1.1" id="Layer_1" xmlns:v="https://vecta.io/nano"
	 xmlns="http://www.w3.org/2000/svg" xmlns:xlink="http://www.w3.org/1999/xlink" x="0px" y="0px" viewBox="0 0 1744 470.9"
	 style="enable-background:new 0 0 1744 470.9;" xml:space="preserve">
<style type="text/css">
	.st0{fill:#E8A826;}
</style>
<g>
	<path class="st0" d="M1639.9,73.9c2.9-2.6,7.1-8.4,7.6-10.7l-7.3-5.6c-1.2,0.6-3,2.5-4.7,4.7l-5.4-14.1c-0.2-0.4-0.1-0.9,0.2-1.2
		l10.7-14c7.8-10.2,10.2-21.6,8-23.2c-0.3-0.2-0.7-0.3-1.1-0.3c-3.5,0-12.3,5.2-19.2,14.2l0,0l-10.7,14c-0.3,0.4-0.7,0.5-1.1,0.5
		l-15-1.5c1.6-2.2,3-4.5,3.3-5.8l-7.3-5.6c-2.1,1.1-6.6,6.7-8.4,10.1l-42.2-4.2l-3.8,5l45.3,18.7c1.7,0.7,3.3,1.6,4.8,2.7l5.2,3.9
		c0.4,0.3,0.4,0.8,0.2,1.2l-8.4,11c-3.3,4.3-6.2,8.8-8.7,13.6l-22.4,3.4l-3.2,4.2l20.1,5.9c-0.7,2.6-0.7,4.2-0.3,4.6
		s2.1-0.2,4.4-1.5l11,17.8l3.2-4.2l-2.6-22.6c3.5-3.3,7.3-7.3,10.8-12l8.4-11c0.3-0.4,0.8-0.4,1.2-0.2l5.2,3.9
		c1.5,1.1,2.8,2.4,3.9,3.9l30,38.7l3.8-5L1639.9,73.9z"/>
	<path class="st0" d="M214.6,387.5c-0.1,0-0.2,0-0.3,0c-0.6,0-1.1,0.4-1.3,1c-1,4.3-2.3,8.5-3.9,12.6c-0.3,0.7,0.1,1.5,0.8,1.7
		c0,0,0,0,0,0c0.2,0.1,0.3,0.1,0.5,0.1c0.6,0,1-0.3,1.2-0.9c1.6-4.2,2.9-8.5,4-12.9C215.8,388.4,215.3,387.7,214.6,387.5z"/>
	<path class="st0" d="M394.7,226.7c-0.1-0.6-0.7-1-1.3-1c-0.1,0-0.2,0-0.3,0l0,0l-13,3.1c-0.7,0.2-1.1,0.9-1,1.6
		c0.1,0.6,0.7,1,1.3,1c0.1,0,0.2,0,0.3,0l12.9-3.1C394.4,228.1,394.8,227.4,394.7,226.7C394.7,226.7,394.7,226.7,394.7,226.7z"/>
	<path class="st0" d="M367.5,232.1c-0.1,0-0.2,0-0.4,0h0l-12.9,3.7c-0.7,0.2-1.1,0.9-0.9,1.7c0,0,0,0,0,0c0.2,0.6,0.7,1,1.3,1
		c0.1,0,0.3,0,0.4-0.1l12.8-3.6c0.7-0.2,1.1-0.9,0.9-1.6C368.6,232.5,368.1,232.1,367.5,232.1z"/>
	<path class="st0" d="M318,249.2c-0.2-0.5-0.7-0.9-1.2-0.9c-0.2,0-0.3,0-0.5,0.1l-12.5,4.8c-0.7,0.3-1,1-0.7,1.7
		c0.2,0.5,0.7,0.8,1.2,0.8c0.2,0,0.3,0,0.5-0.1l12.4-4.8C317.9,250.7,318.2,249.9,318,249.2C318,249.2,318,249.2,318,249.2z"/>
	<path class="st0" d="M341.9,239.6c-0.1,0-0.3,0-0.4,0.1l0,0l-12.7,4.2c-0.7,0.2-1.1,1-0.8,1.7c0,0,0,0,0,0c0.2,0.5,0.7,0.9,1.3,0.9
		c0.1,0,0.3,0,0.4-0.1l12.6-4.2c0.7-0.2,1.1-1,0.9-1.7C343,240,342.5,239.6,341.9,239.6z"/>
	<path class="st0" d="M267.6,269.1c-0.2,0-0.4,0-0.6,0.1l-12,5.9c-0.7,0.3-0.9,1.1-0.6,1.8c0,0,0,0,0,0c0.2,0.4,0.7,0.7,1.2,0.7
		c0.2,0,0.4,0,0.6-0.1l11.9-5.9c0.7-0.3,0.9-1.1,0.6-1.8C268.6,269.4,268.1,269.1,267.6,269.1z"/>
	<path class="st0" d="M215.7,349.2c0.1,0.7,0.6,1.2,1.3,1.2c0,0,0.1,0,0.1,0c0.7-0.1,1.3-0.7,1.2-1.5c-0.3-3-0.7-6-1.2-9.1l-0.8-4.3
		c-0.1-0.6-0.7-1.1-1.3-1.1c-0.1,0-0.2,0-0.3,0v0c-0.7,0.1-1.2,0.8-1,1.6l0.8,4.2C215,343.3,215.4,346.3,215.7,349.2z"/>
	<path class="st0" d="M245,281.9c-0.2-0.4-0.7-0.7-1.2-0.7c-0.2,0-0.4,0.1-0.6,0.2l-11.7,6.5c-0.6,0.4-0.9,1.2-0.5,1.8c0,0,0,0,0,0
		c0.2,0.4,0.7,0.7,1.2,0.7c0.2,0,0.5-0.1,0.7-0.2l11.6-6.5C245.1,283.4,245.3,282.6,245,281.9C245,281.9,245,281.9,245,281.9z"/>
	<path class="st0" d="M217.6,361.1C217.6,361.1,217.6,361.1,217.6,361.1L217.6,361.1c-0.8,0-1.3,0.6-1.3,1.3l0,0
		c0,4.4-0.3,8.8-0.9,13.1c-0.1,0.7,0.4,1.4,1.2,1.5c0,0,0,0,0,0c0.1,0,0.1,0,0.2,0c0.7,0,1.2-0.5,1.3-1.2c0.5-4.4,0.9-8.9,0.9-13.4
		C219,361.7,218.4,361.1,217.6,361.1z"/>
	<path class="st0" d="M221.8,295.1c-0.2-0.4-0.7-0.6-1.1-0.6c-0.2,0-0.5,0.1-0.7,0.2l-11.4,7.1c-0.6,0.4-0.8,1.2-0.4,1.8
		c0,0,0,0,0,0c0.3,0.4,0.7,0.6,1.1,0.6c0.2,0,0.5-0.1,0.7-0.2l11.3-7C222,296.5,222.2,295.7,221.8,295.1
		C221.8,295.1,221.8,295.1,221.8,295.1z"/>
	<path class="st0" d="M293.1,259c-0.2-0.5-0.7-0.8-1.2-0.8c-0.2,0-0.4,0-0.5,0.1l-12.2,5.3c-0.7,0.3-1,1.1-0.7,1.8c0,0,0,0,0,0
		c0.2,0.5,0.7,0.8,1.2,0.8c0.2,0,0.4,0,0.5-0.1l12.2-5.3C293.1,260.4,293.4,259.7,293.1,259C293.1,259,293.1,259,293.1,259z"/>
	<path class="st0" d="M578.9,211l-13.3-0.6c0,0,0,0-0.1,0c-0.7,0-1.3,0.6-1.3,1.3v0c0,0.7,0.5,1.4,1.3,1.4l13.3,0.6h0.1
		c0.7,0,1.3-0.6,1.3-1.3C580.2,211.6,579.6,211,578.9,211z"/>
	<path class="st0" d="M605.5,213l-13.3-1.1h-0.1c-0.7,0-1.3,0.5-1.3,1.2l0,0c-0.1,0.7,0.5,1.4,1.2,1.4l13.3,1.1h0.1
		c0.7,0,1.3-0.5,1.3-1.2C606.8,213.7,606.3,213,605.5,213z"/>
	<path class="st0" d="M419.5,220.3c-0.1,0-0.2,0-0.3,0l-13.1,2.5c-0.7,0.1-1.2,0.8-1,1.6c0.1,0.6,0.7,1.1,1.3,1.1c0.1,0,0.2,0,0.3,0
		l13.1-2.5c0.7-0.1,1.2-0.8,1.1-1.5C420.7,220.8,420.1,220.3,419.5,220.3z"/>
	<path class="st0" d="M552.2,210C552.2,210,552.2,210,552.2,210l-13.4-0.1h0c-0.7,0-1.3,0.6-1.3,1.3c0,0.7,0.6,1.3,1.3,1.3l13.3,0.1
		h0c0.7,0,1.3-0.6,1.3-1.3C553.5,210.6,552.9,210,552.2,210z"/>
	<path class="st0" d="M632.1,215.9C632.1,215.9,632.1,215.9,632.1,215.9l-13.3-1.6h-0.1c-0.7,0-1.3,0.5-1.3,1.2v0
		c-0.1,0.7,0.4,1.4,1.2,1.5l13.2,1.6c0.1,0,0.1,0,0.2,0c0.7,0,1.2-0.5,1.3-1.2C633.3,216.7,632.8,216,632.1,215.9z"/>
	<path class="st0" d="M445.8,216.1c-0.1,0-0.1,0-0.2,0l-13.2,2c-0.7,0.1-1.2,0.8-1.1,1.5c0.1,0.6,0.7,1.1,1.3,1.1c0.1,0,0.1,0,0.2,0
		l13.2-2c0.7-0.1,1.2-0.8,1.1-1.5C447,216.6,446.5,216.1,445.8,216.1z"/>
	<path class="st0" d="M472.3,213c-0.1,0-0.1,0-0.2,0l-13.3,1.4c-0.7,0.1-1.3,0.8-1.2,1.5c0.1,0.7,0.6,1.2,1.3,1.2c0.1,0,0.1,0,0.2,0
		l13.2-1.4c0.7-0.1,1.3-0.7,1.2-1.5v0C473.5,213.5,473,213,472.3,213z"/>
	<path class="st0" d="M525.5,209.9L525.5,209.9L525.5,209.9l-13.4,0.4c-0.7,0-1.3,0.6-1.3,1.4c0,0,0,0,0,0c0,0.7,0.6,1.3,1.3,1.3
		h0.1l13.3-0.4c0.7,0,1.3-0.6,1.3-1.4C526.8,210.5,526.2,209.9,525.5,209.9z"/>
	<path class="st0" d="M498.9,210.9c0,0-0.1,0-0.1,0v0l-13.3,0.9c-0.7,0.1-1.3,0.7-1.2,1.4c0.1,0.7,0.6,1.2,1.3,1.2h0.1l13.3-0.9
		c0.7,0,1.3-0.7,1.3-1.4c0,0,0,0,0,0C500.2,211.5,499.6,210.9,498.9,210.9z"/>
	<path class="st0" d="M156.8,341.8c-0.3-0.3-0.6-0.5-1-0.5c-0.3,0-0.6,0.1-0.9,0.3v0c-5.6,5-9,8.3-9.8,9.2c-0.5,0.5-0.5,1.4,0,1.9
		c0,0,0,0,0,0c0.2,0.2,0.6,0.4,0.9,0.4c0.4,0,0.7-0.1,1-0.4c0.9-0.9,4.2-4.2,9.7-9.1C157.3,343.2,157.3,342.3,156.8,341.8z"/>
	<path class="st0" d="M93.9,227.2C93.9,227.2,93.9,227.2,93.9,227.2c-4.5-0.6-8.9-1-13.4-1.1h-0.1c-0.7,0-1.3,0.6-1.3,1.3
		c0,0.7,0.5,1.4,1.3,1.4c4.3,0.2,8.8,0.5,13.2,1.1c0.1,0,0.1,0,0.2,0c0.7,0,1.2-0.5,1.3-1.2C95.1,228,94.6,227.3,93.9,227.2z"/>
	<polygon class="st0" points="79.1,227.4 79.1,227.4 79.1,227.4 	"/>
	<path class="st0" d="M205.5,412.5C205.5,412.5,205.5,412.5,205.5,412.5c-0.2-0.1-0.4-0.2-0.6-0.2c-0.5,0-0.9,0.3-1.2,0.7h0
		c-2.1,3.9-4.4,7.7-6.9,11.2c-0.4,0.6-0.3,1.4,0.3,1.9c0.2,0.2,0.5,0.2,0.8,0.2c0.4,0,0.8-0.2,1.1-0.6c2.6-3.6,4.9-7.5,7-11.5
		C206.4,413.6,206.2,412.8,205.5,412.5z"/>
	<path class="st0" d="M119.7,235.6c0.6,0,1.1-0.4,1.3-0.9c0.2-0.7-0.2-1.4-0.9-1.7c0,0,0,0,0,0c-4.3-1.3-8.6-2.5-13-3.4
		c-0.1,0-0.2,0-0.3,0c-0.6,0-1.2,0.4-1.3,1.1c-0.2,0.7,0.3,1.4,1,1.6c0,0,0,0,0,0c4.3,0.9,8.6,2.1,12.8,3.3
		C119.5,235.5,119.6,235.6,119.7,235.6z"/>
	<path class="st0" d="M200.4,299.1c0.2,0.4,0.7,0.7,1.2,0.7c0.2,0,0.4-0.1,0.6-0.2c0.6-0.4,0.9-1.2,0.5-1.8
		c-2.1-3.9-4.5-7.8-7.1-11.4c-0.3-0.4-0.7-0.6-1.1-0.6c-0.3,0-0.5,0.1-0.8,0.2v0c-0.6,0.4-0.8,1.2-0.3,1.9
		C196,291.5,198.3,295.2,200.4,299.1z"/>
	<path class="st0" d="M112.4,407.9c0.2-0.7-0.3-1.4-1-1.6c0,0,0,0,0,0c-0.1,0-0.2,0-0.3,0c-0.6,0-1.2,0.4-1.3,1.1v0
		c-0.7,3.4-1.1,6.8-1.1,10c0,1.2,0.1,2.5,0.2,3.6c0.1,0.7,0.6,1.2,1.3,1.2c0,0,0.1,0,0.1,0c0.7-0.1,1.3-0.7,1.2-1.4
		c-0.1-1.1-0.2-2.3-0.2-3.4C111.3,414.4,111.7,411.2,112.4,407.9z"/>
	<path class="st0" d="M176.2,268c3.2,3,6.3,6.2,9.1,9.5c0.3,0.3,0.6,0.5,1,0.5c0.3,0,0.6-0.1,0.9-0.3c0.6-0.5,0.6-1.3,0.1-1.9
		c0,0,0,0,0,0c-2.9-3.4-6-6.6-9.3-9.7c-0.3-0.2-0.6-0.4-0.9-0.4c-0.4,0-0.7,0.2-1,0.4v0C175.7,266.6,175.7,267.5,176.2,268
		C176.2,268,176.2,268,176.2,268z"/>
	<path class="st0" d="M206.1,311c1.7,4.1,3.2,8.2,4.4,12.4c0.2,0.6,0.7,0.9,1.3,0.9c0.1,0,0.3,0,0.4-0.1c0.7-0.2,1.1-1,0.9-1.7
		c0,0,0,0,0,0c-1.3-4.3-2.8-8.5-4.5-12.7c-0.2-0.5-0.7-0.8-1.2-0.8c-0.2,0-0.4,0-0.5,0.1v0C206.1,309.5,205.8,310.3,206.1,311
		C206.1,311,206.1,311,206.1,311z"/>
	<path class="st0" d="M186.4,316.7c-0.6,0.4-0.7,1.3-0.3,1.9c0,0,0,0,0,0c0.3,0.3,0.7,0.6,1.1,0.6c0.3,0,0.6-0.1,0.8-0.2l10.9-7.6
		c0.6-0.4,0.8-1.2,0.4-1.9c-0.3-0.4-0.7-0.6-1.1-0.6c-0.3,0-0.5,0.1-0.7,0.2v0L186.4,316.7z"/>
	<path class="st0" d="M155.3,251.9C155.3,251.9,155.3,251.9,155.3,251.9c3.7,2.3,7.4,4.9,10.8,7.5c0.2,0.2,0.5,0.3,0.8,0.3
		c0.4,0,0.8-0.2,1.1-0.5c0.4-0.6,0.3-1.4-0.2-1.9c-3.5-2.7-7.2-5.3-11-7.7c-0.2-0.1-0.5-0.2-0.7-0.2c-0.5,0-0.9,0.2-1.1,0.6v0
		C154.5,250.7,154.7,251.5,155.3,251.9z"/>
	<path class="st0" d="M177.6,324.9c-0.3-0.3-0.7-0.5-1.1-0.5c-0.3,0-0.6,0.1-0.8,0.3v0c-3.5,2.7-7.1,5.5-10.5,8.3
		c-0.6,0.5-0.7,1.3-0.2,1.9c0.3,0.3,0.6,0.5,1,0.5c0.3,0,0.6-0.1,0.8-0.3c3.4-2.7,6.9-5.5,10.4-8.2
		C177.9,326.3,178,325.5,177.6,324.9C177.6,324.9,177.6,324.9,177.6,324.9z"/>
	<path class="st0" d="M168.6,450.3c-0.2,0-0.4,0-0.6,0.2h0c-4,2.1-8.1,3.7-12.1,4.7c-0.7,0.2-1.2,0.9-1,1.6c0.1,0.6,0.7,1,1.3,1
		c0.1,0,0.2,0,0.3,0c4.2-1,8.5-2.7,12.7-4.9c0.7-0.3,0.9-1.1,0.6-1.8C169.5,450.6,169.1,450.3,168.6,450.3z"/>
	<path class="st0" d="M114.8,433.3c-0.2-0.5-0.7-0.8-1.2-0.8c-0.2,0-0.3,0-0.5,0.1v0c-0.7,0.3-1,1.1-0.7,1.7
		c1.8,4.5,4.1,8.5,6.8,11.8c0.3,0.3,0.6,0.5,1,0.5c0.3,0,0.6-0.1,0.8-0.3c0.6-0.5,0.7-1.3,0.2-1.9
		C118.7,441.3,116.5,437.5,114.8,433.3z"/>
	<path class="st0" d="M658.5,219.7C658.5,219.7,658.5,219.7,658.5,219.7l-13.2-2c-0.1,0-0.1,0-0.2,0c-0.6,0-1.2,0.5-1.3,1.1h0
		c-0.1,0.7,0.4,1.4,1.1,1.5c0,0,0,0,0,0l13.2,2c0.1,0,0.1,0,0.2,0c0.7,0,1.2-0.5,1.3-1.1C659.7,220.5,659.2,219.8,658.5,219.7z"/>
	<path class="st0" d="M190.5,434.4c-0.2-0.2-0.6-0.4-0.9-0.4c-0.4,0-0.7,0.1-1,0.4c-3.1,3.3-6.3,6.3-9.7,8.9
		c-0.6,0.5-0.7,1.3-0.2,1.9h0c0.3,0.3,0.6,0.5,1.1,0.5c0.3,0,0.6-0.1,0.8-0.3c3.5-2.7,6.8-5.8,10-9.2
		C191,435.8,191,434.9,190.5,434.4C190.5,434.4,190.5,434.4,190.5,434.4z"/>
	<path class="st0" d="M121.9,382C121.9,382,121.9,382,121.9,382c-0.2-0.1-0.5-0.2-0.7-0.2c-0.5,0-0.9,0.2-1.1,0.7v0
		c-2.4,4.1-4.5,8.1-6.2,12c-0.3,0.7,0,1.5,0.7,1.8c0,0,0,0,0,0c0.2,0.1,0.3,0.1,0.5,0.1c0.5,0,1-0.3,1.2-0.8c1.6-3.8,3.6-7.7,6-11.7
		C122.8,383.2,122.6,382.4,121.9,382z"/>
	<path class="st0" d="M129.7,372.8c2.6-3.6,5.4-7,8.2-10.4c0.5-0.6,0.4-1.4-0.1-1.9c-0.3-0.2-0.6-0.3-0.9-0.3c-0.4,0-0.8,0.2-1,0.5
		v0c-3,3.5-5.8,7-8.4,10.5c-0.4,0.6-0.3,1.4,0.3,1.9c0,0,0,0,0,0c0.2,0.2,0.5,0.3,0.8,0.3C129,373.3,129.4,373.1,129.7,372.8z"/>
	<path class="st0" d="M145.6,244.8c0.3-0.7,0.1-1.5-0.6-1.8c0,0,0,0,0,0c-4-2-8.1-3.9-12.2-5.6c-0.2-0.1-0.3-0.1-0.5-0.1
		c-0.5,0-1,0.3-1.2,0.8v0c-0.3,0.7,0.1,1.5,0.7,1.7c4.1,1.6,8.1,3.5,12,5.5c0.2,0.1,0.4,0.1,0.6,0.1
		C144.9,245.5,145.4,245.2,145.6,244.8z"/>
	<path class="st0" d="M143.1,456.2C143.1,456.2,143.1,456.2,143.1,456.2c-4.4-0.4-8.5-1.6-12.2-3.6c-0.2-0.1-0.4-0.2-0.6-0.2
		c-0.5,0-0.9,0.3-1.2,0.7v0c-0.4,0.6-0.1,1.5,0.5,1.8c4,2.2,8.5,3.5,13.2,3.9h0.1c0.7,0,1.3-0.5,1.3-1.2
		C144.4,457,143.8,456.3,143.1,456.2z"/>
	<path class="st0" d="M1518.3,176.1c-0.3,0-0.7,0.1-1,0.4v0c-3.1,3.1-6.3,6.3-9.4,9.3c-0.5,0.5-0.5,1.4,0,1.9c0,0,0,0,0,0
		c0.3,0.3,0.6,0.4,1,0.4c0.3,0,0.7-0.1,0.9-0.4c3.2-3.1,6.4-6.2,9.5-9.4c0.5-0.5,0.5-1.4,0-1.9
		C1519,176.2,1518.7,176.1,1518.3,176.1z"/>
	<path class="st0" d="M1260.5,304.7c-0.1,0-0.2,0-0.2,0l-13.1,2c-0.7,0.1-1.2,0.8-1.1,1.5c0.1,0.7,0.7,1.1,1.3,1.1
		c0.1,0,0.1,0,0.2,0l13.2-2c0.7-0.1,1.2-0.8,1.1-1.5C1261.7,305.2,1261.2,304.7,1260.5,304.7z"/>
	<path class="st0" d="M1313.9,294.6c-0.2-0.6-0.7-1-1.3-1c-0.1,0-0.2,0-0.3,0l0,0l-12.9,3.3c-0.7,0.2-1.2,0.9-1,1.6
		c0.1,0.6,0.7,1,1.3,1c0.1,0,0.2,0,0.3,0l13-3.3C1313.7,296,1314.1,295.3,1313.9,294.6C1313.9,294.6,1313.9,294.6,1313.9,294.6z"/>
	<path class="st0" d="M1286.7,299.8c-0.1,0-0.2,0-0.3,0l0,0l-13,2.6c-0.7,0.1-1.2,0.8-1.1,1.6c0,0,0,0,0,0c0.1,0.6,0.7,1.1,1.3,1.1
		c0.1,0,0.2,0,0.3,0l13.1-2.6c0.7-0.2,1.2-0.9,1-1.6C1287.9,300.2,1287.3,299.8,1286.7,299.8z"/>
	<path class="st0" d="M1339.5,287c-0.2-0.6-0.7-0.9-1.3-0.9c-0.1,0-0.3,0-0.4,0.1l0,0l-12.7,3.9c-0.7,0.2-1.1,0.9-0.9,1.7
		c0,0,0,0,0,0c0.2,0.6,0.7,1,1.3,1c0.1,0,0.3,0,0.4-0.1l12.8-3.9C1339.3,288.5,1339.7,287.7,1339.5,287
		C1339.5,287,1339.5,287,1339.5,287z"/>
	<path class="st0" d="M1181,312.9L1181,312.9L1181,312.9l-13.4,0.5c-0.7,0-1.3,0.6-1.3,1.4c0,0,0,0,0,0c0,0.7,0.6,1.3,1.3,1.3h0
		l13.3-0.5c0.7,0,1.3-0.7,1.3-1.4c0,0,0,0,0,0C1182.3,313.4,1181.7,312.9,1181,312.9z"/>
	<path class="st0" d="M1154.3,313.5L1154.3,313.5c-4.4,0-8.9,0-13.3,0c-0.8,0-1.3,0.6-1.3,1.3c0,0.7,0.6,1.3,1.3,1.3c0,0,0,0,0,0
		l7.1,0l6.2,0c0.7,0,1.3-0.6,1.3-1.3C1155.7,314.1,1155.1,313.5,1154.3,313.5z"/>
	<path class="st0" d="M1235.5,309.7c-0.1-0.7-0.7-1.2-1.3-1.2c-0.1,0-0.1,0-0.2,0l0,0l-13.2,1.5c-0.7,0.1-1.3,0.7-1.2,1.5
		c0,0,0,0,0,0c0.1,0.7,0.7,1.2,1.3,1.2c0,0,0.1,0,0.1,0l13.3-1.5C1235,311.1,1235.5,310.4,1235.5,309.7
		C1235.5,309.7,1235.5,309.7,1235.5,309.7z"/>
	<path class="st0" d="M1363.3,277.2c-0.2,0-0.3,0-0.5,0.1v0l-12.5,4.6c-0.7,0.2-1.1,1-0.8,1.7c0.2,0.5,0.7,0.9,1.3,0.9
		c0.2,0,0.3,0,0.4-0.1l12.5-4.6c0.7-0.3,1-1,0.8-1.7C1364.4,277.5,1363.9,277.2,1363.3,277.2z"/>
	<path class="st0" d="M1207.6,311.2L1207.6,311.2L1207.6,311.2l-13.4,0.9c-0.7,0-1.3,0.7-1.2,1.4c0,0.7,0.6,1.3,1.3,1.3
		c0,0,0.1,0,0.1,0l13.3-0.9c0.7-0.1,1.3-0.7,1.2-1.4C1208.9,311.7,1208.3,311.2,1207.6,311.2z"/>
	<path class="st0" d="M1500.1,195c-0.3-0.3-0.6-0.4-1-0.4c-0.3,0-0.6,0.1-0.9,0.3h0c-3.3,3-6.6,5.9-10,8.7c-0.6,0.5-0.6,1.3-0.2,1.9
		c0,0,0,0,0,0c0.3,0.3,0.6,0.5,1,0.5c0.3,0,0.6-0.1,0.9-0.3c3.4-2.9,6.7-5.8,10.1-8.8C1500.5,196.3,1500.6,195.5,1500.1,195
		C1500.1,195,1500.1,195,1500.1,195z"/>
	<path class="st0" d="M1536.4,156.5c-0.4,0-0.8,0.2-1,0.5v0c-2.9,3.3-5.9,6.7-8.9,9.9c-0.5,0.5-0.5,1.4,0.1,1.9
		c0.2,0.2,0.6,0.4,0.9,0.4c0.4,0,0.7-0.1,1-0.4c3-3.3,6-6.6,8.9-10c0.5-0.6,0.4-1.4-0.1-1.9C1537,156.6,1536.7,156.5,1536.4,156.5z"
		/>
	<path class="st0" d="M1553.3,135.8c-0.4,0-0.8,0.2-1.1,0.5l-8.3,10.4c-0.5,0.6-0.4,1.4,0.2,1.9c0.2,0.2,0.5,0.3,0.8,0.3
		c0.4,0,0.8-0.2,1-0.5c2.8-3.4,5.6-7,8.3-10.5c0.4-0.6,0.3-1.4-0.2-1.9C1553.9,135.9,1553.6,135.8,1553.3,135.8z"/>
	<polygon class="st0" points="1139.7,314.8 1139.7,314.8 1139.7,314.8 	"/>
	<path class="st0" d="M1387.9,266.9c-0.2,0-0.4,0-0.5,0.1h0c-4,1.8-8.1,3.6-12.2,5.3c-0.7,0.3-1,1.1-0.7,1.7v0
		c0.2,0.5,0.7,0.8,1.2,0.8c0.2,0,0.3,0,0.5-0.1l12.3-5.3c0.7-0.3,1-1.1,0.7-1.8C1388.9,267.2,1388.5,266.9,1387.9,266.9z"/>
	<path class="st0" d="M1569,114.2c-0.4,0-0.8,0.2-1.1,0.6h0l-7.7,10.9c-0.4,0.6-0.3,1.4,0.3,1.9c0.2,0.2,0.5,0.3,0.8,0.3
		c0.4,0,0.8-0.2,1.1-0.5l7.7-10.9c0.4-0.6,0.3-1.4-0.3-1.9C1569.5,114.3,1569.2,114.2,1569,114.2z"/>
	<path class="st0" d="M1411.9,255.3c-0.2,0-0.4,0-0.6,0.2v0c-3.9,2.1-7.9,4.1-11.9,6c-0.7,0.3-0.9,1.1-0.6,1.8
		c0.2,0.5,0.7,0.7,1.2,0.7c0.2,0,0.4,0,0.6-0.1l11.9-6c0.7-0.3,0.9-1.2,0.6-1.8C1412.8,255.5,1412.4,255.3,1411.9,255.3z"/>
	<path class="st0" d="M1435.1,242.1c-0.2,0-0.5,0.1-0.7,0.2h0c-3.8,2.3-7.6,4.5-11.5,6.7c-0.6,0.4-0.9,1.2-0.5,1.8
		c0.2,0.4,0.7,0.7,1.2,0.7c0.2,0,0.5-0.1,0.7-0.2c3.8-2.2,7.7-4.4,11.5-6.8c0.6-0.4,0.8-1.2,0.4-1.8
		C1436,242.4,1435.6,242.1,1435.1,242.1z"/>
	<path class="st0" d="M1479.8,212.2c-0.3-0.3-0.7-0.5-1-0.5c-0.3,0-0.6,0.1-0.8,0.3l0,0c-3.4,2.7-7,5.4-10.5,8.1
		c-0.6,0.4-0.7,1.3-0.3,1.9c0,0,0,0,0,0c0.3,0.3,0.6,0.5,1.1,0.5c0.3,0,0.6-0.1,0.8-0.3c3.6-2.7,7.1-5.4,10.6-8.1
		C1480.2,213.6,1480.3,212.8,1479.8,212.2C1479.8,212.2,1479.8,212.2,1479.8,212.2z"/>
	<path class="st0" d="M1458.5,228.2c-0.3-0.4-0.7-0.6-1.1-0.6c-0.3,0-0.5,0.1-0.8,0.2c-3.6,2.5-7.3,5-11,7.4
		c-0.6,0.4-0.8,1.2-0.4,1.8c0.3,0.4,0.7,0.6,1.1,0.6c0.3,0,0.5-0.1,0.7-0.2c3.7-2.4,7.4-4.9,11.1-7.5
		C1458.8,229.6,1459,228.8,1458.5,228.2C1458.5,228.2,1458.5,228.2,1458.5,228.2z"/>
	<path class="st0" d="M762.7,243.2C762.7,243.2,762.7,243.2,762.7,243.2l-12.9-3.6c-0.1,0-0.2,0-0.3,0c-0.6,0-1.1,0.4-1.3,1h0
		c-0.2,0.7,0.2,1.4,0.9,1.6c0,0,0,0,0,0l12.8,3.6c0.1,0,0.2,0.1,0.4,0.1c0.6,0,1.1-0.4,1.3-1C763.8,244.1,763.4,243.4,762.7,243.2z"
		/>
	<path class="st0" d="M813.7,258.6C813.7,258.6,813.7,258.6,813.7,258.6l-12.8-3.8c-0.1,0-0.3-0.1-0.4-0.1c-0.6,0-1.1,0.4-1.3,0.9h0
		c-0.2,0.7,0.2,1.4,0.9,1.7l12.8,3.8c0.1,0,0.3,0.1,0.4,0.1c0.6,0,1.1-0.4,1.3-1C814.8,259.6,814.4,258.8,813.7,258.6z"/>
	<path class="st0" d="M788.2,250.9C788.2,250.9,788.2,250.9,788.2,250.9l-4-1.2l-8.8-2.7c-0.1,0-0.3-0.1-0.4-0.1
		c-0.6,0-1.1,0.4-1.3,0.9c-0.2,0.7,0.2,1.4,0.9,1.7l8.7,2.7l4,1.2c0.1,0,0.3,0.1,0.4,0.1c0.6,0,1.1-0.4,1.3-0.9
		C789.3,251.9,788.9,251.1,788.2,250.9z"/>
	<path class="st0" d="M839.3,266l-12.8-3.6c-0.1,0-0.2-0.1-0.4-0.1c-0.6,0-1.1,0.4-1.3,1c-0.2,0.7,0.2,1.4,0.9,1.7c0,0,0,0,0,0
		l12.8,3.6c0.1,0,0.2,0,0.4,0c0.6,0,1.1-0.4,1.3-1C840.4,266.9,840,266.2,839.3,266z"/>
	<path class="st0" d="M865,272.9C865,272.9,865,272.9,865,272.9l-12.9-3.4c-0.1,0-0.2,0-0.3,0c-0.6,0-1.1,0.4-1.3,1v0
		c-0.2,0.7,0.2,1.4,0.9,1.6l12.9,3.4c0.1,0,0.2,0,0.3,0c0.6,0,1.1-0.4,1.3-1C866.2,273.8,865.8,273.1,865,272.9z"/>
	<path class="st0" d="M684.8,224.4l-13.1-2.4c-0.1,0-0.2,0-0.2,0c-0.6,0-1.2,0.5-1.3,1.1v0c-0.1,0.7,0.4,1.4,1.1,1.5l13.1,2.4
		c0.1,0,0.2,0,0.3,0c0.6,0,1.2-0.5,1.3-1.1C686,225.2,685.5,224.5,684.8,224.4z"/>
	<path class="st0" d="M736.9,236.1l-13-3.2c-0.1,0-0.2,0-0.3,0c-0.6,0-1.1,0.4-1.3,1h0c-0.2,0.7,0.3,1.4,1,1.6l12.9,3.2
		c0.1,0,0.2,0,0.3,0c0.6,0,1.1-0.4,1.3-1C738,237,737.6,236.3,736.9,236.1z"/>
	<path class="st0" d="M710.9,229.9C710.9,229.9,710.9,229.9,710.9,229.9l-13-2.8c-0.1,0-0.2,0-0.3,0c-0.6,0-1.2,0.4-1.3,1.1l0,0
		c-0.2,0.7,0.3,1.4,1,1.6c0,0,0,0,0,0l13,2.8c0.1,0,0.2,0,0.3,0c0.6,0,1.2-0.4,1.3-1C712.1,230.7,711.7,230,710.9,229.9z"/>
	<polygon class="st0" points="773.8,247.8 773.8,247.8 773.8,247.8 	"/>
	<path class="st0" d="M890.9,279.4C890.9,279.4,890.9,279.4,890.9,279.4l-12.9-3.2c-0.1,0-0.2,0-0.3,0c-0.6,0-1.1,0.4-1.3,1v0
		c-0.2,0.7,0.3,1.4,1,1.6c0,0,0,0,0,0l13,3.2c0.1,0,0.2,0,0.3,0c0.6,0,1.1-0.4,1.3-1C892,280.3,891.6,279.6,890.9,279.4z"/>
	<path class="st0" d="M1127.7,313.3C1127.7,313.3,1127.7,313.3,1127.7,313.3l-13.3-0.4h-0.1c-0.7,0-1.3,0.6-1.3,1.3
		c0,0.7,0.5,1.4,1.3,1.4l13.3,0.4h0c0.7,0,1.3-0.6,1.3-1.3C1129,313.9,1128.5,313.3,1127.7,313.3z"/>
	<path class="st0" d="M1101.1,312.2l-13.3-0.8h0c-0.7,0-1.3,0.5-1.4,1.2l0,0c-0.1,0.7,0.5,1.4,1.2,1.4l13.3,0.8c0,0,0.1,0,0.1,0
		c0.7,0,1.3-0.6,1.3-1.3C1102.4,312.9,1101.9,312.3,1101.1,312.2z"/>
	<path class="st0" d="M1074.6,310.4l-13.3-1.2h-0.1c-0.7,0-1.3,0.5-1.3,1.2c-0.1,0.7,0.5,1.4,1.2,1.5l13.3,1.2h0.1
		c0.7,0,1.3-0.5,1.3-1.2C1075.8,311.1,1075.3,310.4,1074.6,310.4z"/>
	<polygon class="st0" points="1113,314.1 1113,314.1 1113,314.1 	"/>
	<path class="st0" d="M1048.1,307.8l-13.2-1.6c-0.1,0-0.1,0-0.2,0c-0.7,0-1.2,0.5-1.3,1.2l0,0c-0.1,0.7,0.4,1.4,1.2,1.5c0,0,0,0,0,0
		l13.3,1.6c0,0,0.1,0,0.1,0c0.7,0,1.2-0.5,1.3-1.2C1049.3,308.5,1048.8,307.9,1048.1,307.8z"/>
	<path class="st0" d="M916.8,285.5l-13-3c-0.1,0-0.2,0-0.3,0c-0.6,0-1.2,0.4-1.3,1l0,0c-0.2,0.7,0.3,1.4,1,1.6l13,3
		c0.1,0,0.2,0,0.3,0c0.6,0,1.2-0.4,1.3-1C918,286.4,917.5,285.6,916.8,285.5z"/>
	<path class="st0" d="M969,296.1l-13.1-2.5c-0.1,0-0.2,0-0.2,0c-0.6,0-1.2,0.4-1.3,1.1h0c-0.1,0.7,0.3,1.4,1.1,1.6c0,0,0,0,0,0
		l13.1,2.5c0.1,0,0.2,0,0.2,0c0.6,0,1.2-0.5,1.3-1.1C970.2,296.9,969.7,296.2,969,296.1z"/>
	<path class="st0" d="M942.9,291.1l-13-2.7c-0.1,0-0.2,0-0.3,0c-0.6,0-1.2,0.4-1.3,1.1c-0.2,0.7,0.3,1.4,1,1.6l13.1,2.7
		c0.1,0,0.2,0,0.3,0c0.6,0,1.2-0.4,1.3-1.1C944.1,291.9,943.6,291.2,942.9,291.1z"/>
	<path class="st0" d="M995.3,300.6C995.3,300.6,995.3,300.6,995.3,300.6l-13.1-2.2c-0.1,0-0.2,0-0.2,0c-0.6,0-1.2,0.5-1.3,1.1h0
		c-0.1,0.7,0.4,1.4,1.1,1.5l13.2,2.2c0.1,0,0.1,0,0.2,0c0.7,0,1.2-0.5,1.3-1.1C996.5,301.4,996,300.7,995.3,300.6z"/>
	<path class="st0" d="M1021.6,304.5C1021.6,304.5,1021.6,304.5,1021.6,304.5l-13.2-1.9c-0.1,0-0.1,0-0.2,0c-0.7,0-1.2,0.5-1.3,1.1v0
		c-0.1,0.7,0.4,1.4,1.1,1.5l13.2,1.9c0.1,0,0.1,0,0.2,0c0.7,0,1.2-0.5,1.3-1.2C1022.9,305.3,1022.4,304.6,1021.6,304.5z"/>
</g>
</svg>
