<?xml version="1.0" encoding="utf-8"?>
<!-- Generator: Adobe Illustrator 25.0.0, SVG Export Plug-In . SVG Version: 6.00 Build 0)  -->
<svg version="1.1" xmlns="http://www.w3.org/2000/svg" xmlns:xlink="http://www.w3.org/1999/xlink" x="0px" y="0px"
	 viewBox="0 0 606.8 435.9" style="enable-background:new 0 0 606.8 435.9;" xml:space="preserve">
<style type="text/css">
	.st0{fill:none;}
	.st1{fill:#1C1556;}
	.st2{fill:none;stroke:#100E3A;stroke-linecap:round;stroke-linejoin:round;stroke-miterlimit:10;}
	.st3{opacity:0.1;fill:#100E3A;}
	.st4{fill:#A7A5D8;}
	.st5{fill:none;stroke:#D9D9FC;stroke-miterlimit:10;}
	.st6{fill:#D9D9FC;}
	.st7{fill:#FF9CBD;}
	.st8{fill:#FFC727;}
	.st9{fill:#100E3A;}
	.st10{fill:url(#SVGID_1_);}
	.st11{fill:url(#SVGID_2_);}
	.st12{fill:url(#SVGID_3_);}
	.st13{fill:#EB9481;}
	.st14{fill:#67C6B4;}
	.st15{fill:#F3F8FE;}
	.st16{fill:#FFFFFF;}
	.st17{fill:#474799;}
	.st18{fill:#DD6A57;}
	.st19{fill:none;stroke:#F7A9A0;stroke-width:0;stroke-linecap:round;stroke-linejoin:round;}
</style>
<pattern  x="-82.3" y="-35.1" width="300" height="300" patternUnits="userSpaceOnUse" id="Nueva_muestra_de_motivo_17" viewBox="0 -300 300 300" style="overflow:visible;">
	<g>
		<rect y="-300" class="st0" width="300" height="300"/>
		<circle class="st1" cx="150" cy="-150" r="50"/>
		<path class="st1" d="M50-300H0v50C27.6-250,50-272.4,50-300z"/>
		<path class="st1" d="M0-50V0h50C50-27.6,27.6-50,0-50z"/>
		<path class="st1" d="M300-250v-50h-50C250-272.4,272.4-250,300-250z"/>
		<path class="st1" d="M300-50c-27.6,0-50,22.4-50,50h50V-50z"/>
	</g>
</pattern>
<g id="BACKGROUND">
</g>
<g id="OBJECTS">
	<g id="Capa_4">
	</g>
	<g>
		<line class="st2" x1="44.4" y1="372.4" x2="596.9" y2="372.4"/>
		<g>
			<path class="st3" d="M555.4,390.2c0,4-15.5,7.3-34.6,7.3c-19.1,0-34.6-3.3-34.6-7.3c0-4,15.5-7.3,34.6-7.3
				C539.9,382.9,555.4,386.1,555.4,390.2z"/>
			<g>
				<path class="st4" d="M391,14.1c0-2,0.5-3.8,1.5-5.2c0.9-1.4,2.3-2.4,4.1-2.4c1.7,0,3.1,1,4.1,2.4c0.9,1.4,1.5,3.2,1.5,5.2
					c0,2-0.5,3.8-1.5,5.2c-0.9,1.4-2.4,2.4-4.1,2.4c-1.7,0-3.2-1.1-4.1-2.4C391.5,17.9,391,16,391,14.1z M399.6,14.1
					c0-1.6-0.4-3-1.1-3.9c-0.6-0.9-1.4-1.4-2-1.3c-0.7,0-1.4,0.4-2.1,1.3c-0.6,0.9-1.1,2.3-1.1,3.9c0,1.6,0.4,3,1.1,3.9
					c0.7,0.9,1.4,1.4,2.1,1.4c0.7,0,1.4-0.4,2-1.4C399.2,17,399.6,15.6,399.6,14.1z"/>
				<path class="st4" d="M411,7.6v12.9c0,0.7-0.6,1.2-1.2,1.2c-0.7,0-1.2-0.5-1.2-1.2V9.7l-0.9,0.5c-0.2,0.1-0.4,0.2-0.6,0.2
					c-0.4,0-0.8-0.2-1-0.6c-0.4-0.5-0.2-1.3,0.4-1.6l2.7-1.6c0,0,0.1,0,0.1,0c0,0,0.1,0,0.1-0.1c0,0,0.1,0,0.1,0c0,0,0.1,0,0.1,0
					c0,0,0.1,0,0.2,0c0,0,0,0,0.1,0h0c0.1,0,0.1,0,0.2,0c0,0,0.1,0,0.1,0c0.1,0,0.1,0,0.1,0c0,0,0.1,0,0.1,0c0.1,0,0.1,0.1,0.1,0.1
					c0,0,0,0,0.1,0.1c0,0,0.1,0,0.1,0.1c0,0,0.1,0.1,0.1,0.1c0,0,0,0,0.1,0.1c0,0,0.1,0.1,0.1,0.1l0,0c0,0,0,0,0,0.1
					c0,0,0,0.1,0,0.1c0,0,0,0.1,0,0.1c0,0,0,0.1,0,0.1C410.9,7.4,410.9,7.5,411,7.6C411,7.5,411,7.6,411,7.6z"/>
				<path class="st4" d="M418.3,7.6v12.9c0,0.7-0.6,1.2-1.2,1.2c-0.7,0-1.2-0.5-1.2-1.2V9.7l-0.9,0.5c-0.2,0.1-0.4,0.2-0.6,0.2
					c-0.4,0-0.8-0.2-1-0.6c-0.4-0.5-0.2-1.3,0.4-1.6l2.7-1.6c0,0,0.1,0,0.1,0c0,0,0.1,0,0.1-0.1c0,0,0.1,0,0.1,0c0,0,0.1,0,0.1,0
					c0,0,0.1,0,0.2,0c0,0,0,0,0.1,0h0c0.1,0,0.1,0,0.2,0c0,0,0.1,0,0.1,0c0.1,0,0.1,0,0.1,0c0,0,0.1,0,0.1,0c0.1,0,0.1,0.1,0.1,0.1
					c0,0,0,0,0.1,0.1c0,0,0.1,0,0.1,0.1c0,0,0.1,0.1,0.1,0.1c0,0,0,0,0.1,0.1c0,0,0.1,0.1,0.1,0.1l0,0c0,0,0,0,0,0.1
					c0,0,0,0.1,0,0.1c0,0,0,0.1,0,0.1c0,0,0,0.1,0,0.1C418.3,7.4,418.3,7.5,418.3,7.6C418.3,7.5,418.3,7.6,418.3,7.6z"/>
				<path class="st4" d="M425.7,7.6v12.9c0,0.7-0.6,1.2-1.2,1.2c-0.7,0-1.2-0.5-1.2-1.2V9.7l-0.9,0.5c-0.2,0.1-0.4,0.2-0.6,0.2
					c-0.4,0-0.8-0.2-1-0.6c-0.4-0.5-0.2-1.3,0.4-1.6l2.7-1.6c0,0,0.1,0,0.1,0c0,0,0.1,0,0.1-0.1c0,0,0.1,0,0.1,0c0,0,0.1,0,0.1,0
					c0,0,0.1,0,0.2,0c0,0,0,0,0.1,0h0c0.1,0,0.1,0,0.2,0c0,0,0.1,0,0.1,0c0.1,0,0.1,0,0.1,0c0,0,0.1,0,0.1,0c0.1,0,0.1,0.1,0.1,0.1
					c0,0,0,0,0.1,0.1c0,0,0.1,0,0.1,0.1c0,0,0.1,0.1,0.1,0.1c0,0,0,0,0.1,0.1c0,0,0.1,0.1,0.1,0.1l0,0c0,0,0,0,0,0.1
					c0,0,0,0.1,0,0.1c0,0,0,0.1,0,0.1c0,0,0,0.1,0,0.1C425.6,7.4,425.6,7.5,425.7,7.6C425.7,7.5,425.7,7.6,425.7,7.6z"/>
				<path class="st4" d="M428.5,14.1c0-2,0.5-3.8,1.5-5.2c0.9-1.4,2.3-2.4,4.1-2.4c1.7,0,3.1,1,4.1,2.4c0.9,1.4,1.5,3.2,1.5,5.2
					c0,2-0.5,3.8-1.5,5.2c-0.9,1.4-2.4,2.4-4.1,2.4c-1.7,0-3.2-1.1-4.1-2.4C429,17.9,428.5,16,428.5,14.1z M437.1,14.1
					c0-1.6-0.4-3-1.1-3.9c-0.6-0.9-1.4-1.4-2-1.3c-0.7,0-1.4,0.4-2.1,1.3c-0.6,0.9-1.1,2.3-1.1,3.9c0,1.6,0.4,3,1.1,3.9
					c0.7,0.9,1.4,1.4,2.1,1.4c0.7,0,1.4-0.4,2-1.4C436.7,17,437.1,15.6,437.1,14.1z"/>
				<path class="st4" d="M444.1,14.1c0-2,0.5-3.8,1.5-5.2c0.9-1.4,2.3-2.4,4.1-2.4c1.7,0,3.1,1,4.1,2.4c0.9,1.4,1.5,3.2,1.5,5.2
					c0,2-0.5,3.8-1.5,5.2c-0.9,1.4-2.4,2.4-4.1,2.4c-1.7,0-3.2-1.1-4.1-2.4C444.6,17.9,444.1,16,444.1,14.1z M452.7,14.1
					c0-1.6-0.4-3-1.1-3.9c-0.6-0.9-1.4-1.4-2-1.3c-0.7,0-1.4,0.4-2.1,1.3c-0.6,0.9-1.1,2.3-1.1,3.9c0,1.6,0.4,3,1.1,3.9
					c0.7,0.9,1.4,1.4,2.1,1.4c0.7,0,1.4-0.4,2-1.4C452.3,17,452.7,15.6,452.7,14.1z"/>
				<path class="st4" d="M459.6,14.1c0-2,0.5-3.8,1.5-5.2c0.9-1.4,2.3-2.4,4.1-2.4c1.7,0,3.1,1,4.1,2.4c0.9,1.4,1.5,3.2,1.5,5.2
					c0,2-0.5,3.8-1.5,5.2c-0.9,1.4-2.4,2.4-4.1,2.4c-1.7,0-3.2-1.1-4.1-2.4C460.2,17.9,459.7,16,459.6,14.1z M468.3,14.1
					c0-1.6-0.4-3-1.1-3.9c-0.6-0.9-1.4-1.4-2-1.3c-0.7,0-1.4,0.4-2.1,1.3c-0.6,0.9-1.1,2.3-1.1,3.9c0,1.6,0.4,3,1.1,3.9
					c0.7,0.9,1.4,1.4,2.1,1.4c0.7,0,1.4-0.4,2-1.4C467.9,17,468.3,15.6,468.3,14.1z"/>
				<path class="st4" d="M479.7,7.6v12.9c0,0.7-0.6,1.2-1.2,1.2c-0.7,0-1.2-0.5-1.2-1.2V9.7l-0.9,0.5c-0.2,0.1-0.4,0.2-0.6,0.2
					c-0.4,0-0.8-0.2-1-0.6c-0.4-0.5-0.2-1.3,0.4-1.6l2.7-1.6c0,0,0.1,0,0.1,0c0,0,0.1,0,0.1-0.1c0,0,0.1,0,0.1,0c0,0,0.1,0,0.1,0
					c0,0,0.1,0,0.2,0c0,0,0,0,0.1,0h0c0.1,0,0.1,0,0.2,0c0,0,0.1,0,0.1,0c0.1,0,0.1,0,0.1,0c0,0,0.1,0,0.1,0c0.1,0,0.1,0.1,0.1,0.1
					c0,0,0,0,0.1,0.1c0,0,0.1,0,0.1,0.1c0,0,0.1,0.1,0.1,0.1c0,0,0,0,0.1,0.1c0,0,0.1,0.1,0.1,0.1l0,0c0,0,0,0,0,0.1
					c0,0,0,0.1,0,0.1c0,0,0,0.1,0,0.1c0,0,0,0.1,0,0.1C479.6,7.4,479.6,7.5,479.7,7.6C479.7,7.5,479.7,7.6,479.7,7.6z"/>
				<path class="st4" d="M482.5,14.1c0-2,0.5-3.8,1.5-5.2c0.9-1.4,2.3-2.4,4.1-2.4c1.7,0,3.1,1,4.1,2.4c0.9,1.4,1.5,3.2,1.5,5.2
					c0,2-0.5,3.8-1.5,5.2c-0.9,1.4-2.4,2.4-4.1,2.4c-1.7,0-3.2-1.1-4.1-2.4C483,17.9,482.5,16,482.5,14.1z M491.1,14.1
					c0-1.6-0.4-3-1.1-3.9c-0.6-0.9-1.4-1.4-2-1.3c-0.7,0-1.4,0.4-2.1,1.3c-0.6,0.9-1.1,2.3-1.1,3.9c0,1.6,0.4,3,1.1,3.9
					c0.7,0.9,1.4,1.4,2.1,1.4c0.7,0,1.4-0.4,2-1.4C490.7,17,491.1,15.6,491.1,14.1z"/>
				<path class="st4" d="M395.6,33.9v12.9c0,0.7-0.6,1.2-1.2,1.2c-0.7,0-1.2-0.5-1.2-1.2V36.1l-0.9,0.5c-0.2,0.1-0.4,0.2-0.6,0.2
					c-0.4,0-0.8-0.2-1-0.6c-0.4-0.5-0.2-1.3,0.4-1.6l2.7-1.6c0,0,0.1,0,0.1,0c0,0,0.1,0,0.1-0.1c0,0,0.1,0,0.1,0c0,0,0.1,0,0.1,0
					c0,0,0.1,0,0.2,0c0,0,0,0,0.1,0h0c0.1,0,0.1,0,0.2,0c0,0,0.1,0,0.1,0c0.1,0,0.1,0,0.1,0c0,0,0.1,0,0.1,0c0.1,0,0.1,0.1,0.1,0.1
					c0,0,0,0,0.1,0.1c0,0,0.1,0,0.1,0.1c0,0,0.1,0.1,0.1,0.1c0,0,0,0,0.1,0.1c0,0,0.1,0.1,0.1,0.1l0,0c0,0,0,0,0,0.1
					c0,0,0,0.1,0,0.1c0,0,0,0.1,0,0.1c0,0,0,0.1,0,0.1C395.5,33.8,395.5,33.8,395.6,33.9C395.6,33.9,395.6,33.9,395.6,33.9z"/>
				<path class="st4" d="M398.4,40.4c0-2,0.5-3.8,1.5-5.2c0.9-1.4,2.3-2.4,4.1-2.4c1.7,0,3.1,1,4.1,2.4c0.9,1.4,1.5,3.2,1.5,5.2
					c0,2-0.5,3.8-1.5,5.2c-0.9,1.4-2.4,2.4-4.1,2.4c-1.7,0-3.2-1.1-4.1-2.4C398.9,44.2,398.4,42.4,398.4,40.4z M407,40.4
					c0-1.6-0.4-3-1.1-3.9c-0.6-0.9-1.4-1.4-2-1.3c-0.7,0-1.4,0.4-2.1,1.3c-0.6,0.9-1.1,2.3-1.1,3.9c0,1.6,0.4,3,1.1,3.9
					c0.7,0.9,1.4,1.4,2.1,1.4c0.7,0,1.4-0.4,2-1.4C406.6,43.3,407,41.9,407,40.4z"/>
				<path class="st4" d="M418.4,33.9v12.9c0,0.7-0.6,1.2-1.2,1.2c-0.7,0-1.2-0.5-1.2-1.2V36.1l-0.9,0.5c-0.2,0.1-0.4,0.2-0.6,0.2
					c-0.4,0-0.8-0.2-1-0.6c-0.4-0.5-0.2-1.3,0.4-1.6l2.7-1.6c0,0,0.1,0,0.1,0c0,0,0.1,0,0.1-0.1c0,0,0.1,0,0.1,0c0,0,0.1,0,0.1,0
					c0,0,0.1,0,0.2,0c0,0,0,0,0.1,0h0c0.1,0,0.1,0,0.2,0c0,0,0.1,0,0.1,0c0.1,0,0.1,0,0.1,0c0,0,0.1,0,0.1,0c0.1,0,0.1,0.1,0.1,0.1
					c0,0,0,0,0.1,0.1c0,0,0.1,0,0.1,0.1c0,0,0.1,0.1,0.1,0.1c0,0,0,0,0.1,0.1c0,0,0.1,0.1,0.1,0.1l0,0c0,0,0,0,0,0.1
					c0,0,0,0.1,0,0.1c0,0,0,0.1,0,0.1c0,0,0,0.1,0,0.1C418.4,33.8,418.4,33.8,418.4,33.9C418.4,33.9,418.4,33.9,418.4,33.9z"/>
				<path class="st4" d="M421.2,40.4c0-2,0.5-3.8,1.5-5.2c0.9-1.4,2.3-2.4,4.1-2.4c1.7,0,3.1,1,4.1,2.4c0.9,1.4,1.5,3.2,1.5,5.2
					c0,2-0.5,3.8-1.5,5.2c-0.9,1.4-2.4,2.4-4.1,2.4c-1.7,0-3.2-1.1-4.1-2.4C421.7,44.2,421.2,42.4,421.2,40.4z M429.8,40.4
					c0-1.6-0.4-3-1.1-3.9c-0.6-0.9-1.4-1.4-2-1.3c-0.7,0-1.4,0.4-2.1,1.3c-0.6,0.9-1.1,2.3-1.1,3.9c0,1.6,0.4,3,1.1,3.9
					c0.7,0.9,1.4,1.4,2.1,1.4c0.7,0,1.4-0.4,2-1.4C429.4,43.3,429.8,41.9,429.8,40.4z"/>
				<path class="st4" d="M436.8,40.4c0-2,0.5-3.8,1.5-5.2c0.9-1.4,2.3-2.4,4.1-2.4c1.7,0,3.1,1,4.1,2.4c0.9,1.4,1.5,3.2,1.5,5.2
					c0,2-0.5,3.8-1.5,5.2c-0.9,1.4-2.4,2.4-4.1,2.4c-1.7,0-3.2-1.1-4.1-2.4C437.3,44.2,436.8,42.4,436.8,40.4z M445.4,40.4
					c0-1.6-0.4-3-1.1-3.9c-0.6-0.9-1.4-1.4-2-1.3c-0.7,0-1.4,0.4-2.1,1.3c-0.6,0.9-1.1,2.3-1.1,3.9c0,1.6,0.4,3,1.1,3.9
					c0.7,0.9,1.4,1.4,2.1,1.4c0.7,0,1.4-0.4,2-1.4C445,43.3,445.4,41.9,445.4,40.4z"/>
				<path class="st4" d="M452.3,40.4c0-2,0.5-3.8,1.5-5.2c0.9-1.4,2.3-2.4,4.1-2.4c1.7,0,3.1,1,4.1,2.4c0.9,1.4,1.5,3.2,1.5,5.2
					c0,2-0.5,3.8-1.5,5.2c-0.9,1.4-2.4,2.4-4.1,2.4c-1.7,0-3.2-1.1-4.1-2.4C452.9,44.2,452.4,42.4,452.3,40.4z M461,40.4
					c0-1.6-0.4-3-1.1-3.9c-0.6-0.9-1.4-1.4-2-1.3c-0.7,0-1.4,0.4-2.1,1.3c-0.6,0.9-1.1,2.3-1.1,3.9c0,1.6,0.4,3,1.1,3.9
					c0.7,0.9,1.4,1.4,2.1,1.4c0.7,0,1.4-0.4,2-1.4C460.6,43.3,461,41.9,461,40.4z"/>
				<path class="st4" d="M472.4,33.9v12.9c0,0.7-0.6,1.2-1.2,1.2c-0.7,0-1.2-0.5-1.2-1.2V36.1l-0.9,0.5c-0.2,0.1-0.4,0.2-0.6,0.2
					c-0.4,0-0.8-0.2-1-0.6c-0.4-0.5-0.2-1.3,0.4-1.6l2.7-1.6c0,0,0.1,0,0.1,0c0,0,0.1,0,0.1-0.1c0,0,0.1,0,0.1,0c0,0,0.1,0,0.1,0
					c0,0,0.1,0,0.2,0c0,0,0,0,0.1,0h0c0.1,0,0.1,0,0.2,0c0,0,0.1,0,0.1,0c0.1,0,0.1,0,0.1,0c0,0,0.1,0,0.1,0c0.1,0,0.1,0.1,0.1,0.1
					c0,0,0,0,0.1,0.1c0,0,0.1,0,0.1,0.1c0,0,0.1,0.1,0.1,0.1c0,0,0,0,0.1,0.1c0,0,0.1,0.1,0.1,0.1l0,0c0,0,0,0,0,0.1
					c0,0,0,0.1,0,0.1c0,0,0,0.1,0,0.1c0,0,0,0.1,0,0.1C472.3,33.8,472.3,33.8,472.4,33.9C472.4,33.9,472.4,33.9,472.4,33.9z"/>
				<path class="st4" d="M475.2,40.4c0-2,0.5-3.8,1.5-5.2c0.9-1.4,2.3-2.4,4.1-2.4c1.7,0,3.1,1,4.1,2.4c0.9,1.4,1.5,3.2,1.5,5.2
					c0,2-0.5,3.8-1.5,5.2c-0.9,1.4-2.4,2.4-4.1,2.4c-1.7,0-3.2-1.1-4.1-2.4C475.7,44.2,475.2,42.4,475.2,40.4z M483.8,40.4
					c0-1.6-0.4-3-1.1-3.9c-0.6-0.9-1.4-1.4-2-1.3c-0.7,0-1.4,0.4-2.1,1.3c-0.6,0.9-1.1,2.3-1.1,3.9c0,1.6,0.4,3,1.1,3.9
					c0.7,0.9,1.4,1.4,2.1,1.4c0.7,0,1.4-0.4,2-1.4C483.4,43.3,483.8,41.9,483.8,40.4z"/>
				<path class="st4" d="M495.2,33.9v12.9c0,0.7-0.6,1.2-1.2,1.2c-0.7,0-1.2-0.5-1.2-1.2V36.1l-0.9,0.5c-0.2,0.1-0.4,0.2-0.6,0.2
					c-0.4,0-0.8-0.2-1-0.6c-0.4-0.5-0.2-1.3,0.4-1.6l2.7-1.6c0,0,0.1,0,0.1,0c0,0,0.1,0,0.1-0.1c0,0,0.1,0,0.1,0c0,0,0.1,0,0.1,0
					c0,0,0.1,0,0.2,0c0,0,0,0,0.1,0h0c0.1,0,0.1,0,0.2,0c0,0,0.1,0,0.1,0c0.1,0,0.1,0,0.1,0c0,0,0.1,0,0.1,0c0.1,0,0.1,0.1,0.1,0.1
					c0,0,0,0,0.1,0.1c0,0,0.1,0,0.1,0.1c0,0,0.1,0.1,0.1,0.1c0,0,0,0,0.1,0.1c0,0,0.1,0.1,0.1,0.1l0,0c0,0,0,0,0,0.1
					c0,0,0,0.1,0,0.1c0,0,0,0.1,0,0.1c0,0,0,0.1,0,0.1C495.1,33.8,495.1,33.8,495.2,33.9C495.2,33.9,495.2,33.9,495.2,33.9z"/>
				<path class="st4" d="M391,66.7c0-2,0.5-3.8,1.5-5.2c0.9-1.4,2.3-2.4,4.1-2.4c1.7,0,3.1,1,4.1,2.4c0.9,1.4,1.5,3.2,1.5,5.2
					c0,2-0.5,3.8-1.5,5.2c-0.9,1.4-2.4,2.4-4.1,2.4c-1.7,0-3.2-1.1-4.1-2.4C391.5,70.6,391,68.7,391,66.7z M399.7,66.7
					c0-1.6-0.4-3-1.1-3.9c-0.6-0.9-1.4-1.4-2-1.3c-0.7,0-1.4,0.4-2.1,1.3c-0.6,0.9-1.1,2.3-1.1,3.9c0,1.6,0.4,3,1.1,3.9
					c0.7,0.9,1.4,1.4,2.1,1.4c0.7,0,1.4-0.4,2-1.4C399.2,69.7,399.7,68.3,399.7,66.7z"/>
				<path class="st4" d="M406.6,66.7c0-2,0.5-3.8,1.5-5.2c0.9-1.4,2.3-2.4,4.1-2.4c1.7,0,3.1,1,4.1,2.4c0.9,1.4,1.5,3.2,1.5,5.2
					c0,2-0.5,3.8-1.5,5.2c-0.9,1.4-2.4,2.4-4.1,2.4c-1.7,0-3.2-1.1-4.1-2.4C407.1,70.6,406.6,68.7,406.6,66.7z M415.3,66.7
					c0-1.6-0.4-3-1.1-3.9c-0.6-0.9-1.4-1.4-2-1.3c-0.7,0-1.4,0.4-2.1,1.3c-0.6,0.9-1.1,2.3-1.1,3.9c0,1.6,0.4,3,1.1,3.9
					c0.7,0.9,1.4,1.4,2.1,1.4c0.7,0,1.4-0.4,2-1.4C414.8,69.7,415.3,68.3,415.3,66.7z"/>
				<path class="st4" d="M426.6,60.2v12.9c0,0.7-0.6,1.2-1.2,1.2c-0.7,0-1.2-0.5-1.2-1.2V62.4l-0.9,0.5c-0.2,0.1-0.4,0.2-0.6,0.2
					c-0.4,0-0.8-0.2-1-0.6c-0.4-0.5-0.2-1.3,0.4-1.6l2.7-1.6c0,0,0.1,0,0.1,0c0,0,0.1,0,0.1-0.1c0,0,0.1,0,0.1,0c0,0,0.1,0,0.1,0
					c0,0,0.1,0,0.2,0c0,0,0,0,0.1,0h0c0.1,0,0.1,0,0.2,0c0,0,0.1,0,0.1,0c0.1,0,0.1,0,0.1,0c0,0,0.1,0,0.1,0c0.1,0,0.1,0.1,0.1,0.1
					c0,0,0,0,0.1,0.1c0,0,0.1,0,0.1,0.1c0,0,0.1,0.1,0.1,0.1c0,0,0,0,0.1,0.1c0,0,0.1,0.1,0.1,0.1l0,0c0,0,0,0,0,0.1
					c0,0,0,0.1,0,0.1c0,0,0,0.1,0,0.1c0,0,0,0.1,0,0.1C426.6,60.1,426.6,60.1,426.6,60.2C426.6,60.2,426.6,60.2,426.6,60.2z"/>
				<path class="st4" d="M429.4,66.7c0-2,0.5-3.8,1.5-5.2c0.9-1.4,2.3-2.4,4.1-2.4c1.7,0,3.1,1,4.1,2.4c0.9,1.4,1.5,3.2,1.5,5.2
					c0,2-0.5,3.8-1.5,5.2c-0.9,1.4-2.4,2.4-4.1,2.4c-1.7,0-3.2-1.1-4.1-2.4C429.9,70.6,429.4,68.7,429.4,66.7z M438.1,66.7
					c0-1.6-0.4-3-1.1-3.9c-0.6-0.9-1.4-1.4-2-1.3c-0.7,0-1.4,0.4-2.1,1.3c-0.6,0.9-1.1,2.3-1.1,3.9c0,1.6,0.4,3,1.1,3.9
					c0.7,0.9,1.4,1.4,2.1,1.4c0.7,0,1.4-0.4,2-1.4C437.6,69.7,438.1,68.3,438.1,66.7z"/>
				<path class="st4" d="M445,66.7c0-2,0.5-3.8,1.5-5.2c0.9-1.4,2.3-2.4,4.1-2.4c1.7,0,3.1,1,4.1,2.4c0.9,1.4,1.5,3.2,1.5,5.2
					c0,2-0.5,3.8-1.5,5.2c-0.9,1.4-2.4,2.4-4.1,2.4c-1.7,0-3.2-1.1-4.1-2.4C445.5,70.6,445,68.7,445,66.7z M453.7,66.7
					c0-1.6-0.4-3-1.1-3.9c-0.6-0.9-1.4-1.4-2-1.3c-0.7,0-1.4,0.4-2.1,1.3c-0.6,0.9-1.1,2.3-1.1,3.9c0,1.6,0.4,3,1.1,3.9
					c0.7,0.9,1.4,1.4,2.1,1.4c0.7,0,1.4-0.4,2-1.4C453.2,69.7,453.7,68.3,453.7,66.7z"/>
				<path class="st4" d="M465,60.2v12.9c0,0.7-0.6,1.2-1.2,1.2c-0.7,0-1.2-0.5-1.2-1.2V62.4l-0.9,0.5c-0.2,0.1-0.4,0.2-0.6,0.2
					c-0.4,0-0.8-0.2-1-0.6c-0.4-0.5-0.2-1.3,0.4-1.6l2.7-1.6c0,0,0.1,0,0.1,0c0,0,0.1,0,0.1-0.1c0,0,0.1,0,0.1,0c0,0,0.1,0,0.1,0
					c0,0,0.1,0,0.2,0c0,0,0,0,0.1,0h0c0.1,0,0.1,0,0.2,0c0,0,0.1,0,0.1,0c0.1,0,0.1,0,0.1,0c0,0,0.1,0,0.1,0c0.1,0,0.1,0.1,0.1,0.1
					c0,0,0,0,0.1,0.1c0,0,0.1,0,0.1,0.1c0,0,0.1,0.1,0.1,0.1c0,0,0,0,0.1,0.1c0,0,0.1,0.1,0.1,0.1l0,0c0,0,0,0,0,0.1
					c0,0,0,0.1,0,0.1c0,0,0,0.1,0,0.1c0,0,0,0.1,0,0.1C465,60.1,465,60.1,465,60.2C465,60.2,465,60.2,465,60.2z"/>
				<path class="st4" d="M472.4,60.2v12.9c0,0.7-0.6,1.2-1.2,1.2c-0.7,0-1.2-0.5-1.2-1.2V62.4l-0.9,0.5c-0.2,0.1-0.4,0.2-0.6,0.2
					c-0.4,0-0.8-0.2-1-0.6c-0.4-0.5-0.2-1.3,0.4-1.6l2.7-1.6c0,0,0.1,0,0.1,0c0,0,0.1,0,0.1-0.1c0,0,0.1,0,0.1,0c0,0,0.1,0,0.1,0
					c0,0,0.1,0,0.2,0c0,0,0,0,0.1,0h0c0.1,0,0.1,0,0.2,0c0,0,0.1,0,0.1,0c0.1,0,0.1,0,0.1,0c0,0,0.1,0,0.1,0c0.1,0,0.1,0.1,0.1,0.1
					c0,0,0,0,0.1,0.1c0,0,0.1,0,0.1,0.1c0,0,0.1,0.1,0.1,0.1c0,0,0,0,0.1,0.1c0,0,0.1,0.1,0.1,0.1l0,0c0,0,0,0,0,0.1
					c0,0,0,0.1,0,0.1c0,0,0,0.1,0,0.1c0,0,0,0.1,0,0.1C472.3,60.1,472.3,60.1,472.4,60.2C472.4,60.2,472.4,60.2,472.4,60.2z"/>
				<path class="st4" d="M475.2,66.7c0-2,0.5-3.8,1.5-5.2c0.9-1.4,2.3-2.4,4.1-2.4c1.7,0,3.1,1,4.1,2.4c0.9,1.4,1.5,3.2,1.5,5.2
					c0,2-0.5,3.8-1.5,5.2c-0.9,1.4-2.4,2.4-4.1,2.4c-1.7,0-3.2-1.1-4.1-2.4C475.7,70.6,475.2,68.7,475.2,66.7z M483.8,66.7
					c0-1.6-0.4-3-1.1-3.9c-0.6-0.9-1.4-1.4-2-1.3c-0.7,0-1.4,0.4-2.1,1.3c-0.6,0.9-1.1,2.3-1.1,3.9c0,1.6,0.4,3,1.1,3.9
					c0.7,0.9,1.4,1.4,2.1,1.4c0.7,0,1.4-0.4,2-1.4C483.4,69.7,483.8,68.3,483.8,66.7z"/>
				<path class="st4" d="M495.2,60.2v12.9c0,0.7-0.6,1.2-1.2,1.2c-0.7,0-1.2-0.5-1.2-1.2V62.4l-0.9,0.5c-0.2,0.1-0.4,0.2-0.6,0.2
					c-0.4,0-0.8-0.2-1-0.6c-0.4-0.5-0.2-1.3,0.4-1.6l2.7-1.6c0,0,0.1,0,0.1,0c0,0,0.1,0,0.1-0.1c0,0,0.1,0,0.1,0c0,0,0.1,0,0.1,0
					c0,0,0.1,0,0.2,0c0,0,0,0,0.1,0h0c0.1,0,0.1,0,0.2,0c0,0,0.1,0,0.1,0c0.1,0,0.1,0,0.1,0c0,0,0.1,0,0.1,0c0.1,0,0.1,0.1,0.1,0.1
					c0,0,0,0,0.1,0.1c0,0,0.1,0,0.1,0.1c0,0,0.1,0.1,0.1,0.1c0,0,0,0,0.1,0.1c0,0,0.1,0.1,0.1,0.1l0,0c0,0,0,0,0,0.1
					c0,0,0,0.1,0,0.1c0,0,0,0.1,0,0.1c0,0,0,0.1,0,0.1C495.1,60.1,495.1,60.1,495.2,60.2C495.2,60.2,495.2,60.2,495.2,60.2z"/>
			</g>
			<g>
				<g>
					<rect x="99.7" y="16.6" class="st5" width="98.6" height="62.9"/>
					<rect x="99.7" y="16.6" class="st5" width="98.6" height="11.9"/>
				</g>
				<g>
					<path class="st6" d="M133.9,67.4l-14.5-12.2c-0.8-0.6-0.8-1.8,0-2.4l14.5-12.2c0.6-0.5,1.5-0.4,2,0.2l0,0
						c0.5,0.6,0.4,1.5-0.2,2l-11.9,10.1c-0.8,0.6-0.8,1.8,0,2.4l11.9,10.1c0.6,0.5,0.7,1.4,0.2,2l0,0
						C135.4,67.8,134.5,67.9,133.9,67.4z"/>
					<path class="st6" d="M162.1,67.2L162.1,67.2c-0.5-0.6-0.4-1.5,0.2-2l11.9-10.1c0.8-0.6,0.8-1.8,0-2.4l-11.9-10.1
						c-0.6-0.5-0.7-1.4-0.2-2l0,0c0.5-0.6,1.4-0.7,2-0.2l14.5,12.2c0.8,0.6,0.8,1.8,0,2.4l-14.5,12.2
						C163.5,67.9,162.6,67.8,162.1,67.2z"/>
					<path class="st6" d="M140.3,73.8L140.3,73.8c-0.7-0.3-1.1-1.1-0.8-1.8l15.1-37.9c0.3-0.7,1.1-1.1,1.8-0.8l0,0
						c0.7,0.3,1.1,1.1,0.8,1.8L142.2,73C141.9,73.7,141.1,74.1,140.3,73.8z"/>
				</g>
				<g>
					<path class="st7" d="M110.9,22.6c0,1.7-1.3,3-3,3c-1.7,0-3-1.3-3-3c0-1.7,1.3-3,3-3C109.5,19.6,110.9,21,110.9,22.6z"/>
					<path class="st6" d="M123.1,22.6c0,1.7-1.3,3-3,3c-1.7,0-3-1.3-3-3c0-1.7,1.3-3,3-3C121.8,19.6,123.1,21,123.1,22.6z"/>
					<path class="st8" d="M135.3,22.6c0,1.7-1.3,3-3,3c-1.7,0-3-1.3-3-3c0-1.7,1.3-3,3-3C134,19.6,135.3,21,135.3,22.6z"/>
				</g>
			</g>
			<g>
				<g>
					<rect x="1.8" y="210.7" class="st5" width="98.6" height="62.9"/>
					<rect x="1.8" y="210.7" class="st5" width="98.6" height="11.9"/>
				</g>
				<g>
					<path class="st7" d="M12.9,216.7c0,1.7-1.3,3-3,3c-1.7,0-3-1.3-3-3c0-1.7,1.3-3,3-3C11.6,213.7,12.9,215.1,12.9,216.7z"/>
					<path class="st6" d="M25.2,216.7c0,1.7-1.3,3-3,3s-3-1.3-3-3c0-1.7,1.3-3,3-3S25.2,215.1,25.2,216.7z"/>
					<path class="st8" d="M37.4,216.7c0,1.7-1.3,3-3,3c-1.7,0-3-1.3-3-3c0-1.7,1.3-3,3-3C36.1,213.7,37.4,215.1,37.4,216.7z"/>
				</g>
				<g>
					<path class="st6" d="M261.8,246.1c0-6.6,5.5-11.9,12.2-11.9c2.9,0,5.6,1,7.7,2.6c0.8,0.7,0.9,1.8,0.3,2.7
						c-0.7,0.8-1.9,1-2.7,0.4c-1.5-1.2-3.3-1.8-5.3-1.8c-2.3,0-4.4,0.9-6,2.4c-1.5,1.5-2.4,3.5-2.4,5.8s0.9,4.3,2.4,5.8
						c1.6,1.5,3.7,2.4,6,2.4c2.1,0,3.8-0.6,5.3-1.8c0.8-0.6,2-0.4,2.7,0.4c0.6,0.8,0.5,2-0.3,2.7c-2.1,1.6-4.7,2.6-7.7,2.6
						C267.4,258,261.9,252.7,261.8,246.1z"/>
					<path class="st6" d="M293.6,248.2h-4.7c-1,0-1.8-0.8-1.8-1.8c0-1,0.8-1.8,1.8-1.8h4.7v-4.6c0-1.1,0.8-1.9,1.9-1.9
						c1,0,1.9,0.8,1.9,1.9v4.6h4.7c1,0,1.8,0.8,1.8,1.8c0,1-0.8,1.8-1.8,1.8h-4.7v4.6c0,1.1-0.9,1.9-1.9,1.9c-1.1,0-1.9-0.8-1.9-1.9
						V248.2z"/>
					<path class="st6" d="M314.2,248.2h-4.7c-1,0-1.8-0.8-1.8-1.8c0-1,0.8-1.8,1.8-1.8h4.7v-4.6c0-1.1,0.8-1.9,1.9-1.9
						c1,0,1.9,0.8,1.9,1.9v4.6h4.7c1,0,1.8,0.8,1.8,1.8c0,1-0.8,1.8-1.8,1.8h-4.7v4.6c0,1.1-0.9,1.9-1.9,1.9c-1.1,0-1.9-0.8-1.9-1.9
						V248.2z"/>
				</g>
			</g>
			<g>
				<g>
					<rect x="507.7" y="118.7" class="st5" width="98.6" height="62.9"/>
					<rect x="507.7" y="118.7" class="st5" width="98.6" height="11.9"/>
				</g>
				<g>
					<path class="st7" d="M518.9,124.8c0,1.7-1.3,3-3,3s-3-1.3-3-3c0-1.7,1.3-3,3-3S518.9,123.1,518.9,124.8z"/>
					<path class="st6" d="M531.1,124.8c0,1.7-1.3,3-3,3c-1.7,0-3-1.3-3-3c0-1.7,1.3-3,3-3C529.8,121.8,531.1,123.1,531.1,124.8z"/>
					<path class="st8" d="M543.3,124.8c0,1.7-1.3,3-3,3s-3-1.3-3-3c0-1.7,1.3-3,3-3S543.3,123.1,543.3,124.8z"/>
				</g>
				<g>
					<path class="st6" d="M260.4,154.2c0-6.6,5.5-11.9,12.2-11.9c2.9,0,5.6,1,7.7,2.6c0.8,0.7,0.9,1.8,0.3,2.7
						c-0.7,0.8-1.9,1-2.7,0.4c-1.5-1.2-3.3-1.8-5.3-1.8c-2.3,0-4.4,0.9-6,2.4c-1.5,1.5-2.4,3.5-2.4,5.8c0,2.3,0.9,4.3,2.4,5.8
						c1.6,1.5,3.7,2.4,6,2.4c2.1,0,3.8-0.6,5.3-1.8c0.8-0.6,2-0.4,2.7,0.4c0.6,0.8,0.5,2-0.3,2.6c-2.1,1.6-4.7,2.6-7.7,2.6
						C266,166.1,260.5,160.7,260.4,154.2z"/>
					<path class="st6" d="M286.3,160.3c0.6-0.7,1.7-0.8,2.4-0.2c1.5,1.2,4,2.6,6.3,2.6c1.7,0,3.1-0.5,4.1-1.2c1-0.7,1.4-1.6,1.4-2.4
						c0-0.4-0.1-0.7-0.3-1.1c-0.2-0.3-0.5-0.7-1-1c-1-0.6-2.6-1.2-4.5-1.6h-0.1c-1.6-0.3-3-0.7-4.3-1.3c-1.3-0.6-2.4-1.4-3.1-2.6
						c-0.5-0.8-0.8-1.7-0.8-2.7c0-2,1.1-3.7,2.7-4.8c1.6-1.1,3.6-1.8,5.7-1.8c3.2,0,5.5,1.6,7.2,2.7c0.8,0.5,1,1.6,0.5,2.4
						c-0.5,0.8-1.6,1-2.4,0.5c-1.7-1.1-3.3-2.1-5.3-2.1c-1.5,0-2.8,0.5-3.7,1.1s-1.3,1.4-1.3,2.1c0,0.4,0.1,0.7,0.2,0.9
						c0.2,0.3,0.5,0.6,0.9,0.9c0.9,0.6,2.4,1.1,4.1,1.5h0.1c1.7,0.3,3.2,0.8,4.6,1.4c1.4,0.7,2.6,1.5,3.3,2.7
						c0.5,0.8,0.8,1.8,0.8,2.8c0,2.1-1.2,3.9-2.8,5.1c-1.6,1.2-3.8,1.9-6.1,1.9c-3.6,0-6.6-1.8-8.5-3.3
						C285.8,162.1,285.7,161,286.3,160.3z"/>
					<path class="st6" d="M308.1,160.3c0.6-0.7,1.7-0.8,2.4-0.2c1.5,1.2,4,2.6,6.3,2.6c1.7,0,3.1-0.5,4.1-1.2c1-0.7,1.4-1.6,1.4-2.4
						c0-0.4-0.1-0.7-0.3-1.1c-0.2-0.3-0.5-0.7-1-1c-1-0.6-2.6-1.2-4.5-1.6h-0.1c-1.6-0.3-3-0.7-4.3-1.3c-1.3-0.6-2.4-1.4-3.1-2.6
						c-0.5-0.8-0.8-1.7-0.8-2.7c0-2,1.1-3.7,2.7-4.8c1.6-1.1,3.6-1.8,5.7-1.8c3.2,0,5.5,1.6,7.2,2.7c0.8,0.5,1,1.6,0.5,2.4
						c-0.5,0.8-1.6,1-2.4,0.5c-1.7-1.1-3.3-2.1-5.3-2.1c-1.5,0-2.8,0.5-3.7,1.1s-1.3,1.4-1.3,2.1c0,0.4,0.1,0.7,0.2,0.9
						c0.2,0.3,0.5,0.6,0.9,0.9c0.9,0.6,2.4,1.1,4.1,1.5h0.1c1.7,0.3,3.2,0.8,4.6,1.4c1.4,0.7,2.6,1.5,3.3,2.7
						c0.5,0.8,0.8,1.8,0.8,2.8c0,2.1-1.2,3.9-2.8,5.1c-1.6,1.2-3.8,1.9-6.1,1.9c-3.6,0-6.6-1.8-8.5-3.3
						C307.6,162.1,307.5,161,308.1,160.3z"/>
				</g>
			</g>
			<path class="st6" d="M90,113.8c-0.5-0.7-0.4-1.7,0-2.4c0.1-0.2,0.2-0.4,0.4-0.6c0.1-0.2,0.2-0.4,0.3-0.6c0.4-0.8,1.1-1.3,2-1.3
				l3-0.1l-0.3-9.6l-3,0.1c-0.9,0-1.7-0.4-2.1-1.2c-0.2-0.4-0.5-0.8-0.8-1.2c-0.5-0.7-0.6-1.6-0.2-2.4l1.4-2.6l-8.5-4.6l-1.4,2.6
				c-0.4,0.8-1.2,1.2-2.1,1.2c-0.5,0-1,0-1.4,0c-0.9,0.1-1.7-0.3-2.2-1.1l-1.6-2.5l-8.2,5.1l1.6,2.5c0.5,0.7,0.4,1.7,0,2.4
				c-0.1,0.2-0.2,0.4-0.4,0.6c-0.1,0.2-0.2,0.4-0.3,0.6c-0.4,0.8-1.1,1.3-2,1.3l-3,0.1l0.3,9.6l2.9-0.1c0.9,0,1.7,0.4,2.1,1.2
				c0.2,0.4,0.5,0.8,0.8,1.2c0.5,0.7,0.6,1.6,0.2,2.4l-1.4,2.6l8.5,4.6l1.4-2.6c0.4-0.8,1.2-1.2,2.1-1.2c0.5,0,1,0,1.4,0
				c0.9-0.1,1.7,0.3,2.2,1.1l1.6,2.5l8.2-5.1L90,113.8z M74.8,111.4c-3.8-2.1-5.3-6.8-3.2-10.7c2.1-3.8,6.8-5.3,10.7-3.2
				c3.8,2.1,5.3,6.8,3.2,10.7S78.7,113.5,74.8,111.4z"/>
			<path class="st6" d="M579.3,237.7c-0.9-0.5-1.4-1.6-1.4-2.6c0-0.3,0-0.6,0-0.9c0-0.3,0-0.6,0-0.9c-0.1-1.1,0.5-2.1,1.4-2.6
				l3.2-1.8l-5.9-10.3l-3.2,1.8c-0.9,0.5-2.1,0.5-3-0.1c-0.5-0.3-1-0.6-1.5-0.9c-0.9-0.5-1.6-1.4-1.6-2.5v-3.6h-11.9v3.6
				c0,1.1-0.6,2-1.6,2.5c-0.5,0.3-1,0.6-1.5,0.9c-0.9,0.6-2,0.6-3,0.1l-3.2-1.8l-5.9,10.3l3.2,1.8c0.9,0.5,1.4,1.5,1.4,2.6
				c0,0.3,0,0.6,0,0.9c0,0.3,0,0.6,0,0.9c0.1,1.1-0.5,2.1-1.4,2.6l-3.2,1.8l5.9,10.3l3.1-1.8c0.9-0.5,2.1-0.5,3,0.1
				c0.5,0.3,1,0.6,1.5,0.9c1,0.5,1.6,1.4,1.6,2.5v3.6h11.9v-3.6c0-1.1,0.6-2,1.6-2.5c0.5-0.3,1-0.6,1.5-0.9c0.9-0.6,2-0.6,3-0.1
				l3.1,1.8l5.9-10.3L579.3,237.7z M561.4,243.9c-5.4,0-9.7-4.4-9.7-9.7c0-5.4,4.4-9.7,9.7-9.7c5.4,0,9.7,4.4,9.7,9.7
				C571.1,239.6,566.7,243.9,561.4,243.9z"/>
			<path class="st6" d="M252.4,46.5c-0.7-0.4-1-1.1-1-1.9c0-0.2,0-0.4,0-0.6c0-0.2,0-0.4,0-0.6c0-0.8,0.3-1.5,1-1.9l2.3-1.3
				l-4.3-7.4l-2.3,1.3c-0.7,0.4-1.5,0.3-2.1-0.1c-0.4-0.2-0.7-0.4-1.1-0.6c-0.7-0.3-1.1-1-1.1-1.8V29h-8.5v2.6
				c0,0.8-0.4,1.5-1.1,1.8c-0.4,0.2-0.7,0.4-1.1,0.6c-0.6,0.4-1.5,0.5-2.1,0.1l-2.3-1.3l-4.3,7.4l2.3,1.3c0.7,0.4,1,1.1,1,1.9
				c0,0.2,0,0.4,0,0.6c0,0.2,0,0.4,0,0.6c0,0.8-0.3,1.5-1,1.9l-2.3,1.3l4.3,7.4l2.3-1.3c0.7-0.4,1.5-0.3,2.1,0.1
				c0.4,0.2,0.7,0.4,1.1,0.6c0.7,0.3,1.1,1,1.1,1.8V59h8.5v-2.6c0-0.8,0.4-1.5,1.1-1.8c0.4-0.2,0.7-0.4,1.1-0.6
				c0.6-0.4,1.5-0.5,2.1-0.1l2.3,1.3l4.3-7.4L252.4,46.5z M239.5,51c-3.9,0-7-3.1-7-7s3.1-7,7-7c3.9,0,7,3.1,7,7S243.4,51,239.5,51z
				"/>
			<path class="st6" d="M63.7,72.6c-0.7-0.4-1-1.1-1-1.9c0-0.2,0-0.4,0-0.6c0-0.2,0-0.4,0-0.6c0-0.8,0.3-1.5,1-1.9l2.3-1.3l-4.3-7.4
				l-2.3,1.3c-0.7,0.4-1.5,0.3-2.1-0.1c-0.4-0.2-0.7-0.4-1.1-0.6c-0.7-0.3-1.1-1-1.1-1.8v-2.6h-8.5v2.6c0,0.8-0.4,1.5-1.1,1.8
				c-0.4,0.2-0.7,0.4-1.1,0.6c-0.6,0.4-1.5,0.5-2.1,0.1L40,58.9l-4.3,7.4l2.3,1.3c0.7,0.4,1,1.1,1,1.9c0,0.2,0,0.4,0,0.6
				s0,0.4,0,0.6c0,0.8-0.3,1.5-1,1.9l-2.3,1.3l4.3,7.4l2.3-1.3c0.7-0.4,1.5-0.3,2.1,0.1c0.4,0.2,0.7,0.4,1.1,0.6
				c0.7,0.3,1.1,1,1.1,1.8v2.6h8.5v-2.6c0-0.8,0.4-1.5,1.1-1.8c0.4-0.2,0.7-0.4,1.1-0.6c0.6-0.4,1.5-0.5,2.1-0.1l2.3,1.3l4.3-7.4
				L63.7,72.6z M50.9,77.1c-3.9,0-7-3.1-7-7s3.1-7,7-7c3.9,0,7,3.1,7,7S54.7,77.1,50.9,77.1z"/>
			<g>
				<g>
					<path class="st7" d="M510,231.9c0,0-18-12-24.3-35.2c-6.2-23.2-9.7-72.6-9.7-72.6s34.9,42.1,38.9,67.6
						C519.1,217.1,510,231.9,510,231.9z"/>
					<path class="st7" d="M533.5,248.5c0,0-2.9-26.1,9.1-47.4c12.1-21.4,52.8-35.7,52.8-35.7s-24.4,46.3-35.7,59.6
						C548.5,238.1,533.5,248.5,533.5,248.5z"/>
					<path class="st7" d="M532.2,310.7c0,0,2.2-22.1,9.4-35.9c7.2-13.8,33.1-33.4,46.2-38.6C587.8,236.2,571.6,298.9,532.2,310.7z"
						/>
					<path class="st7" d="M506.9,291.7c0,0-18.8-11.5-28.9-32.2c-10.2-20.7-12.3-49.9-12.3-49.9S511.2,246.5,506.9,291.7z"/>
					<path class="st9" d="M525,377.4c-4.1-16.8-5.8-34.1-6-51.3c-0.1-8.6,0.4-17.3,1.3-25.9c0.9-8.6,2.3-17.2,4.2-25.6
						c2-8.4,4.5-16.7,7.6-24.8l2.3-6c0.8-2,1.7-4,2.5-6l1.3-3c0.4-1,0.9-2,1.4-2.9c0.9-1.9,1.8-3.9,2.8-5.9
						c3.8-7.7,8.1-15.3,12.9-22.5c1.2-1.8,2.5-3.5,3.7-5.3c1.3-1.7,2.6-3.4,4-5.1c2.8-3.3,5.7-6.5,9-9.3c-1.6,1.4-3.1,3-4.5,4.6
						c-0.7,0.8-1.4,1.6-2.1,2.5c-0.7,0.8-1.4,1.7-2,2.5c-1.3,1.7-2.6,3.5-3.8,5.2c-1.2,1.8-2.4,3.6-3.6,5.4
						c-4.6,7.3-8.7,14.8-12.4,22.6c-0.9,1.9-1.8,3.9-2.6,5.9l-1.3,2.9l-1.2,3c-0.8,2-1.7,4-2.4,6l-2.3,6c-3,8-5.5,16.3-7.4,24.6
						c-4,16.7-5.7,33.9-5.9,51.1c-0.1,8.6,0.2,17.2,1,25.8C522.1,360.4,523.2,369,525,377.4z"/>
					<path class="st9" d="M492.5,167.1c2.7,7.7,5.1,15.6,7.5,23.4c2.3,7.9,4.5,15.8,6.6,23.7c1,4,2.1,7.9,3,12l1.4,6l1.3,6
						c1.6,8,3.2,16.1,4.2,24.3c1,8.2,1.8,16.3,2.4,24.5c0.6,8.2,1.3,16.4,1.6,24.6c0.4,8.2,0.8,16.4,1,24.6
						c0.2,8.2,0.4,16.4,0.4,24.6c-0.4-8.2-0.8-16.4-1.4-24.6c-0.5-8.2-1-16.4-1.6-24.5c-1.2-16.3-2.4-32.7-4.5-48.9
						c-2-16.2-5.6-32.2-9.4-48.2c-1.9-8-3.9-15.9-6.1-23.8C497,182.8,494.8,175,492.5,167.1z"/>
					<path class="st9" d="M561.1,264.6c-4,6.2-7.9,12.4-11.8,18.6c-3.9,6.2-7.7,12.5-11.3,18.8c-3.7,6.3-7.1,12.8-10.3,19.4
						c-1.5,3.3-3,6.7-4.2,10.1c-1.2,3.4-2.2,7-2.3,10.7c-0.1-1.8-0.1-3.7,0.2-5.5l0.2-1.4l0.3-1.4l0.3-1.4l0.4-1.3
						c1-3.6,2.3-7,3.7-10.4c1.4-3.4,3-6.7,4.7-10c1.7-3.3,3.5-6.5,5.3-9.7c1.9-3.2,3.7-6.3,5.7-9.5c2-3.1,4-6.2,6-9.2
						C552.2,276.3,556.5,270.4,561.1,264.6z"/>
					<path class="st9" d="M485.1,244c4.6,8.1,8.9,16.3,12.8,24.7c4,8.4,7.7,16.9,11,25.6c3.3,8.7,6.3,17.5,8.6,26.5
						c1.1,4.5,2.1,9.1,2.7,13.7c0.6,4.6,0.9,9.3,0.5,13.9c0-4.6-0.5-9.2-1.4-13.8c-0.8-4.5-2-9-3.2-13.5c-1.3-4.4-2.7-8.8-4.2-13.2
						c-1.5-4.4-3.1-8.7-4.7-13c-1.6-4.3-3.4-8.6-5.1-12.9c-1.7-4.3-3.6-8.5-5.4-12.8C492.8,260.9,489,252.4,485.1,244z"/>
				</g>
				<g>
					<polygon class="st8" points="543.4,322.8 543,328 543,328.2 542.9,329.5 542.9,329.6 542.9,329.7 542.8,331 542.8,331.3 
						542.8,332.6 542.7,332.8 542,343.9 542,344.2 541.9,345.5 541.9,345.8 541.9,346.2 541.8,347 541.8,347.3 541.7,348.5 
						541.7,348.8 539.2,389.1 502.4,389.1 499.9,349.4 499.9,348.9 499.8,347.9 499.8,347.4 499.7,346.4 499.7,346.2 499.7,345.9 
						499.6,344.9 499.6,344.3 498.8,332 498.8,331.6 498.7,330.5 498.7,330.1 498.6,329.6 498.6,329 498.6,328.6 498.5,327.4 
						498.5,327.1 498.2,322.8 					"/>
					<g>
						<polygon class="st9" points="542.9,329.6 542.9,329.7 542.8,331 542.8,331.3 542.8,332.6 542.7,332.8 542,343.9 542,344.2 
							541.9,345.5 541.9,345.8 541.9,346.2 499.7,346.2 499.7,345.9 499.6,344.9 499.6,344.3 498.8,332 498.8,331.6 498.7,330.5 
							498.7,330.1 498.6,329.6 						"/>
					</g>
					<rect x="494.8" y="320.5" class="st8" width="52.1" height="12.8"/>
				</g>
			</g>
			
				<pattern  id="SVGID_1_" xlink:href="#Nueva_muestra_de_motivo_17" patternTransform="matrix(2.394600e-02 0 0 2.394600e-02 -7509.7612 -7646.5757)">
			</pattern>
			<polygon class="st10" points="27.6,162.9 27.6,117.3 74.1,162.9 			"/>
			
				<pattern  id="SVGID_2_" xlink:href="#Nueva_muestra_de_motivo_17" patternTransform="matrix(2.394600e-02 0 0 2.394600e-02 -7509.7612 -7646.5757)">
			</pattern>
			<circle class="st11" cx="525.1" cy="65.7" r="10.2"/>
			
				<pattern  id="SVGID_3_" xlink:href="#Nueva_muestra_de_motivo_17" patternTransform="matrix(2.563100e-02 0 0 2.563100e-02 -7506.4185 -7635.6406)">
			</pattern>
			<path class="st12" d="M585.4,104.9c0,5-1.3,9.7-3.6,13.8h-49.7c-2.3-4.1-3.6-8.8-3.6-13.8c0-15.7,12.7-28.4,28.4-28.4
				C572.7,76.5,585.4,89.2,585.4,104.9z"/>
		</g>
		<g>
			<path class="st3" d="M477.7,405.6c0,9.5-71.8,17.2-160.4,17.2c-26.7,0-51.8-0.7-74-1.9c0,0.1,0.1,0.3,0.1,0.4
				c0,8.1-53.8,14.6-120.2,14.6S3,429.3,3,421.2c0-8.1,53.8-14.6,120.2-14.6c12,0,23.5,0.2,34.4,0.6c-0.5-0.5-0.8-1.1-0.8-1.7
				c0-9.5,71.8-17.2,160.4-17.2S477.7,396.1,477.7,405.6z"/>
			<g>
				<g>
					<g>
						<path class="st9" d="M353.7,72.8c-2.6,2.1-5.1,3.8-7.6,5.1c4-7.2,2.9-23.3,2.4-21c-2.1,11-8.7,23.2-11.3,23.9c0,0,0,0,0,0
							c-7,1.1-13.5-0.6-18.9-3.4c0,0,0,0,0,0c5.2-8.2,4.5-24.5,4.2-23.5c-3.7,10.8-11.7,17.2-13.2,17.3h0c-5.4-4.9-8.4-9.9-7.7-10.4
							c5.4-3.9,9.8-13.6,13.7-23.9v0c3.9-10.1,7.3-20.8,10.7-26.8c0,0,0,0,0,0c0,0,0,0,0,0c0.1-0.2,0.2-0.3,0.3-0.5
							C333.5-2.4,344-0.3,350.6,3C372.9,14.3,357.1,70,353.7,72.8z"/>
						<path class="st9" d="M335.1,2.5c-4.4,1.2-7.9,5.3-10.1,9.1c-2.9,5.1-4.8,10.7-7.2,16.1c-4.7,10.5-10.7,20.3-18.4,28.8
							c-0.2,0.2,0.1,0.4,0.3,0.3c8.4-6.7,14-16.1,18.5-25.8c2.3-4.9,4.1-10.1,6.3-15.1c1.2-2.7,2.6-5.4,4.5-7.7c1.8-2.2,4-3.6,6.4-5
							C335.8,3,335.5,2.4,335.1,2.5z"/>
					</g>
					<g>
						<path class="st13" d="M354.4,39.8c-7.5,3.7-12.7,40.2-17,42.2c-7.3,3.4-25.2,0.1-31.5,0.9c-3.9,0.5-14,14.3-11.7,17
							c2.3,2.8,44.5,7.9,54.9,3.3c5.9-2.6,11.2-27.9,12-39C362,53.1,357.9,38.1,354.4,39.8z"/>
						<path class="st14" d="M352.9,103.5c-0.3,0.4-0.7,0.8-1,1.1c-6.9,6.4-50,4.7-52.1,2.8c-2.2-1.9-0.9-4.8-0.9-4.8l10.9-18.8
							c0,0,1.5-2.9,5.2-2.7c3.7,0.2,18.9,2.1,22.3,0.4c3.4-1.7,7.1-31.5,15.9-41.5c1.2-1.4,2.4-1.4,3.5-0.6c3.1,2.4,5.4,12.4,5.6,20
							C362.6,69.1,359.2,95.5,352.9,103.5z"/>
						<path class="st14" d="M312.1,81.5L299.7,105c0,0-6-3.8-6-3.9c0-0.1,10.4-19.8,10.9-20C305.1,80.9,312.1,81.5,312.1,81.5z"/>
						<path class="st9" d="M300.1,104.5c2-3.5,10.6-18.3,12-22.5c0.1-0.1-0.2-0.3-0.3-0.1c-2.3,3.5-10.3,18.4-12.1,22.5
							C299.7,104.7,299.9,104.8,300.1,104.5z"/>
						<path class="st9" d="M352.9,103.5l-4.3-43.3l8-20.8c3.1,2.4,5.4,12.4,5.6,20C362.6,69.1,359.2,95.5,352.9,103.5z"/>
					</g>
					<g>
						<path class="st14" d="M355.4,37.4c-2.4,5.1-8.4,27.4-6.2,33.4c2.2,6,8.9,8.1,8.9,8.1s4.9,24.4,7.9,26.9
							c3,2.5,35.6,3.4,47.6-18.3c2.3-4.2-15-35.6-27.7-46.1C376.4,33.7,361.2,25.2,355.4,37.4z"/>
						<path class="st9" d="M379.5,69.9c-2.2,2.1-4.1,4.3-7.1,5.2c-3,1-6.3,0.9-9.4,1.3c-0.1,0-0.1,0.1,0,0.1c3.6,0,7.3,0.5,10.7-0.8
							c2.7-1,4.5-3.1,6.1-5.5C380.1,69.9,379.7,69.7,379.5,69.9z"/>
						<path class="st9" d="M366.7,77.1c-2.3,0.1-4.7,0.7-6.9,1.2c-0.1,0-0.1,0.2,0,0.2c2.3-0.2,4.8-0.4,7-1.1
							C366.9,77.4,366.9,77.1,366.7,77.1z"/>
						<path class="st9" d="M358.4,78.7C358.4,78.7,358.4,78.6,358.4,78.7c0-0.2-0.1-0.3-0.2-0.3c-5.1-1.9-9-5.9-9.2-11.6
							c-0.2-5.8,0.6-9.1,2.1-14.6c0-0.1-0.1-0.2-0.2,0c-2.6,6.3-3.2,14.2-2.5,17.4c1,4.7,5,8,9.4,9.4c0.3,1.4,0.6,3,1,4.4
							c0.1,0.2,0.3,0.1,0.3,0C359.1,81.7,358.8,80.2,358.4,78.7z"/>
						<polygon class="st9" points="377.1,53.2 399.9,87.1 407,69.8 						"/>
					</g>
					<path class="st13" d="M352.8,39.2c0,0-2,4-2.2,5c0,0,2.6,4.6,9.1,2.5c6.5-2.1,7.6-15.2,7.6-15.2s-4.7-1-8.1,0.6
						C355.9,33.6,352.8,39.2,352.8,39.2z"/>
					<g>
						<g>
							<path class="st13" d="M358.3,45.1c-2.1,0.8-4.6-4.1-5.4-5.9c-0.2-0.4-0.3-0.7-0.3-0.7l-0.1-0.1L352,38l-6.2-6.5l5.5-11
								l0.8-1.5c0,0,1.7,2.1,3.8,4.6c0.1,0.1,0.2,0.3,0.3,0.4c0.3,0.4,0.6,0.7,0.9,1.1c0.2,0.3,0.4,0.5,0.7,0.8
								c0.2,0.3,0.5,0.6,0.7,0.9c2.2,3,4.3,6.2,4.4,6.6C363.3,34.4,362.7,43.3,358.3,45.1z"/>
							<path class="st9" d="M352.8,39.2c-0.2-0.4-0.3-0.7-0.3-0.7l-0.1-0.1L352,38l-6.2-6.5l5.5-11l0.8-1.5c0,0,1.7,2.1,3.8,4.6
								C356.8,27,358.2,35.3,352.8,39.2z"/>
						</g>
						<g>
							<path class="st13" d="M328.7,23.4c3.9,15.4,14.1,14.2,16.8,14c3.1-0.2,13.2-3.7,10.9-19.4c-2.2-15.7-10.6-18.8-17.6-17.4
								C331.9,1.9,324.9,8,328.7,23.4z"/>
							<g>
								<path class="st9" d="M331,20.3c0.3-0.2,0.6-0.4,0.9-0.5c0.4-0.2,0.7-0.3,0.9-0.7c0.1-0.2,0-0.5-0.2-0.7
									c-0.5-0.3-1-0.1-1.4,0.1c-0.5,0.3-0.8,0.6-1,1.1C329.9,20.1,330.5,20.5,331,20.3z"/>
								<path class="st9" d="M341.5,17.2c-0.4,0.1-0.7,0.1-1.1,0.1c-0.4,0-0.7,0.1-1.1-0.1c-0.2-0.1-0.3-0.4-0.2-0.7
									c0.2-0.5,0.7-0.7,1.2-0.7c0.5-0.1,1,0,1.5,0.3C342.2,16.4,342,17.1,341.5,17.2z"/>
								<g>
									<g>
										<path class="st9" d="M340.7,21.7c0,0,0.1,0,0.1,0.1c0.3,1,0.8,2.2,1.8,2.3c0,0,0,0.1,0,0.1
											C341.5,24.3,340.8,22.7,340.7,21.7z"/>
										<path class="st9" d="M341.3,20.3c1.6-0.6,2.8,2.7,1.3,3.3C341.1,24.1,340,20.9,341.3,20.3z"/>
									</g>
									<path class="st9" d="M342,20.3c0.4,0.1,0.7,0.3,1.1,0.2c0.4-0.1,0.6-0.5,0.7-1c0,0,0.1,0,0.1,0c0.2,0.6,0.2,1.4-0.4,1.7
										c-0.6,0.3-1.2-0.1-1.6-0.7C341.9,20.5,341.9,20.2,342,20.3z"/>
								</g>
								<g>
									<g>
										<path class="st9" d="M334.2,23.4c0,0-0.1,0.1,0,0.1c0.4,1,0.7,2.2-0.1,2.9c0,0,0,0.1,0,0.1
											C335.1,25.9,334.7,24.3,334.2,23.4z"/>
										<path class="st9" d="M332.9,22.7c-1.7,0.5-0.7,3.8,0.9,3.4C335.3,25.6,334.3,22.3,332.9,22.7z"/>
									</g>
									<path class="st9" d="M332.3,23.1c-0.2,0.3-0.4,0.7-0.7,0.8c-0.4,0.1-0.7-0.1-1.1-0.4c0,0-0.1,0,0,0.1
										c0.2,0.6,0.6,1.2,1.2,1.2c0.6-0.1,0.8-0.7,0.8-1.4C332.5,23.2,332.3,23,332.3,23.1z"/>
								</g>
								<path class="st9" d="M342.9,29.7c-0.1,0.3-0.3,0.7-0.6,0.9c-0.3,0.2-0.8,0.2-1.2,0.2c0,0-0.1,0,0,0.1c0.4,0.3,1.1,0.3,1.5,0
									c0.4-0.3,0.5-0.7,0.4-1.2C343,29.6,342.9,29.6,342.9,29.7z"/>
								<g>
									<path class="st9" d="M337.4,27.4c0,0,0.3,1.6,0.5,2.3c0,0.1,0.2,0,0.5,0c0,0,0,0,0,0c1.3-0.2,2.5-1.1,2.9-2.4
										c0-0.1-0.1-0.1-0.1-0.1c-0.7,1-1.7,1.5-2.8,1.9c-0.1-0.2-0.4-2.8-0.5-2.7c-0.4,0.1-1.1,0.6-1.5,0.9
										c-0.7-3.3-0.9-6.7-1.6-10c0-0.1-0.2-0.1-0.2,0c-0.1,3.6,0.7,7.4,1.3,10.9C335.9,28.7,337.2,27.6,337.4,27.4z"/>
								</g>
								<g>
									<path class="st9" d="M338.3,29.1c0,0,0.9,0.8,2,1c0.4,0.1,0.8,0,1.2-0.2c0.8-0.4,0.7-1.2,0.4-1.8c-0.2-0.5-0.6-0.9-0.6-0.9
										S340.3,28.6,338.3,29.1z"/>
									<path class="st7" d="M340.3,30.1c0.4,0.1,0.8,0,1.2-0.2c0.8-0.4,0.7-1.2,0.4-1.8C341,28.4,340.2,29.2,340.3,30.1z"/>
								</g>
							</g>
							<g>
								<path class="st9" d="M355,19.8c-1.6,0-3.3-4.1-3.3-4.1s-5.9,0.1-11.2-3.3c-3.8-2.4-5.4-5.1-5.4-5.1
									c-0.9,9.1-7.6,12.4-7.6,12.4s-2.4-6.7,0.1-11.2c2.4-4.5,8-10.2,17.3-8c0,0,6.8,1.3,9.4,6.2C357,11.6,357.1,19.8,355,19.8z"
									/>
								<path class="st9" d="M334.7,6.3C334.7,6.2,334.8,6.2,334.7,6.3c1.1,4.1,4.9,6.5,8.7,7.9c3.5,1.3,6.8,1.4,10.5,1.1
									c0.1,0,0.1,0.1,0,0.2c-3.7,0.8-8,0.1-11.4-1.3C339,12.7,335.4,10.2,334.7,6.3z"/>
							</g>
							<g>
								<g>
									<path class="st13" d="M354.4,20.4c0,0,1.7-5.8,4.2-5.4c2.5,0.4,2.4,8.1,0.2,9.9c-2.2,1.8-3.9-0.2-3.9-0.2L354.4,20.4z"/>
									<path class="st9" d="M358.5,17.2C358.6,17.2,358.6,17.2,358.5,17.2c-1.5,1.4-1.8,3.3-1.9,5.2c0.3-0.8,0.9-1.4,2-1.1
										c0.1,0,0,0.1,0,0.1c-0.8,0.1-1.2,0.4-1.5,1.1c-0.2,0.5-0.3,1.1-0.3,1.7c0,0.2-0.3,0.2-0.3,0c0,0,0,0,0,0
										C355.5,21.9,356.2,18.2,358.5,17.2z"/>
								</g>
								<path class="st15" d="M357.6,24.1c1.6-0.5,2.4,1.9,0.8,2.4C356.9,27.1,356.1,24.7,357.6,24.1z"/>
							</g>
						</g>
					</g>
					<g>
						<ellipse class="st8" cx="298.1" cy="49.6" rx="24" ry="17.7"/>
						<polygon class="st8" points="311.2,37.6 322.9,34.6 318.6,44.3 						"/>
						<g>
							<path class="st9" d="M289.5,49.6c0-1.4-1.1-2.5-2.5-2.5c-1.4,0-2.5,1.1-2.5,2.5c0,1.4,1.1,2.5,2.5,2.5
								C288.3,52,289.5,50.9,289.5,49.6z"/>
							<path class="st9" d="M300.6,49.6c0-1.4-1.1-2.5-2.5-2.5s-2.5,1.1-2.5,2.5c0,1.4,1.1,2.5,2.5,2.5S300.6,50.9,300.6,49.6z"/>
							<path class="st9" d="M311.7,49.6c0-1.4-1.1-2.5-2.5-2.5c-1.4,0-2.5,1.1-2.5,2.5c0,1.4,1.1,2.5,2.5,2.5
								C310.6,52,311.7,50.9,311.7,49.6z"/>
						</g>
					</g>
				</g>
				<g>
					<path class="st9" d="M494.4,103.2v226.6c0,9-7.2,16.2-16.2,16.2H162.5c-9,0-16.2-7.2-16.2-16.2V103.2c0-9,7.2-16.2,16.2-16.2
						h315.6C487.1,87,494.4,94.3,494.4,103.2z"/>
					<rect x="163.9" y="103.9" class="st16" width="312.9" height="186"/>
					<path class="st6" d="M494.4,307.8v22c0,9-7.2,16.2-16.2,16.2H162.5c-9,0-16.2-7.2-16.2-16.2v-22H494.4z"/>
					<path class="st4" d="M394.6,405.1H246.1v-2.5c0-5.5,4.5-9.9,9.9-9.9h128.6c5.5,0,9.9,4.5,9.9,9.9V405.1z"/>
					<g>
						<polygon class="st6" points="376.9,392.7 263.8,392.7 266.7,371.2 266.8,370.2 267.1,368.2 267.2,367.2 267.5,365.1 
							267.5,364.8 267.6,364.1 267.9,362.1 268,361.1 270,346 370.7,346 372.6,360.2 372.6,360.9 373,363.3 373,364 373.2,364.8 
							373.4,366.3 373.5,367 373.8,369.3 373.9,370 						"/>
					</g>
					<rect x="163.9" y="103.9" class="st17" width="312.9" height="10.1"/>
					<g>
						<rect x="183.1" y="143.8" class="st6" width="84.5" height="60.7"/>
						<path class="st16" d="M260.4,175.5c0,9.5-7.7,17.2-17.2,17.2c-5.6,0-10.6-2.7-13.8-6.9h7.5v-12.2h-10.8
							c0.9-8.6,8.2-15.3,17.1-15.3C252.7,158.3,260.4,166,260.4,175.5z"/>
						<path class="st16" d="M229.4,185.8h-36.7v-12.2h33.4c-0.1,0.6-0.1,1.2-0.1,1.9C226,179.3,227.3,182.9,229.4,185.8z"/>
					</g>
					<g>
						<rect x="278.9" y="214.8" class="st5" width="177.6" height="57.8"/>
						<line class="st5" x1="278.9" y1="214.8" x2="456.4" y2="272.7"/>
						<line class="st5" x1="456.4" y1="214.8" x2="278.9" y2="272.7"/>
					</g>
					<g>
						<rect x="278.9" y="143.8" class="st4" width="81.8" height="3"/>
						<rect x="278.9" y="150.8" class="st4" width="81.8" height="3"/>
						<rect x="278.9" y="157.8" class="st4" width="81.8" height="3"/>
						<rect x="278.9" y="164.9" class="st4" width="81.8" height="3"/>
						<rect x="278.9" y="171.9" class="st4" width="47.5" height="3"/>
						<rect x="278.9" y="178.9" class="st4" width="81.8" height="3"/>
						<rect x="278.9" y="186" class="st4" width="81.8" height="3"/>
						<rect x="278.9" y="193" class="st4" width="81.8" height="3"/>
						<rect x="278.9" y="200" class="st4" width="61.8" height="3"/>
					</g>
					<g>
						<rect x="183.2" y="214.8" class="st14" width="84.4" height="57.8"/>
						<g>
							<rect x="190.4" y="267.6" class="st16" width="5.1" height="5.1"/>
							<rect x="201.2" y="252.9" class="st7" width="5.1" height="19.7"/>
							<rect x="212.1" y="243.8" class="st17" width="5.1" height="28.9"/>
							<rect x="222.9" y="230.5" class="st8" width="5.1" height="42.2"/>
							<rect x="233.7" y="220.1" class="st18" width="5.1" height="52.6"/>
							<rect x="244.5" y="259.3" class="st16" width="5.1" height="13.4"/>
							<rect x="255.3" y="242.2" class="st7" width="5.1" height="30.5"/>
						</g>
					</g>
					<g>
						<polygon class="st8" points="455.4,209.1 371.9,197.8 381.6,137.7 465.1,149 						"/>
						<polygon class="st7" points="448.8,201.2 419.4,197.2 440.3,156.7 						"/>
						<polygon class="st7" points="414.9,188 385.5,184 403.9,161.7 						"/>
					</g>
					<g>
						<path class="st7" d="M171.9,108.9c0,1.4-1.1,2.5-2.5,2.5c-1.4,0-2.5-1.1-2.5-2.5c0-1.4,1.1-2.5,2.5-2.5
							C170.8,106.4,171.9,107.5,171.9,108.9z"/>
						<path class="st16" d="M182.1,108.9c0,1.4-1.1,2.5-2.5,2.5c-1.4,0-2.5-1.1-2.5-2.5c0-1.4,1.1-2.5,2.5-2.5
							C181,106.4,182.1,107.5,182.1,108.9z"/>
						<path class="st8" d="M192.3,108.9c0,1.4-1.1,2.5-2.5,2.5c-1.4,0-2.5-1.1-2.5-2.5c0-1.4,1.1-2.5,2.5-2.5
							C191.1,106.4,192.3,107.5,192.3,108.9z"/>
					</g>
					<rect x="344" y="124.1" class="st6" width="112.5" height="10"/>
					<rect x="183.1" y="124.1" class="st14" width="10" height="10"/>
					<rect x="196.9" y="124.1" class="st8" width="10" height="10"/>
					<rect x="210.6" y="124.1" class="st7" width="10" height="10"/>
					<rect x="238.5" y="124.1" class="st6" width="49.1" height="10"/>
					<path class="st4" d="M326.5,324.4c0,3.5-2.8,6.3-6.3,6.3c-3.5,0-6.3-2.8-6.3-6.3c0-3.5,2.8-6.3,6.3-6.3
						C323.7,318.1,326.5,320.9,326.5,324.4z"/>
					<g>
						<polygon class="st9" points="373.2,364.8 267.5,364.8 267.6,364.1 267.9,362.1 268,361.1 270,346 370.7,346 372.6,360.2 
							372.6,360.9 373,363.3 373,364 						"/>
					</g>
				</g>
				<g>
					<path class="st13" d="M310.4,84.6c-3.5-0.9-8.3-4-11-3.8c-2.4,0.2-2.9,2.3-2.9,2.3s-1.8-2.4-4.2-1.8c-1.2,0.3-1.9,2.5-1.9,2.5
						s-1.5-1.8-3.7-1.2c-1.7,0.5-2.1,2.7-2.1,2.7s-2.3-1.1-3.9,0c-3.1,2.2-0.3,17.1,5.6,18.3c2.8,0.6,1.9-3,1.9-3s2.5,4.9,5.6,4.3
						c3.1-0.5,1.6-5.1,1.6-5.1s2.5,4.7,5.6,3.8c3.3-0.9,1-5.2,1-5.2s2.9,2.9,5.1,1.7c3.7-2-3.1-9.2-3-12.6h6L310.4,84.6z"/>
					<path class="st13" d="M305.1,82.5c3.4,0.6,6.6-4.1,9.9-4.1c4.5,0.1,1.1,7.7-5.1,9.1h-4.8V82.5z"/>
					<g>
						<path class="st9" d="M284.6,85.7C284.6,85.6,284.5,85.6,284.6,85.7c-0.3,5.1,1,10.8,3.8,15.1c0.1,0.1,0.4,0.1,0.3-0.1
							C286.6,95.7,285.2,91.1,284.6,85.7z"/>
						<path class="st9" d="M290.4,83.8c0-0.1-0.1,0-0.1,0c-0.2,5.3,1.4,11.7,5.3,16.3c0.1,0.2,0.4,0.2,0.3,0
							C293.5,96.8,290.9,88.6,290.4,83.8z"/>
						<path class="st9" d="M302.7,98.7c-3.5-4.5-5.2-9.8-6.2-15.4c0-0.1-0.1,0-0.1,0c-0.3,2.9,0.7,6.4,1.7,9c1,2.6,2.3,4.7,4.4,6.4
							C302.6,98.9,302.7,98.8,302.7,98.7z"/>
					</g>
				</g>
				<g>
					<path class="st13" d="M370.7,33.6c8.1-0.4,37.3,13.9,51.9,30.5c10.3,11.6-5.4,62.9-8.8,63.8c-3.4,0.9-19.2-2.7-21.7-5.4
						c-2.5-2.8,12.6-45,11.4-47.6c-1.2-2.5-17.6-13.8-27.8-24.7C369.9,43.9,364.9,33.9,370.7,33.6z"/>
					<g>
						<path class="st13" d="M393.6,111.8c-0.6,2.3-5.6,17.9-5.7,22c-0.1,4.2,1.8,15.5,5,15.9c3.2,0.4,3.3-3.1,3.3-3.1s1,5,4.3,5.1
							c3.2,0.1,3.2-5.4,3.2-5.4s1.4,5.1,4.7,5c3.2-0.1,2.3-5.6,2.3-5.6s2.3,4.5,4.9,3.3c3.2-1.5-1-12.5-1.1-13.6
							c-0.1-1,4.8-8,2.8-14.4l2.4-7.2L393.6,111.8z"/>
						<g>
							<path class="st9" d="M410.7,145.4c-2.6-6.1-2.7-9.2-1.7-15.6c0-0.1-0.2-0.2-0.2-0.1c-1.6,6.2-2,10.1,1.6,15.8
								C410.6,145.9,410.8,145.7,410.7,145.4z"/>
							<path class="st9" d="M403.8,146.6c-2.2-6.5-2.3-9.9-1.7-16.7c0-0.1-0.2-0.1-0.2,0c-1.1,6.6-1.5,10.6,1.6,16.8
								C403.6,146.9,403.9,146.9,403.8,146.6z"/>
							<path class="st9" d="M396.2,146.5c-1.6-6.5-2-10.2-0.6-16.7c0-0.2-0.2-0.2-0.2-0.1c-2.1,6.5-1.7,11.1,0.6,16.8
								C396.1,146.9,396.3,146.9,396.2,146.5z"/>
						</g>
					</g>
					<g>
						<path class="st14" d="M369.6,42.3c7.5,14,32.3,30.3,32.8,32.3c0.5,2-10,24.6-10.3,29.2c-0.3,4.6,2,6.3,2,6.3l25.8,3
							c0,0,3.9,0.7,6.9-6.4c3-7.1,3.1-33.2-2-40.7c-5.1-7.5-22-24-49.8-32.3C368.1,31.5,364.9,33.6,369.6,42.3z"/>
						<path class="st14" d="M394,110l26.4,3c0,0-1.9,6.9-2,7c-0.1,0.1-26.1-3-26.5-3.4C391.5,116.2,394,110,394,110z"/>
						<path class="st9" d="M419.8,112.8c-4-0.6-20.9-3.2-25.4-3c-0.2,0-0.2,0.2,0,0.3c4.1,0.9,20.9,2.9,25.3,3
							C420.1,113.2,420.2,112.9,419.8,112.8z"/>
					</g>
				</g>
				<path class="st9" d="M369.5,34.4c-1.1,4.7-2.2,10.6-6.3,13.4c-4.2,2.9-9.6,2.2-13.3-1.3c0,0-0.1,0-0.1,0.1
					c3.3,4,8.5,5.2,12.9,2.7c4.8-2.7,6.3-9.4,7-14.8C369.8,34.3,369.5,34.2,369.5,34.4z"/>
			</g>
			<g>
				<g>
					<g>
						<path class="st18" d="M216.2,420.8c-2.3,0.8-67.6,0.6-70.1-1c-0.9-0.6-1.5-10.1-1.8-21.6c-0.1-2.5-0.1-5.1-0.2-7.7
							c-0.3-16.9-0.2-34.9-0.2-34.9h43.7l-1,34.9l-0.2,7.7c0,0,25,11.3,27.5,13.3C216.5,413.5,218.5,420,216.2,420.8z"/>
						<path class="st16" d="M216.2,420.8c-2.3,0.8-67.6,0.6-70.1-1c-1.1-0.7-1.7-14.6-1.9-29.3h42.5l-0.2,7.7c0,0,25,11.3,27.5,13.3
							C216.5,413.5,218.5,420,216.2,420.8z"/>
						<g>
							<path class="st7" d="M216.2,420.8c-2.3,0.8-67.6,0.6-70.1-1c-0.9-0.6-1.5-10.1-1.8-21.6h42.1c0,0,25,11.3,27.5,13.3
								C216.5,413.5,218.5,420,216.2,420.8z"/>
							<g>
								<g>
									<path class="st9" d="M215.2,418.2c-11-0.3-55.2-0.5-66,0.1c-0.1,0-0.1,0.1,0,0.1c10.9,0.5,55.1,0.4,66,0.1
										C215.5,418.3,215.5,418.2,215.2,418.2z"/>
									<path class="st9" d="M209.7,409.1c-2.6-0.1-5.1,1.1-6.6,2.7c-1.4,1.5-2.5,3.6-2.5,5.8c0,0.1,0.1,0.1,0.1,0
										c0.6-4.3,4.5-8,8.9-8.4C209.8,409.2,209.8,409.1,209.7,409.1z"/>
									<path class="st9" d="M190.6,399.2c-4.4-0.1-9.5,1.5-12.2,5c-0.1,0.1,0.1,0.3,0.2,0.2c4-2,7.7-3.5,12.1-4.7
										C191,399.7,191,399.2,190.6,399.2z"/>
									<path class="st9" d="M194,400.6c-4.4-0.1-9.5,1.5-12.2,5c-0.1,0.1,0.1,0.3,0.2,0.2c4-2,7.7-3.5,12.1-4.7
										C194.4,401,194.3,400.6,194,400.6z"/>
									<path class="st9" d="M197.4,401.9c-4.4-0.1-9.5,1.5-12.2,5c-0.1,0.1,0.1,0.3,0.2,0.2c4-2,7.7-3.5,12.1-4.7
										C197.8,402.4,197.7,401.9,197.4,401.9z"/>
									<path class="st9" d="M200.8,403.2c-4.4-0.1-9.5,1.5-12.2,5c-0.1,0.1,0.1,0.3,0.2,0.2c4-2,7.7-3.5,12.1-4.7
										C201.2,403.7,201.1,403.2,200.8,403.2z"/>
									<path class="st9" d="M152,407.8c-4.9,0-4.9,7.6,0,7.6C157,415.5,157,407.8,152,407.8z"/>
								</g>
								<path class="st9" d="M195.4,387.6c-2.2-1.8-5-0.1-6.4,1.9c-2.2,3.1-3.8,7.4-4,11.2c0,0.1,0.1,0.1,0.1,0.1
									c0.1,0.3,0.5,0.6,0.8,0.4c3.1-2.2,6.7-4.1,9.1-7.1C196.4,392.2,197.5,389.3,195.4,387.6z M190,396.9
									c-1.5,1.1-3.1,2.1-4.5,3.3c0.8-2.2,1.5-4.4,2.5-6.5c0.5-1,1-2,1.6-3c1-1.4,5.3-5.1,5.7-0.3C195.5,393,191.8,395.6,190,396.9
									z"/>
								<path class="st9" d="M174.1,402.2c3.8,0.6,7.8-0.5,11.5-1c0.4-0.1,0.5-0.5,0.3-0.8c0.1,0,0.1-0.1,0-0.2
									c-2.8-2.6-6.9-4.7-10.6-5.4c-2.3-0.5-5.6,0.2-5.9,3C169.1,400.5,171.9,401.8,174.1,402.2z M171.5,399.7
									c-3-3.8,2.7-4.1,4.4-3.7c1.1,0.3,2.2,0.7,3.2,1.1c2.2,0.8,4.2,2,6.3,3c-1.9,0.2-3.7,0.5-5.5,0.7
									C177.5,401.1,173.1,401.8,171.5,399.7z"/>
							</g>
						</g>
					</g>
					<g>
						<path class="st18" d="M40.6,400.5c-2-1.4-40.4-54.3-40.6-57.2c-0.1-1.1,7.3-7.2,16.4-14.2c2-1.5,4-3.1,6.1-4.7
							c13.5-10.2,28.1-20.8,28.1-20.8l25.8,35.3l-28.8,19.8l-6.3,4.4c0,0,5.7,26.8,5.5,30.1C46.7,396.4,42.6,401.9,40.6,400.5z"/>
						<path class="st16" d="M40.6,400.5c-2-1.4-40.4-54.3-40.6-57.2c-0.1-1.4,10.8-10,22.5-18.9l25.1,34.3l-6.3,4.4
							c0,0,5.7,26.8,5.5,30.1C46.7,396.4,42.6,401.9,40.6,400.5z"/>
						<g>
							<path class="st7" d="M40.6,400.5c-2-1.4-40.4-54.3-40.6-57.2c-0.1-1.1,7.3-7.2,16.4-14.2l24.9,34c0,0,5.7,26.8,5.5,30.1
								C46.7,396.4,42.6,401.9,40.6,400.5z"/>
							<g>
								<g>
									<path class="st9" d="M42.2,398.2c-6.2-9-32.2-44.8-39-53.2c-0.1-0.1-0.1,0-0.1,0c6,9.1,32.2,44.7,38.9,53.3
										C42.2,398.5,42.3,398.4,42.2,398.2z"/>
									<path class="st9" d="M46.3,388.4c-1.4-2.2-3.9-3.5-6-3.7c-2-0.2-4.4,0.1-6.2,1.5c-0.1,0,0,0.1,0.1,0.1
										c3.8-2,9.2-1.1,12,2.2C46.2,388.5,46.3,388.4,46.3,388.4z"/>
									<path class="st9" d="M42.9,367.2c-2.5-3.6-6.8-6.8-11.3-6.9c-0.2,0-0.2,0.2,0,0.3c4,2,7.4,4.2,10.9,6.9
										C42.8,367.7,43.1,367.4,42.9,367.2z"/>
									<path class="st9" d="M43.8,370.7c-2.5-3.6-6.8-6.8-11.3-6.9c-0.2,0-0.2,0.2,0,0.3c4,2,7.4,4.2,10.9,6.9
										C43.7,371.2,44,370.9,43.8,370.7z"/>
									<path class="st9" d="M44.8,374.2c-2.5-3.6-6.8-6.8-11.3-6.9c-0.2,0-0.2,0.2,0,0.3c4,2,7.4,4.2,10.9,6.9
										C44.6,374.8,44.9,374.4,44.8,374.2z"/>
									<path class="st9" d="M45.7,377.7c-2.5-3.6-6.8-6.8-11.3-6.9c-0.2,0-0.2,0.2,0,0.3c4,2,7.4,4.2,10.9,6.9
										C45.5,378.3,45.9,378,45.7,377.7z"/>
									<path class="st9" d="M13.2,341.1c-2.9-4-9.1,0.5-6.2,4.5C9.9,349.6,16.1,345.1,13.2,341.1z"/>
								</g>
								<path class="st9" d="M55.2,364.1c0.2-2.9-2.9-4.1-5.3-4.1c-3.8,0-8.2,1.3-11.4,3.4c-0.1,0.1-0.1,0.1,0,0.2
									c-0.2,0.3-0.2,0.7,0.2,0.8c3.6,1.3,7.3,3,11.1,3.2C52,367.7,55,366.8,55.2,364.1z M44.5,365.2c-1.8-0.6-3.5-1.2-5.3-1.7
									c2.2-0.7,4.4-1.4,6.7-1.8c1.1-0.2,2.2-0.4,3.3-0.4c1.7-0.1,7.2,1.2,3.6,4.4C50.8,367.4,46.6,365.9,44.5,365.2z"/>
								<path class="st9" d="M30.8,355.6c1.8,3.4,5,6,7.6,8.7c0.3,0.3,0.7,0.1,0.8-0.2c0.1,0,0.1,0,0.2-0.1
									c0.4-3.8-0.3-8.3-1.9-11.8c-1-2.1-3.4-4.4-5.9-3C29.2,350.5,29.7,353.6,30.8,355.6z M31.2,352c1.3-4.6,4.9-0.2,5.5,1.4
									c0.4,1,0.7,2.1,1,3.2c0.6,2.3,0.9,4.5,1.2,6.8c-1.2-1.4-2.6-2.7-3.9-4C33.6,357.7,30.5,354.5,31.2,352z"/>
							</g>
						</g>
					</g>
					<g>
						<path class="st17" d="M188.4,385.6h-46.1c0,0,0.5-33.8,0-61.2c0-1,0-1.9,0-2.8c0-1.9-0.1-3.8-0.1-5.6v0c0-0.9,0-1.9-0.1-2.8
							c0-1.9-0.1-3.8-0.1-5.6c0-0.3,0-0.5,0-0.8c0-0.7,0-1.4,0-2c0-1.9-0.1-3.8-0.2-5.5c0-1,0-1.9-0.1-2.7c-0.1-4.1-0.3-7.4-0.4-9.4
							c-0.6-8.6-7.6-46.9-13.3-77.8c0,0,0-0.1,0-0.1c-0.1-0.5-0.2-0.9-0.3-1.4c0,0,0-0.1,0-0.1c-0.1-0.5-0.2-0.9-0.2-1.4
							c0,0,0,0,0,0c0,0,0-0.1,0-0.1c-0.1-0.5-0.2-0.9-0.3-1.4c0,0,0-0.1,0-0.1c-3.8-20.3-6.9-36.3-6.9-36.3h48.6
							c0,0,15,101.6,17.1,118.4C187.9,303.5,188.4,385.6,188.4,385.6z"/>
						<path class="st9" d="M186.2,377.3c-7.2-0.1-5.1-0.2-12.3-0.3c-3.5,0-26.6-0.2-29.9,0.3c-0.1,0-0.1,0.1,0,0.1
							c3.3,0.5,26.4,0.3,29.9,0.3c7.2-0.1,5.1-0.1,12.3-0.3C186.3,377.5,186.3,377.3,186.2,377.3z"/>
						<g>
							<path class="st9" d="M160.5,207.8l-18.5,99c0-0.7,0-1.4,0-2c0-1.9-0.1-3.8-0.2-5.5c0-1,0-1.9-0.1-2.7
								c-0.1-4.1-0.3-7.4-0.4-9.4c-0.6-8.6-7.6-46.9-13.3-77.8c0,0,0-0.1,0-0.1c-0.1-0.5-0.2-0.9-0.3-1.4c0,0,0-0.1,0-0.1
								c-0.1-0.5-0.2-0.9-0.2-1.4L160.5,207.8z"/>
						</g>
					</g>
					<g>
						<path class="st17" d="M169.2,168.2c0.8,24.1-8.8,32.5-8.8,32.5s-20.2,68.6-31.4,89.4C117.7,310.9,52.6,359,52.6,359L23,320.3
							c0,0,59.1-35.9,64.2-44.6c2.8-4.8,24.9-61.1,24-66.3c-4.2-25.1,4.1-41.2,4.1-41.2H169.2z"/>
						<g>
							<path class="st9" d="M157.3,207.8c-2.8,11.2-3.8,15.5-7.6,26.4c-3.7,10.9-8,21.7-11.3,32.7c0,0.1,0.1,0.2,0.2,0.1
								c4.5-10.5,8.2-21.3,12-32.1c3.8-11.1,5-15.5,7.5-26.9C158.2,207.5,157.4,207.3,157.3,207.8z"/>
							<path class="st9" d="M165.6,203c-4.6,2.1-8.9,4.9-13,7.8c-0.2,0.1,0,0.4,0.2,0.3c4.4-2.5,8.9-4.9,13.2-7.6
								C166.2,203.4,165.9,202.9,165.6,203z"/>
							<path class="st9" d="M162.6,169.6c0-0.2-0.3-0.2-0.3,0c0.6,5.5,0.8,10.3,0.8,15.5c0,2.4-0.5,15.7-4.7,15.2
								c-0.7-0.1-1.1-0.7-1.3-1.8c-0.3-1.2,0-2.8,0.1-4.1c0.2-2.8,0.2-5.6,0.2-8.4c-0.1-5.2-0.6-10.4-1.8-15.5c0-0.2-0.3-0.1-0.3,0
								c0.8,7.2,1.3,14.4,1,21.6c-0.2,3.5-1.3,8.8,2.3,8.9c3.7,0.2,5.1-8.7,5.3-11.1C164.5,183.3,163.8,176.2,162.6,169.6z"/>
							<path class="st9" d="M158.5,200.7c-0.3,0.9-0.5,1.9-0.6,2.8c-0.1,0.7-0.3,1.5-0.2,2.3c0,0.1,0.2,0.1,0.3,0
								c0.4-0.7,0.5-1.5,0.7-2.3c0.2-0.9,0.5-1.7,0.7-2.6C159.6,200.3,158.7,200.1,158.5,200.7z"/>
						</g>
						<path class="st9" d="M59,352.6c-4-5.9-2.8-4.3-6.9-10.2c-2-2.9-15.3-21.8-17.6-24.2c-0.1-0.1-0.2,0-0.1,0.1
							c1.5,3,15,21.7,17.1,24.6c4.2,5.8,3.1,4.1,7.4,9.9C59,352.9,59.1,352.8,59,352.6z"/>
					</g>
				</g>
				<g>
					<g>
						<path class="st18" d="M149,109.8c0.4,8.1,12.6,51.1,26.5,60.2c13,8.5,49.2,2.6,56.8,0.3c3.3-1-2.8-21.3-5.8-23.5
							c-3-2.2-34.7,2.1-37.4,1.2c-2.6-0.9-17.6-19.7-25-31C159.5,109.8,148.7,104.1,149,109.8z"/>
						<g>
							<path class="st8" d="M148.8,108.3c-1.5,6.6,6.7,38.4,7.5,38.4c0.8,0,22.2-10.9,22.3-11.9c0-1-10.1-14.7-14.9-20.1
								C159,109.2,149.9,103.5,148.8,108.3z"/>
							<path class="st9" d="M175.5,130.7c-3.5,1.7-17,9.3-20.3,11.3c-0.2,0.1,0,0.5,0.2,0.4c3.5-1.7,17.1-9.1,20.3-11.3
								C176,130.9,175.8,130.5,175.5,130.7z"/>
						</g>
					</g>
					<g>
						<path class="st16" d="M140.2,108.3c-8.5,5.4-14.1,15-16.6,23.8c-2.5,8.7-9,37.2-7.5,38c1.4,0.8,18.8,13.3,34,10.4
							c15.3-2.9,21.5-6.8,23.4-9.1c1.9-2.2-6.2-42-8-49.1c-1.8-7.2-7.4-15.1-9.1-15.3C154.8,106.8,143.5,106.2,140.2,108.3z"/>
						<path class="st6" d="M159.7,111c0-0.2-0.3-0.2-0.3,0c-0.1,2.7,0.1,5.6-2,7.6c-2.3,2.2-5.9,1-8.4-0.3c-3.9-1.9-6.8-5.2-9.1-8.7
							c-0.1-0.1-0.3,0-0.2,0.1c2.7,4.7,7,9.1,12.4,10.4C158.2,121.7,160.3,116.2,159.7,111z"/>
					</g>
					<path class="st8" d="M145.5,186.5c-0.3,0.2-6.6-0.7-13.9-3.3c-0.2-0.1-0.3-0.1-0.5-0.2c-0.2-0.1-0.4-0.1-0.6-0.2
						c-0.1-0.1-0.3-0.1-0.4-0.2c-0.2-0.1-0.3-0.1-0.5-0.2c-0.1,0-0.1,0-0.2-0.1c-0.3-0.1-0.5-0.2-0.8-0.3c-0.2-0.1-0.3-0.1-0.5-0.2
						c-0.3-0.1-0.6-0.3-1-0.4c-0.2-0.1-0.3-0.2-0.5-0.2c-4.9-2.3-9.8-5.3-13.5-9.5c-1.6-1.9,4.4-22.8,8.7-36.6
						c0-0.1,0.1-0.3,0.1-0.4c0.2-0.6,0.4-1.2,0.5-1.7c0-0.2,0.1-0.3,0.1-0.4c0-0.1,0-0.2,0.1-0.2c0.2-0.5,0.3-1,0.5-1.5
						c0.1-0.1,0.1-0.3,0.1-0.4c0,0,0-0.1,0-0.1c0.2-0.6,0.4-1.1,0.5-1.6v0c0-0.1,0.1-0.3,0.1-0.4c0.5-1.6,0.9-2.9,1.2-3.8
						c2.5-7.5,16-17.8,16-17.8S146.1,186.2,145.5,186.5z"/>
					<g>
						<path class="st8" d="M157.7,107.5c0,0,10.8,72.8,11.8,73.4c1,0.6,6-6.2,6.4-9.8c0.3-3.6-9.1-49.2-11.1-53.2
							C162.7,113.9,157.7,107.5,157.7,107.5z"/>
						<path class="st9" d="M168.1,130c-0.1-1.3-0.2-2.6-0.3-3.9c0-0.1-0.1-0.1-0.1,0c0,0.7,0,1.5,0,2.2c-0.5-2-1-4-1.5-6
							c0-0.1-0.2-0.1-0.2,0c2.4,12.4,5.2,24.7,8.2,36.9c0.1,0.2,0.4,0.1,0.3-0.1C172.6,149.4,170.4,139.7,168.1,130z"/>
					</g>
					<path class="st9" d="M136.5,121.7l-6,61c-0.1-0.1-0.3-0.1-0.4-0.2c-0.2-0.1-0.3-0.1-0.5-0.2c-0.1,0-0.1,0-0.2-0.1
						c-0.3-0.1-0.5-0.2-0.8-0.3c-0.2-0.1-0.3-0.1-0.5-0.2c-0.3-0.1-0.6-0.3-1-0.4c-0.2-0.1-0.3-0.2-0.5-0.2
						c-4.9-2.3-9.8-5.3-13.5-9.5c-1.6-1.9,4.4-22.8,8.7-36.6c0-0.1,0.1-0.3,0.1-0.4c0.2-0.6,0.4-1.2,0.5-1.7c0-0.2,0.1-0.3,0.1-0.4
						c0-0.1,0-0.2,0.1-0.2c0.2-0.5,0.3-1,0.5-1.5c0.1-0.1,0.1-0.3,0.1-0.4c0,0,0-0.1,0-0.1L136.5,121.7z"/>
				</g>
				<g>
					<g>
						<g>
							<path class="st18" d="M155.1,116.4c-3.6,1.2-10.3-3.9-13.2-8.2c-0.2-0.3,0-3.6,0-7.6c0-2.4,0-5.2-0.2-7.6
								c0-0.5,1.8,0.3,1.8,0.3l3.3,0.5l10.8,1.7c0,0-1.1,5.3-0.7,9.7c0,0.4,0.1,0.7,0.2,1c0,0,0,0.1,0,0.2
								C157.7,108.1,158.6,115.3,155.1,116.4z"/>
						</g>
						<path class="st9" d="M157.2,106.1c0,0,0,0.1,0,0.2c-0.5,0.1-1,0.2-1.6,0.2c-10.5,0.7-12.9-12.5-12.9-12.5l4.2-0.2l10.8,1.7
							c0,0-1.1,5.3-0.7,9.7C157,105.4,157.1,105.8,157.2,106.1z"/>
					</g>
					<g>
						<path class="st9" d="M159.3,66.4c0,0,5.2,2.6,5.7,8.1c0.6,5.5-1.1,11.1-1.6,11.3C163,86.1,159.3,66.4,159.3,66.4z"/>
						<g>
							<path class="st18" d="M138.3,73.4c-1.9,5.5,0.3,21.6,4.1,25.3c5.5,5.4,14.8,6.3,19.5-0.4c4.5-6.5,1.2-27.4-3-30.8
								C152.6,62.4,141.2,65.3,138.3,73.4z"/>
						</g>
						<g>
							<path class="st9" d="M138.7,89.6c2,0.3,3.2-5.7,3.5-7.9c0.2-2-0.1-8.1-0.1-8.5c0-0.4,9,4.1,13.5,2c4.5-2.1,7-6.8,6.7-8.8
								c-0.2-2-6.9-6.1-12-5.5c-5.1,0.5-10.9,8-10.9,8s1.9-3.1,1.8-3.4c-0.1-0.2-3.2,1.6-3.4,4c0,0,0.2-3-0.1-3
								c-0.3,0-2.4,2.9-1.5,4.7c0,0-2.5,3-2.4,5.8C134,79.7,136.4,89.2,138.7,89.6z"/>
							<path class="st9" d="M158.8,73.6c-1.3,0.9-2.6,1.8-4.2,2.3c-1.7,0.5-3.5,0.3-5.2,0c-1.7-0.4-3.3-1-4.9-1.9
								c-1.3-0.8-2.6-1.8-3.9-2.5c-0.3-0.2-0.6,0.3-0.4,0.6c2.4,2.6,6.1,4.4,9.5,4.9C153.3,77.5,156.4,76.3,158.8,73.6
								C158.9,73.6,158.8,73.5,158.8,73.6z"/>
						</g>
						<g>
							<path class="st18" d="M141.1,88.5c0,0-3.5-5.3-5.9-4c-2.4,1.2,0.2,8.8,2.9,9.9c2.7,1.1,3.8-1.4,3.8-1.4L141.1,88.5z"/>
							<path class="st9" d="M136,86.7C135.9,86.7,135.9,86.7,136,86.7c1.9,0.9,2.9,2.7,3.5,4.6c-0.6-0.7-1.3-1.1-2.3-0.5
								c-0.1,0,0,0.1,0.1,0.1c0.8-0.2,1.4,0,1.9,0.6c0.4,0.5,0.6,1,0.9,1.6c0.1,0.2,0.4,0.1,0.3-0.1c0,0,0,0,0,0
								C140.4,90.5,138.6,87,136,86.7z"/>
						</g>
						<line class="st19" x1="142.1" y1="98.5" x2="142.1" y2="98.5"/>
					</g>
					<g>
						<g>
							<path class="st9" d="M152.2,84.5c0,0-0.1,0.1-0.1,0.1c0.2,1.1,0.2,2.3-0.7,2.8c0,0,0,0.1,0,0.1
								C152.6,87.2,152.5,85.5,152.2,84.5z"/>
							<path class="st9" d="M151.1,83.5c-1.8,0.1-1.4,3.6,0.2,3.5C152.9,86.9,152.5,83.4,151.1,83.5z"/>
						</g>
						<g>
							<path class="st9" d="M158.9,83.7C158.9,83.7,159,83.8,158.9,83.7c0.2,1.2,0.4,2.4,1.4,2.7c0,0,0,0.1,0,0.1
								C159.1,86.4,158.8,84.8,158.9,83.7z"/>
							<path class="st9" d="M159.7,82.5c1.7-0.3,2.2,3.2,0.6,3.5C158.7,86.2,158.3,82.7,159.7,82.5z"/>
						</g>
						<path class="st9" d="M149.5,82c0.5-0.2,0.9-0.4,1.3-0.6c0.5-0.2,0.9-0.4,1.2-0.9c0.2-0.3,0-0.7-0.2-0.9
							c-0.6-0.4-1.3-0.3-1.9,0c-0.7,0.3-1.1,0.7-1.5,1.3C148.2,81.6,148.9,82.2,149.5,82z"/>
						<path class="st9" d="M160.9,80.6c-0.5,0-0.9-0.1-1.4-0.2c-0.5-0.1-1-0.1-1.4-0.5c-0.2-0.2-0.2-0.7,0-0.9
							c0.4-0.6,1.1-0.6,1.8-0.5c0.7,0.1,1.3,0.4,1.8,0.9C162.1,79.8,161.6,80.6,160.9,80.6z"/>
						<path class="st9" d="M153.4,94c0.3,0.2,0.6,0.6,1,0.6c0.4,0,0.8-0.2,1.1-0.4c0,0,0.1,0,0.1,0.1c-0.2,0.4-0.8,0.8-1.3,0.7
							c-0.5,0-0.8-0.4-0.9-0.9C153.3,94,153.4,94,153.4,94z"/>
						<g>
							<g>
								<path class="st9" d="M153,91c0.7,0.9,1.6,1.3,2.6,1.4c0.4,0,0.9,0,1.3-0.1c0.1,0,0.2,0,0.3-0.1c0.1,0,0.1,0,0.2-0.1
									c0.1,0,0.2-0.1,0.2-0.3l0,0c0,0,0-0.1,0-0.1c0,0,0,0,0,0l0-0.1c-0.1-0.8-0.3-2.1-0.3-2.1c0.3,0.1,2,0.7,1.9,0.2
									c-0.6-3.6-1.2-7.6-2.5-11.1c0-0.1-0.2-0.1-0.2,0c0.4,3.5,1.4,6.9,1.9,10.4c-0.5-0.1-1.4-0.4-1.8-0.4c-0.1,0,0.4,2.4,0.4,2.8
									c0,0,0,0,0,0c-1.4,0.3-2.5,0-4-0.8C153,90.8,153,90.9,153,91z"/>
							</g>
						</g>
					</g>
				</g>
				<g>
					<g>
						
							<rect x="65.1" y="156" transform="matrix(0.8861 -0.4635 0.4635 0.8861 -68.2198 92.6869)" class="st4" width="178.7" height="58.2"/>
						<g>
							<g>
								<path class="st6" d="M117.6,200.4c2.7,5.1,2.7,11,0.6,15.9c-1.6,3.7-4.5,7-8.4,9c-3.9,2-8.2,2.5-12.2,1.7
									c-5.3-1-10.1-4.4-12.8-9.5c-4.7-9-1.2-20.2,7.8-24.9C101.8,187.9,112.9,191.4,117.6,200.4z"/>
								<path class="st16" d="M105,201.4c1.7,3.3,0.5,7.5-2.9,9.2c-3.3,1.7-7.5,0.5-9.2-2.9c-1.7-3.3-0.5-7.5,2.9-9.2
									C99.1,196.8,103.3,198,105,201.4z"/>
								<path class="st16" d="M117.8,215.5c0.1,0.3,0.3,0.5,0.4,0.8c-1.6,3.7-4.5,7-8.4,9c-3.9,2-8.2,2.5-12.2,1.7
									c-0.2-0.3-0.3-0.5-0.5-0.8c-3-5.7-0.8-12.7,4.9-15.7C107.8,207.6,114.8,209.8,117.8,215.5z"/>
							</g>
							<g>
								
									<rect x="120.5" y="167.7" transform="matrix(0.8861 -0.4635 0.4635 0.8861 -58.6716 98.2511)" class="st17" width="100.1" height="1.7"/>
								
									<rect x="126.7" y="187.5" transform="matrix(0.8861 -0.4635 0.4635 0.8861 -70.8694 88.2834)" class="st16" width="35" height="1.7"/>
								
									<rect x="125.5" y="177.2" transform="matrix(0.8861 -0.4635 0.4635 0.8861 -62.5012 101.6293)" class="st16" width="100.1" height="1.7"/>
								
									<rect x="127.9" y="181.9" transform="matrix(0.8861 -0.4635 0.4635 0.8861 -64.416 103.3184)" class="st16" width="100.1" height="1.7"/>
								
									<rect x="132.6" y="195.7" transform="matrix(0.8861 -0.4635 0.4635 0.8861 -72.4754 98.0422)" class="st16" width="61.2" height="1.7"/>
							</g>
							<polygon class="st8" points="123.3,176.6 125.9,178.4 128.8,177.4 127.8,180.4 129.7,182.8 126.6,182.8 124.8,185.4 
								123.9,182.4 120.9,181.5 123.4,179.7 							"/>
							<polygon class="st8" points="134.5,170.8 137,172.6 139.9,171.6 138.9,174.6 140.8,177 137.7,177 136,179.6 135,176.6 
								132,175.7 134.5,173.9 							"/>
							<polygon class="st8" points="145.6,165 148.1,166.8 151,165.8 150.1,168.7 152,171.2 148.9,171.2 147.1,173.8 146.1,170.8 
								143.1,169.9 145.7,168.1 							"/>
							<polygon class="st8" points="156.7,159.2 159.2,161 162.2,160 161.2,162.9 163.1,165.4 160,165.4 158.2,167.9 157.3,165 
								154.3,164.1 156.8,162.3 							"/>
							<polygon class="st8" points="167.9,153.3 170.4,155.2 173.3,154.1 172.3,157.1 174.2,159.6 171.1,159.6 169.3,162.1 
								168.4,159.2 165.4,158.3 167.9,156.4 							"/>
						</g>
					</g>
					<g>
						<path class="st18" d="M233.7,137.6c2.5,2.7,7.4,5.4,8.5,7.9c1,2.2-0.7,3.6-0.7,3.6s3,0.5,3.6,2.9c0.3,1.2-1.4,2.8-1.4,2.8
							s2.3,0.5,2.8,2.7c0.3,1.7-1.4,3.1-1.4,3.1s2,1.5,1.8,3.4c-0.4,3.8-14.9,8.3-18.8,3.6c-1.8-2.2,1.8-3.1,1.8-3.1
							s-5.5,0.1-6.5-2.9c-1-3,3.7-3.9,3.7-3.9s-5.3,0-6-3.2c-0.8-3.3,4.1-3.4,4.1-3.4s-3.9-1.2-3.9-3.7c0-4.2,9.6-1.6,12.5-3.3
							l-2.8-5.3L233.7,137.6z"/>
						<path class="st18" d="M238,141.3c-2.1-2.7,0.5-7.7-1.1-10.7c-2.2-3.9-7.3,2.7-5.6,8.8l2.3,4.2L238,141.3z"/>
						<g>
							<path class="st9" d="M244.9,160.9C245,160.8,245,160.9,244.9,160.9c-4.4,2.7-10,4.2-15.1,3.8c-0.2,0-0.2-0.3,0-0.3
								C235.1,163.8,239.9,162.9,244.9,160.9z"/>
							<path class="st9" d="M243.9,154.9c0.1,0,0.1,0.1,0,0.1c-4.5,2.7-11,4.3-16.8,3c-0.2,0-0.3-0.3-0.1-0.3
								C230.9,158.3,239.3,156.7,243.9,154.9z"/>
							<path class="st9" d="M224.9,151.1c5.7,0.9,11.1,0,16.5-1.8c0.1,0,0.1,0.1,0,0.1c-2.4,1.6-6,2.4-8.8,2.7
								c-2.7,0.4-5.2,0.1-7.8-0.9C224.8,151.2,224.8,151,224.9,151.1z"/>
						</g>
					</g>
				</g>
				<g>
					<path class="st18" d="M134.5,110.4c-6.9,4.3-39.5,33.3-40.6,49.9c-1,15.5,15.7,36.2,20.3,42.8c2,2.9,21.9-9.2,22.4-12.9
						c0.5-3.7-16.2-25.9-16.7-28.6c-0.5-2.8,9.6-22.3,15.9-34.4C139.6,119.6,139.3,107.3,134.5,110.4z"/>
					<g>
						<path class="st18" d="M146.7,209.2c2.7,3.5,9,5.8,7.2,8.5c-1.7,2.4-5.9,0.3-5.9,0.3s4.1,3.9,1.5,5.9c-2.5,2-6.7-1.2-6.7-1.2
							s3.5,3.1,0.9,4.9c-2.7,1.8-6.7-0.2-6.7-0.2s0.4,1.6-2.1,2c-3.5,0.7-9.4-4.5-11.8-7.9c-2.4-3.4-8.7-17.6-9.6-19.8l21.7-15.7
							c0,0,7.1,4.1,10.4,6.6c3.3,2.5,12,13.8,9.4,16.1c-2.7,2.3-8.7-5.7-10.6-7.4c-1.9-1.7-2.6-1.5-2.3-0.1
							C142.1,202.2,145.5,207.7,146.7,209.2z"/>
						<g>
							<path class="st9" d="M147.8,217.8c-5.7-3.3-7.7-5.7-10.7-11.5c-0.1-0.1-0.2,0-0.2,0.1c2.5,5.9,4.5,9.3,10.8,11.7
								C147.9,218.2,148,217.9,147.8,217.8z"/>
							<path class="st9" d="M143,222.8c-5.7-3.9-7.8-6.6-11.4-12.3c-0.1-0.1-0.2,0-0.2,0.1c3.1,6,5.2,9.3,11.3,12.5
								C143,223.2,143.2,223,143,222.8z"/>
							<path class="st9" d="M136.8,227.3c-5.2-4.2-7.7-7-10.5-13c-0.1-0.1-0.3-0.1-0.2,0.1c2.3,6.5,5.3,9.9,10.5,13.1
								C137,227.7,137.1,227.6,136.8,227.3z"/>
						</g>
					</g>
					<g>
						<path class="st8" d="M135.7,109.5c-6.5,1.9-30.3,24.6-29.9,25.3c0.3,0.7,20.4,14.1,21.3,13.7c0.9-0.5,7.9-16,10.3-22.8
							C139.8,118.8,140.4,108.1,135.7,109.5z"/>
						<path class="st9" d="M129.2,143.7c-3.1-2.2-16.4-10.3-19.7-12.2c-0.2-0.1-0.4,0.2-0.2,0.4c3.2,2.2,16.3,10.5,19.7,12.2
							C129.2,144.2,129.4,143.9,129.2,143.7z"/>
					</g>
				</g>
			</g>
		</g>
	</g>
</g>
</svg>
